<?xml version="1.0" encoding="UTF-8"?><svg id="Layer_4" xmlns="http://www.w3.org/2000/svg" viewBox="0 0 1656 1644.27"><path d="M1656,872.3v179.52c-8.08-.02-16.16-.04-24.23-.06-.88,0-1.76,.01-2.64,0-2.28-.04-2.38-.12-2.38-2.5-.02-7.28-.01-14.56-.01-21.84,0-31.67-.01-63.34-.02-95.02v-3.02c-.79,.28-.91,.94-1.14,1.45-3.19,6.98-6.36,13.96-9.54,20.93-4.97,10.89-9.94,21.78-14.92,32.66-5.18,11.33-10.36,22.65-15.57,33.96-3.33,7.26-6.72,14.49-10.08,21.74-1.54,3.33-3.09,6.66-4.56,10.03-.52,1.19-1.23,1.66-2.55,1.64-5.6-.06-11.2-.06-16.8,.01-1.42,.01-2.19-.57-2.76-1.8-5.41-11.84-10.86-23.66-16.3-35.49-3.57-7.76-7.14-15.52-10.7-23.29-4.41-9.66-8.79-19.33-13.2-28.98-3.39-7.4-6.82-14.78-10.21-22.18-1.13-2.46-2.2-4.96-3.32-7.43-.38-.84-.67-1.76-1.79-2.75v2.9c-.01,38.48-.02,76.95-.03,115.42,0,3.54,.35,3.57-3.5,3.56-7.76-.01-15.52,.01-23.28,.01-.64,0-1.28,0-1.92-.02-.67-.03-1-.4-1.01-1.07-.01-.56-.02-1.12-.02-1.68v-173.72c0-.56,0-1.12,.03-1.68,.04-.76,.48-1.15,1.22-1.2,.48-.03,.96-.04,1.44-.04,9.68,0,19.36,.03,29.03-.04,1.58-.02,2.5,.4,3.17,1.86,1.46,3.2,3.08,6.32,4.61,9.48,2.22,4.59,4.43,9.19,6.63,13.8,2.86,5.98,5.7,11.97,8.56,17.96,4.71,9.86,9.4,19.74,14.14,29.59,3.88,8.05,7.83,16.08,11.72,24.12,4.28,8.85,8.52,17.71,12.82,26.55,.96,1.97,1.58,4.13,3.02,6.11,1.45-2.29,2.45-4.64,3.55-6.91,2.2-4.53,4.32-9.09,6.48-13.64,3.44-7.2,6.86-14.42,10.33-21.61,3.06-6.32,6.22-12.59,9.27-18.91,4.29-8.93,8.51-17.89,12.79-26.82,4.24-8.87,8.52-17.71,12.77-26.57,2.14-4.46,4.3-8.92,6.34-13.44,.63-1.39,1.62-1.54,2.89-1.53,9.2,.01,18.4,0,27.59,0,1.36,0,2.72-.04,4.08-.06Z" fill="#f499ba"/><path d="M253.9,1024.61c.86,.81,.78,1.31,0,2.13-5.28,5.53-11.14,10.3-17.67,14.25-5.69,3.44-11.63,6.37-17.94,8.45-7.9,2.59-15.92,4.68-24.31,4.82-1.03-.01-2.08-.1-3.1-.02-1.07,.08-2.24-.43-3.2,.46h-.96c-.39-.52-.97-.48-1.52-.47-1.75,0-3.5,.02-5.25,.03-6.87-.02-13.45-1.68-19.95-3.61-10.2-3.04-19.51-7.93-28.03-14.26-7.54-5.61-14.06-12.28-19.57-19.91-5.6-7.75-9.9-16.17-12.87-25.26-2.02-6.16-3.38-12.43-4.1-18.88-.67-5.99-.65-11.99-.29-17.96,.51-8.39,2.48-16.54,5.41-24.44,3.21-8.67,7.63-16.68,13.22-24.04,6.89-9.06,15.23-16.53,24.87-22.58,6.2-3.89,12.77-6.95,19.69-9.25,5.45-1.81,11.05-3.02,16.77-3.74,6.86-.86,13.74-.55,20.6-.35,4.2,.12,8.38,.97,12.51,1.89,10.06,2.25,19.49,6.12,28.26,11.49,6.75,4.14,12.98,9,18.18,15.01-.13,.67-.62,1-1,1.39-6.62,6.62-13.24,13.23-19.87,19.83-1.38,1.38-1.41,1.37-2.82,.12-7.76-6.84-16.51-11.97-26.29-15.38-7.96-2.79-16.14-4-24.51-3.12-5.9,.61-11.57,2.31-17.01,4.72-7.48,3.31-14.05,7.96-19.46,14.07-8.12,9.17-13.41,19.74-15.12,31.99-.53,3.8-1,7.59-.87,11.44,.28,8.28,1.84,16.28,5.16,23.93,5.34,12.28,13.74,21.75,25.36,28.44,5.62,3.23,11.61,5.38,17.9,6.57,8.75,1.64,17.42,1.09,25.97-1.64,8.83-2.83,17.01-6.86,24.36-12.53,1.51-1.17,2.97-2.43,4.41-3.69,1.51-1.33,1.51-1.38,3,.11,4.88,4.85,9.73,9.72,14.6,14.58,1.81,1.81,3.58,3.66,5.44,5.41Z" fill="#f499ba"/><path d="M186.72,1054.7c-2.22-.68-4.55,.15-6.77-.44,1.75-.01,3.5-.03,5.25-.03,.55-.01,1.13-.05,1.52,.47Z" fill="#f499ba"/><path d="M193.98,1054.26c-2.07,.56-4.23-.21-6.3,.44,.96-.89,2.13-.38,3.2-.46,1.02-.08,2.07,.01,3.1,.02Z" fill="#f499ba"/><path d="M33.06,1050.95c.02,.56-.43,.82-.96,.85-.48,.03-.96,.03-1.44,.03-10.22,0-20.44-.01-30.66-.01v-179.52c10.14-.01,20.27-.02,30.41,0,.75,0,1.63-.32,2.19,.53-1.09,.92-2.42,.71-3.67,.71-8.08,.02-16.15,0-24.22,.02-3.29,0-3.45,.14-3.45,3.31-.01,56.76-.01,113.51,0,170.26,0,3.2,.22,3.42,3.38,3.43,7.2,.02,14.39-.09,21.58,.06,3.01,.06,5.71,.12,6.46-3.62,.85,1.24,.33,2.63,.38,3.95Z" fill="#f499ba"/><path d="M1.27,769.65c0,.79,.08,1.6-.33,2.34-.31,0-.63-.01-.94-.01v-179.04c.32,0,.64,0,.95-.01,.4,.75,.32,1.56,.32,2.35-.02,58.12-.02,116.24,0,174.37Z" fill="#f499ba"/><path d="M1656,592.94v29.28h-.47c-.64-.69-.75-1.56-.76-2.44-.04-8.12-.04-16.23,0-24.34,0-.88,.06-1.76,.7-2.47,.18,0,.35-.02,.53-.03Z" fill="#f499ba"/><path d="M727.68,1054.7h-12.96c0-.15-.02-.29-.05-.44,.26-.31,.59-.57,.99-.59,3.93-.19,7.86-.6,11.76,.25,.15,.08,.25,.19,.3,.32h0c.05,.14,.03,.29-.04,.46Z" fill="#f499ba"/><path d="M512.66,590.04c-.97,.96-2.23,.84-3.39,.75-2.56-.2-5.25,.75-7.68-.74,0-.16,0-.31,0-.47h11.04c0,.15,.01,.31,.02,.46Z" fill="#f499ba"/><path d="M186.72,1054.7h-6.72c0-.15-.02-.3-.05-.44,1.75-.01,3.5-.03,5.25-.03,.55-.01,1.13-.05,1.52,.47Z" fill="#f499ba"/><path d="M193.98,1054.26c-.04,.14-.06,.29-.06,.44h-6.24c.96-.89,2.13-.38,3.2-.46,1.02-.08,2.07,.01,3.1,.02Z" fill="#f499ba"/><path d="M731.06,1054.27c-.01,.14-.01,.29-.02,.43h-3.36l.03-.45h0c1.12-.9,2.23-.91,3.34,.02Z" fill="#f499ba"/><path d="M1192.84,594.55c-.05,.56-.01,1.12-.01,1.68v172.54c0,3.55,.33,3.22-3.22,3.22-7.76,.01-15.52,0-23.28-.01-.55,0-1.11-.02-1.67-.01-.79,0-1.19-.36-1.19-1.16-.01-.72-.02-1.44-.02-2.16,0-31.99,.1-63.99-.08-95.99-.04-7.34-.18-14.69-.74-22.21-1.06,2.29-2.14,4.56-3.18,6.85-3.01,6.61-5.99,13.23-9,19.84-4.07,8.94-8.14,17.87-12.24,26.79-3.3,7.18-6.66,14.34-9.96,21.53-4.8,10.45-9.5,20.94-14.37,31.36-2.09,4.48-4.19,8.97-6.17,13.5-.57,1.28-1.37,1.73-2.77,1.71-5.52-.08-11.04-.09-16.56,0-1.54,.03-2.28-.56-2.88-1.89-2.33-5.17-4.77-10.29-7.14-15.44-2.51-5.44-4.98-10.9-7.47-16.34-5.05-11.04-10.09-22.08-15.16-33.11-3.41-7.4-6.88-14.76-10.28-22.16-3.57-7.76-7.07-15.55-10.61-23.32-1.42-3.11-2.87-6.21-4.71-9.28-.03,.57-.09,1.14-.1,1.72-.01,.96,0,1.92,0,2.88,0,21.83-.78,43.66-.29,65.48,.36,16.07,.11,32.14,.26,48.21,.03,3.2,0,3.21-3.11,3.21h-23.76c-3.01,0-2.81,.18-2.81-2.91v-163.42c0-3.6-.01-7.2,.01-10.8,.02-1.87,.05-1.92,1.88-1.92,10.16-.02,20.32,.03,30.48-.04,1.52-.02,2.09,.76,2.64,1.91,3.18,6.71,6.38,13.41,9.6,20.11,4.95,10.29,9.93,20.56,14.89,30.85,3.74,7.77,7.46,15.55,11.19,23.33,5.98,12.46,11.97,24.91,17.94,37.38,2.27,4.75,4.51,9.52,6.76,14.28,.2,.43,.35,.91,.96,1.14,1.44-1.8,2.15-4.03,3.16-6.07,3.54-7.16,6.92-14.4,10.39-21.6,4.63-9.64,9.3-19.27,13.94-28.91,3.29-6.84,6.55-13.69,9.82-20.55,5.74-12.03,11.45-24.08,17.2-36.11,2.3-4.82,4.71-9.59,6.99-14.43,.45-.95,1.01-1.31,2.01-1.31,10.31,.02,20.63,.02,30.95,0,1.19,0,1.82,.35,1.71,1.63Z" fill="#f499ba"/><path d="M189.95,771.98c-7.84,.01-15.68,.01-23.52,.01-.56,0-1.12-.01-1.68-.02-.66,0-1.04-.34-1.06-1.02-.01-.72-.02-1.44-.02-2.16-.01-38.71-.02-77.43-.03-116.15v-2.88c-1.06,.65-1.26,1.54-1.6,2.27-3.13,6.82-6.23,13.65-9.32,20.48-2.47,5.45-4.79,10.98-7.39,16.37-3.57,7.41-6.88,14.93-10.33,22.39-3.99,8.62-7.88,17.29-11.84,25.93-2.32,5.08-4.7,10.13-7.04,15.2-2.71,5.88-5.46,11.74-8.08,17.65-.65,1.46-1.48,2.01-3.09,1.98-5.52-.1-11.04-.1-16.56,0-1.48,.03-2.11-.61-2.66-1.81-3.02-6.62-6.08-13.2-9.12-19.8-2.57-5.58-5.13-11.16-7.69-16.75-4.01-8.78-8-17.58-12.03-26.36-3.3-7.19-6.66-14.35-9.96-21.54-3.5-7.62-6.97-15.25-10.44-22.88-1.88-4.14-3.75-8.29-5.63-12.43-.12-.27-.26-.58-.83-.58-.38,.84-.2,1.79-.2,2.7-.01,30.16-.02,60.31-.03,90.47v25.92c0,.56-.01,1.12,0,1.68,.03,.87-.33,1.36-1.26,1.34-.48-.02-.96,0-1.44,0H.94c.41-.74,.33-1.55,.33-2.34-.02-58.13-.02-116.25,0-174.37,0-.79,.08-1.6-.32-2.35,10.4,.01,20.8,.04,31.2-.02,1.73,0,2.71,.45,3.49,2.1,6.34,13.44,12.77,26.84,19.2,40.24,3.76,7.84,7.62,15.64,11.38,23.49,3.97,8.28,7.85,16.6,11.83,24.88,3.76,7.85,7.61,15.66,11.41,23.5,2.09,4.31,4.16,8.62,6.25,12.94,.27,.57,.57,1.13,.93,1.83,1.04-.64,1.26-1.69,1.68-2.56,4.25-8.77,8.45-17.55,12.68-26.33,4.4-9.13,8.83-18.25,13.2-27.39,3.86-8.07,7.63-16.18,11.49-24.25,3.66-7.63,7.42-15.21,11.1-22.83,3.74-7.77,7.49-15.54,11.14-23.35,.78-1.67,1.7-2.31,3.62-2.29,9.52,.12,19.04,.05,28.56,.04,.56,0,1.12,.02,1.68,.01,.78,0,1.18,.38,1.18,1.17,0,.56,.01,1.12,.01,1.68,0,57.75,0,115.51,.01,173.26,0,3.22,.16,2.93-3.04,2.93Z" fill="#f499ba"/><path d="M1.27,769.65c0,.79,.08,1.6-.33,2.34-.59-1.03-.42-2.17-.42-3.28-.01-39.11-.01-78.21-.01-117.32v-55.41c0-1.04-.13-2.09,.44-3.05,.4,.75,.32,1.56,.32,2.35-.02,58.12-.02,116.24,0,174.37Z" fill="#f499ba"/><path d="M1188.93,1025.33v23.28c0,.64,0,1.28-.03,1.92-.04,.76-.48,1.16-1.23,1.19-.64,.04-1.28,.04-1.92,.04h-123.58c-3.25,0-3.26,0-3.26-3.31v-86.39h.01v-86.39c0-3.31,0-3.32,3.25-3.32,40.96,.01,81.91,.01,122.87,.01,3.23,0,3.03-.18,3.03,2.95v24c0,.56-.01,1.12-.02,1.68-.02,.67-.37,1.03-1.04,1.05-.72,.02-1.44,.02-2.16,.02-30,0-59.99,.01-89.99,.01-.56,0-1.12-.01-1.68,0-2.08,.04-2.11,.04-2.11,2.16-.01,12.88-.01,25.76,0,38.64,0,2.39,.01,2.4,2.6,2.4h73.91c1.2,0,2.4,.04,3.6-.01,1.15-.05,1.57,.48,1.52,1.58-.05,1.2-.01,2.4-.01,3.6,0,7.04,.01,14.08,0,21.12,0,2.48-.01,2.5-2.5,2.5h-75.84c-3.65,.01-3.28-.37-3.28,3.4-.01,13.84-.01,27.67-.01,41.51,0,.64,.02,1.28,.01,1.92,0,.8,.4,1.17,1.18,1.17,.72,0,1.44,.01,2.16,.01,30.4,.01,60.79,.01,91.19,.02,3.32,0,3.33,0,3.33,3.24Z" fill="#f499ba"/><path d="M443.97,1025.06v23.99c0,.56,0,1.12-.02,1.68-.02,.69-.39,1.01-1.06,1.02-.64,.01-1.28,.02-1.92,.02h-122.86c-.48-.01-.96,0-1.44-.01-2.64-.02-2.67-.03-2.67-2.68-.01-37.6-.25-75.19,.1-112.78,.18-20.31,.03-40.62,.22-60.93,.03-3.15-.26-3.01,2.97-3.01,40.96,0,81.91,0,122.87-.01h.71c2.52,.03,2.6,.08,2.6,2.53,.02,6.72,.01,13.44,.01,20.16,0,1.84-.04,3.68,0,5.52,.03,1.14-.46,1.6-1.57,1.52-.64-.04-1.28,0-1.92,0-30.24,0-60.47-.01-90.71,0-3.53,0-3.17-.3-3.17,3.26-.01,12.24,0,24.48,0,36.71,0,.56,.04,1.13,0,1.68-.08,1.13,.41,1.63,1.54,1.55,.64-.04,1.28,0,1.92,0h75.83c2.65,.02,2.68,.03,2.68,2.68,.01,5.44,.13,10.88-.05,16.31-.09,2.79-.3,5.58-.28,8.37,.01,1.03-.45,1.46-1.45,1.41-.64-.02-1.28,0-1.92,0-25.04,.01-50.07,.01-75.11,.01-3.42,0-3.16-.31-3.16,3.04v41.99c0,.48,.03,.96-.01,1.44-.07,1.12,.41,1.63,1.54,1.56,.64-.05,1.28-.01,1.92-.01h91.43c3.21,0,2.98-.23,2.98,2.98Z" fill="#f499ba"/><path d="M739.21,744.74v24.72c0,.48-.01,.96-.02,1.43-.02,.68-.38,1.02-1.05,1.04-.56,.02-1.12,.02-1.68,.02-39.19,0-78.38,0-117.57-.01-.32,0-.64,.01-.96,0-1.78-.07-1.93-.21-2.01-1.9-.03-.64-.01-1.28-.01-1.92v-172.28c0-3.24-.14-2.96,3.01-2.96h116.62c3.38,0,3.13-.26,3.13,3.08v23.27c0,.4,.01,.8,0,1.2-.07,1.72-.11,1.77-1.73,1.84-.64,.03-1.28,.01-1.92,.01h-83.74c-3.22,0-3.22,0-3.22,3.11-.01,12.32-.01,24.64-.01,36.95,0,.56,0,1.12,.02,1.68,.03,.86,.47,1.33,1.34,1.35,.72,.01,1.44,.01,2.16,.01,22.8,.01,45.59,.01,68.39,.01,3.21,0,3.02-.2,2.97,2.99-.05,3.59,.57,7.16,.36,10.77-.13,2.14-.31,4.3-.31,6.45s.26,4.13,.29,6.21c.03,2.3-.09,2.38-2.47,2.38-17.44,.01-34.87,.01-52.31,.02-6,0-12-.01-18,0-2.32,.01-2.42,.1-2.43,2.45-.01,14.31,0,28.63,.01,42.95,0,2.59,.03,2.61,2.75,2.61,18.87,.01,37.75,.01,56.62,.01h29.04c.56,0,1.12,0,1.68,.02,.67,.02,1.02,.37,1.03,1.04,.01,.48,.02,.96,.02,1.44Z" fill="#f499ba"/><path d="M401.18,694.93c-.01,6.62-.94,13.16-2.53,19.64-2.62,10.71-7.3,20.42-13.82,29.23-5.95,8.04-13.31,14.6-21.89,19.78-7.81,4.71-16.14,8.1-25.14,9.6-7.72,1.28-15.48,1.74-23.33,.45-5.06-.83-10.01-1.93-14.84-3.61-7.61-2.65-14.54-6.59-20.89-11.5-6.75-5.22-12.49-11.42-17.17-18.55-6.43-9.79-10.82-20.42-12.53-32.08-.48-3.24-.88-6.48-.88-9.76,.01-34.23,.01-68.46,.01-102.7,0-.48,.01-.96,.02-1.44,.02-.67,.37-1.02,1.04-1.04,.48-.01,.96-.02,1.44-.02,9.04,0,18.08,.01,27.12,.01,.48,0,.96,.01,1.44,.02,.67,0,1.03,.35,1.05,1.02,.02,.72,.03,1.44,.03,2.16,0,34.08-.02,68.15,0,102.23,.01,12.9,4.84,23.79,14.12,32.67,4.54,4.35,9.93,7.35,15.88,9.51,4.35,1.59,8.83,2.38,13.34,2.43,10.28,.11,19.65-2.9,27.83-9.29,8.71-6.81,14.19-15.66,16.52-26.43,.52-2.39,.68-4.88,.68-7.37-.04-17.04-.02-34.08-.02-51.12h.02v-52.31c0-.48,0-.96,.01-1.44,.04-2.02,.04-2.07,1.96-2.07,9.43-.02,18.87-.02,28.31,0,2.05,0,2.18,.17,2.24,2.16,.02,.64,.01,1.28,.01,1.92,0,32.63,.05,65.27-.03,97.9Z" fill="#f499ba"/><path d="M945.48,695.53c-.08,14.2-3.67,27.6-10.85,39.97-3.91,6.75-8.61,12.87-14.29,18.21-7.41,6.97-15.93,12.21-25.41,15.92-4.04,1.58-8.19,2.85-12.42,3.51-6.69,1.05-13.41,1.68-20.25,.9-6.62-.75-13.07-2-19.29-4.39-7.58-2.91-14.6-6.78-20.9-11.97-9.85-8.12-17.45-17.95-22.7-29.58-2.99-6.64-4.97-13.58-6.05-20.83-.79-5.25-.85-10.49-.85-15.76v-94.78c0-.56,0-1.12,0-1.68,.04-2.08,.04-2.11,2.17-2.11,9.2-.02,18.4-.01,27.6-.01,2.36,.01,2.37,.02,2.37,2.39,.01,18.71,.01,37.43,.01,56.15,0,15.59,.03,31.19-.02,46.79-.02,7.68,1.81,14.87,5.47,21.57,3.14,5.75,7.34,10.6,12.67,14.48,6.13,4.46,12.93,7.28,20.41,8.28,7.81,1.05,15.37-.03,22.69-3.08,5.64-2.34,10.5-5.68,14.72-10.05,6.22-6.43,10.14-14.04,11.92-22.8,.49-2.38,.51-4.76,.51-7.15,.01-16.8,.01-33.59,.01-50.39h.01v-53.27c0-3.1-.2-2.91,2.81-2.91h26.64c.56,0,1.12,.01,1.67,.01,.87,.02,1.34,.46,1.38,1.32,.03,.56,.03,1.12,.03,1.68,0,33.19,.13,66.39-.06,99.58Z" fill="#f499ba"/><path d="M788.54,1027.18c-3.1,3.24-6.47,6.17-10.05,8.86-7.14,5.37-14.91,9.5-23.26,12.69-7.07,2.7-14.39,4.11-21.77,5.42-.78,.14-1.6,.08-2.4,.12-1.11-.93-2.22-.92-3.34-.03-.05-.13-.15-.24-.3-.32-3.9-.85-7.83-.44-11.76-.25-.4,.02-.73,.28-.99,.59-6.53-.06-12.81-1.61-19.01-3.44-10.37-3.05-19.85-7.92-28.5-14.38-7.92-5.92-14.74-12.89-20.45-21.01-5.1-7.25-9.16-14.98-11.94-23.37-1.98-5.98-3.46-12.09-4.13-18.39-.49-4.61-1.06-9.21-.82-13.84,.3-5.65,.79-11.28,1.98-16.85,1.18-5.47,2.71-10.84,4.84-15.99,1.95-4.72,4.33-9.26,7.01-13.62,4.71-7.69,10.49-14.49,17.2-20.48,8.78-7.84,18.7-13.79,29.79-17.83,7.1-2.59,14.39-4.35,21.85-5.02,4.89-.45,9.83-.7,14.82-.31,6.31,.49,12.54,1.26,18.64,2.85,12.43,3.24,23.82,8.66,33.93,16.65,2.94,2.33,5.81,4.74,8.39,7.49,1.68,1.78,1.67,1.86-.09,3.63-6.45,6.45-12.9,12.9-19.35,19.34-1.25,1.25-1.29,1.26-2.71,.16-1.95-1.53-3.81-3.15-5.79-4.64-8.07-6.11-17.1-10.14-26.88-12.72-5.99-1.58-12.04-1.84-18.07-1.25-7.26,.7-14.14,2.95-20.65,6.4-6.3,3.35-11.73,7.69-16.53,12.91-5.21,5.67-8.83,12.28-11.56,19.43-3.36,8.82-4.35,17.99-3.68,27.3,.54,7.69,2.45,15.08,5.81,22.09,2.83,5.89,6.4,11.27,10.9,15.93,7.34,7.62,16.14,12.92,26.39,15.85,4.96,1.42,10.02,2,15.1,2.17,3.14,.11,6.37-.2,9.5-.9,9.37-2.1,18.15-5.6,26.17-10.9,2.86-1.89,5.62-3.93,8.14-6.28,2.42-2.24,2.44-2.22,4.69,.02,6.04,6.06,12.09,12.12,18.14,18.17,.23,.23,.46,.45,.68,.68,1.47,1.52,1.48,1.59,.06,3.07Z" fill="#f499ba"/><path d="M731.06,1054.27c-1.12-.01-2.22-.01-3.34-.02h0c-4.35,0-8.69,.01-13.04,.01,.26-.31,.59-.57,.99-.59,3.93-.19,7.86-.6,11.76,.25,.15,.08,.25,.19,.3,.32,1.12-.89,2.23-.9,3.34,.03Z" fill="#f499ba"/><path d="M564.92,742.44c-3.32,8.61-8.72,15.76-16.15,21.28-5.7,4.24-12.02,7.18-18.9,9.01-8.21,2.19-16.58,2.63-24.95,1.98-8.43-.66-16.73-2.31-24.75-5.14-7.62-2.68-14.97-5.94-22.04-9.89-4.47-2.49-8.78-5.21-13.07-7.99-1.53-.99-1.51-1.03-.58-2.55,4.94-8.02,9.88-16.04,14.83-24.06,.83-1.34,1.07-1.36,2.42-.42,5.92,4.08,11.97,7.97,18.36,11.26,7.83,4.04,15.98,7.44,24.79,8.5,8,.97,15.84,.42,22.51-5,4.7-3.81,7.46-8.64,7.83-14.75,.41-6.82-2.31-12.19-7.41-16.59-4.92-4.26-10.73-6.89-16.59-9.42-7.55-3.26-15.37-5.86-22.85-9.26-9.29-4.23-18.04-9.31-25.03-16.92-6.2-6.75-10.12-14.62-11.24-23.82-.9-7.35-.89-14.67,1.11-21.85,2.74-9.81,8.09-17.94,15.98-24.46,7.82-6.45,16.94-9.78,26.69-11.69,1.87-.37,3.8-.42,5.71-.61,2.43,1.49,5.12,.54,7.68,.74,1.16,.09,2.42,.21,3.39-.75,3.75,.16,7.44,.77,11.13,1.43,5.35,.96,10.59,2.35,15.71,4.14,7.25,2.54,14.11,5.94,20.78,9.73,.91,.52,1.79,1.07,2.72,1.53,.95,.47,1.05,1.08,.53,1.93-1.03,1.71-2.02,3.44-3.07,5.14-3.99,6.45-7.99,12.89-12.01,19.33-1.03,1.64-1.07,1.62-2.77,.58-7.09-4.34-14.35-8.39-22.3-10.99-5.85-1.92-11.82-3.45-18.06-3.02-6.03,.42-11.7,2.07-16.11,6.42-5.36,5.3-7.25,14.07-2.74,21.58,2.93,4.87,7.01,8.47,11.79,11.31,6.74,4.01,13.93,7.08,21.27,9.83,5.83,2.18,11.74,4.2,17.33,6.94,5.4,2.65,10.37,5.93,14.88,9.97,4.59,4.1,8.35,8.8,11.08,14.27,2.72,5.46,4.36,11.26,5.1,17.36,1.04,8.59,.1,16.9-3,24.92Z" fill="#f499ba"/><path d="M512.66,590.04c-.97,.96-2.23,.84-3.39,.75-2.56-.2-5.25,.75-7.68-.74,3.69,0,7.38-.01,11.07-.01Z" fill="#f499ba"/><path d="M1646.38,667.39c.02,5.44,0,10.88,.01,16.32,0,2.8,.01,5.6-.01,8.4-.01,2.05-.03,2.08-2.18,2.08-6.07,.02-12.15,.02-18.23,.02h-35.27c-.56,0-1.12,.02-1.68,0-1.13-.04-1.59,.55-1.58,1.61,0,.64-.01,1.28-.01,1.92v71.26c0,3.19,.22,2.99-2.98,2.99-8.64,0-17.28,0-25.91,.01-.48,0-.97-.03-1.44,0-1.18,.08-1.58-.52-1.5-1.6,.03-.4,0-.8,0-1.2v-173.47c0-.4,.03-.8,0-1.2-.08-1.09,.34-1.68,1.5-1.6,.32,.03,.64,0,.96,0,32.07,0,64.14,0,96.21,.01,.4,0,.8,.02,1.2,.03-.64,.71-.7,1.59-.7,2.47-.04,8.11-.04,16.22,0,24.34,.01,.88,.12,1.75,.76,2.45-4.24,.01-8.48,.05-12.72,.05-17.19,0-34.38,0-51.58,0-.56,0-1.12-.01-1.68,0-1.91,.05-2.07,.19-2.12,2.04-.03,1.51,0,3.03,0,4.55v33.11c0,.64,.01,1.28,.01,1.92,.01,.97,.48,1.48,1.48,1.47,.64,0,1.28,.01,1.91,.01,17.36,0,34.71,.01,52.07,.01,.48,0,.96-.01,1.44,0,1.99,.04,2.03,.04,2.04,1.99Z" fill="#f499ba"/><path d="M1655.53,622.23c-.64-.7-.75-1.57-.76-2.45-.04-8.12-.04-16.23,0-24.34,0-.88,.06-1.76,.7-2.47,.02,9.75,.04,19.5,.06,29.26Z" fill="#f499ba"/><path d="M32.68,1047c-.75,3.74-3.45,3.68-6.46,3.62-7.19-.15-14.38-.04-21.58-.06-3.16-.01-3.38-.23-3.38-3.43-.01-56.75-.01-113.5,0-170.26,0-3.17,.16-3.31,3.45-3.31,8.07-.02,16.14,0,24.22-.02,1.25,0,2.58,.21,3.67-.71,.01,38.94,.02,77.89,.04,116.84,0,19.11,.02,38.22,.04,57.33Z" fill="#f499ba"/><path d="M32.68,1047c-.02,.8-.04,1.6-.06,2.4q-.04,1.89-1.83,1.96c-.48,.02-.96,0-1.44,0-8.64,.01-17.27,.01-25.9,.02-.48,0-.97-.03-1.44,0-1.17,.07-1.57-.54-1.5-1.61,.03-.4,0-.8,0-1.2v-172.92c0-3.03-.18-2.91,2.84-2.9,9.75,.03,19.5,.05,29.25,.08-1.09,.92-2.42,.71-3.67,.71-8.08,.02-16.15,0-24.22,.02-3.29,0-3.45,.14-3.45,3.31-.01,56.76-.01,113.51,0,170.26,0,3.2,.22,3.42,3.38,3.43,7.2,.02,14.39-.09,21.58,.06,3.01,.06,5.71,.12,6.46-3.62Z" fill="#f499ba"/><path d="M1518.35,680.05c-.22-4.94-.21-9.86-.96-14.79-1.04-6.81-2.43-13.53-4.77-19.98-3.23-8.88-7.48-17.25-13.38-24.75-5.89-7.49-12.71-13.93-20.84-18.88-11.66-7.1-24.4-10.9-38.05-11.62-.62-.04-1.3,.11-1.79-.45h-7.68c-.57,.62-1.34,.47-2.03,.45-2.25-.08-4.49,.25-6.67,.61-8.77,1.43-17.25,3.81-25.24,7.87-10.07,5.12-18.62,12.04-25.67,20.8-7.66,9.53-12.85,20.36-16.19,32.08-2.1,7.37-3.51,14.92-3.78,22.59-.29,8.37-.37,16.76,.8,25.11,1.39,9.87,3.99,19.39,8.14,28.43,6.54,14.25,16.13,25.99,29.36,34.59,5.18,3.36,10.69,6.07,16.52,8.11,4.92,1.72,9.93,2.94,15.08,3.72,2.52,.39,5.05,.79,7.59,.85,7.43,.19,14.82,.1,22.19-1.27,7.77-1.44,15.19-3.81,22.17-7.4,9.33-4.8,17.36-11.29,24.12-19.37,7.07-8.45,12.07-17.99,15.7-28.32,2.01-5.74,3.33-11.65,4.23-17.65,.4-2.68,.91-5.37,.96-8.07,.09-4.21,.38-8.43,.19-12.66Zm-37.31,30.42c-3.98,10.65-10.14,19.72-19.98,25.82-6.39,3.96-13.31,6.36-20.9,7.03-6.53,.58-12.89,.19-19.18-1.57-8.99-2.51-16.58-7.15-22.64-14.38-6.65-7.92-10.57-17-12.65-27.03-1.52-7.31-2.15-14.7-1.75-22.12,.6-11.16,2.78-21.96,8.24-31.92,5.97-10.91,14.67-18.67,26.49-22.58,7.02-2.32,14.3-2.98,21.74-2.11,5.44,.64,10.68,1.84,15.65,4.12,7.29,3.33,13.15,8.41,17.8,14.88,5.51,7.66,8.67,16.28,10.34,25.51,.5,2.75,.77,5.52,1.11,8.29,.32,2.72,.14,5.42,.32,7.53,.08,10.18-1.22,19.54-4.59,28.53Z" fill="#f499ba"/><path d="M998.89,1050.01c-3.4-8.43-6.82-16.86-10.19-25.31-4-10.01-7.96-20.03-11.94-30.05-1.26-3.19-2.57-6.36-3.8-9.57-.93-2.41-.9-2.16,.81-3.31,.98-.67,1.9-1.45,2.79-2.25,8.86-7.92,14.97-17.63,18.37-28.96,2.45-8.16,3.45-16.51,2.33-25.07-.69-5.26-1.78-10.4-3.81-15.26-3.93-9.43-9.69-17.55-17.67-24.09-11-9.01-23.68-13.55-37.72-13.68-28.79-.25-57.59-.07-86.38-.07-2.38,0-2.38,.02-2.4,2.38-.01,.56,0,1.12,0,1.68v85.66c-.01,29.03-.01,58.07,0,87.1,0,2.54,0,2.56,2.45,2.56,9.04,.01,18.08,.02,27.11,.01,2.12,0,2.12-.03,2.16-2.12,.01-.48,0-.96,0-1.44,0-17.27,0-34.55,.01-51.82,0-.64,.04-1.29-.01-1.92-.09-1.22,.39-1.73,1.65-1.7,2.64,.06,5.28,0,7.92,0h48.71c2.27,0,2.41,.08,3.08,1.87,1.53,4.11,3.05,8.23,4.55,12.35,2.95,8.1,5.87,16.21,8.82,24.3,2.18,6,4.4,11.99,6.58,17.99,.87,2.39,.9,2.47,3.39,2.47,7.36,.01,14.72,.01,22.07,.02,3.28,0,6.56,.02,9.84-.02,1.8-.02,1.9-.22,1.28-1.76Zm-40.24-96.69c-5.68,7.17-13.28,10.65-22.23,11.7-5.2,.6-10.38,.33-15.57,.36-12.24,.06-24.48,.02-36.71,.01-.56,0-1.13-.02-1.68,0-1,.06-1.51-.35-1.45-1.39,.03-.56,0-1.12,0-1.68v-57.11c0-.56,.03-1.13,0-1.68-.08-1.17,.51-1.59,1.6-1.5,.16,.02,.32,0,.48,0,17.12,0,34.23-.01,51.35,.04,4.87,.01,9.51,1.23,13.82,3.44,8.69,4.46,14.32,11.62,16.51,20.98,2.29,9.75,.17,18.87-6.12,26.83Z" fill="#f499ba"/><path d="M1395.36,993.71c0-9.3-.01-18.59-.01-27.89,0-8.14,.01-16.28,.04-24.41,.02-4.18-.47-8.31-1.16-12.37-1.05-6.13-2.93-12.08-5.53-17.78-5.03-10.99-12.58-19.97-22.05-27.33-7.92-6.15-16.92-10.19-26.67-12.55-6.42-1.55-12.95-1.63-19.51-1.57-3.94,.04-7.8,.57-11.62,1.35-9.53,1.95-18.25,5.86-26.11,11.5-8.92,6.41-16.18,14.43-21.5,24.12-6,10.94-8.82,22.7-8.85,35.13-.06,20.87-.02,41.75-.03,62.62,0,14.79,0,29.59,.01,44.39,0,2.83,.01,2.84,2.75,2.84,4.64,.01,9.28,0,13.92,0s9.11,.02,13.67-.01c1.69-.01,1.71-.07,1.77-1.78,.02-.56,0-1.12,0-1.68v-42.94c0-3.2-.25-2.99,2.97-2.99h71.5q4.26,0,4.26,4.35c0,14.15,0,28.31,.01,42.46,0,2.41,.1,2.58,2.05,2.58,9.35,.02,18.71,.02,28.07,0,1.85-.01,1.97-.2,2.02-2.14,.02-.56,0-1.12,0-1.68v-54.22Zm-32.17-21.23c0,.81-.45,1.14-1.21,1.14-.64,0-1.28,.01-1.92,.01h-72.47c-.64,0-1.28-.01-1.92-.01-.8-.01-1.14-.44-1.13-1.21,0-.64-.02-1.28-.02-1.92,0-9.36,.06-18.72-.02-28.08-.05-6.66,1.1-13.06,4.04-19.02,3.39-6.86,8.25-12.5,14.81-16.58,4.32-2.7,9.02-4.54,14.02-5.32,5.54-.86,11.09-.72,16.6,.8,7.47,2.06,13.7,5.99,18.89,11.68,5.37,5.89,8.61,12.78,9.9,20.63,.39,2.39,.42,4.77,.42,7.16,.02,9.76,.02,19.52,.02,29.28,0,.48-.01,.96-.01,1.44Z" fill="#f499ba"/></svg>