<?xml version="1.0" encoding="UTF-8"?><svg id="Layer_6" xmlns="http://www.w3.org/2000/svg" xmlns:xlink="http://www.w3.org/1999/xlink" viewBox="0 0 2020.08 1953.64"><defs><clipPath id="clippath"><rect x="438.24" y="883.17" width="1445.52" height="1070.48" rx="48.26" ry="48.26" fill="none"/></clipPath></defs><g clip-path="url(#clippath)"><g><rect x="429.37" y="874.64" width="1463.25" height="1087.53" rx="20.37" ry="20.37" fill="#f7dadf"/><g><path d="M426.73,874.64h122.38v725.15c0,34.56-27.39,62.58-61.19,62.58h0c-33.79,0-61.19-28.02-61.19-62.58V874.64Z" fill="#015859"/><path d="M671.48,874.64h122.38v725.15c0,34.56-27.39,62.58-61.19,62.58h0c-33.79,0-61.19-28.02-61.19-62.58V874.64Z" fill="#fe6902"/><path d="M916.24,874.64h122.38v725.15c0,34.56-27.39,62.58-61.19,62.58h0c-33.79,0-61.19-28.02-61.19-62.58V874.64Z" fill="#f89aba"/><path d="M549.1,874.64h122.38v725.15c0,34.56-27.39,62.58-61.19,62.58h0c-33.79,0-61.19-28.02-61.19-62.58V874.64Z" fill="#fdc236"/><path d="M793.86,874.64h122.38v725.15c0,34.56-27.39,62.58-61.19,62.58h0c-33.79,0-61.19-28.02-61.19-62.58V874.64Z" fill="#eb002a"/><path d="M1038.62,874.64h122.38v725.15c0,34.56-27.39,62.58-61.19,62.58h0c-33.79,0-61.19-28.02-61.19-62.58V874.64Z" fill="#afe3e3"/><path d="M1161,874.64h122.38v725.15c0,34.56-27.39,62.58-61.19,62.58h0c-33.79,0-61.19-28.02-61.19-62.58V874.64Z" fill="#015859"/><path d="M1405.76,874.64h122.38v725.15c0,34.56-27.39,62.58-61.19,62.58h0c-33.79,0-61.19-28.02-61.19-62.58V874.64Z" fill="#fe6902"/><path d="M1650.51,874.64h122.38v725.15c0,34.56-27.39,62.58-61.19,62.58h0c-33.79,0-61.19-28.02-61.19-62.58V874.64Z" fill="#f89aba"/><path d="M1283.38,874.64h122.38v725.15c0,34.56-27.39,62.58-61.19,62.58h0c-33.79,0-61.19-28.02-61.19-62.58V874.64Z" fill="#fdda63"/><path d="M1528.13,874.64h122.38v725.15c0,34.56-27.39,62.58-61.19,62.58h0c-33.79,0-61.19-28.02-61.19-62.58V874.64Z" fill="#eb002a"/><path d="M1772.89,874.64h122.38v725.15c0,34.56-27.39,62.58-61.19,62.58h0c-33.79,0-61.19-28.02-61.19-62.58V874.64Z" fill="#afe3e3"/></g></g></g><g><path d="M1346.84,1863.36v40.29c-1.81,0-3.63,0-5.44-.01-.2,0-.4,0-.59,0-.51,0-.53-.03-.53-.56,0-1.63,0-3.27,0-4.9,0-7.11,0-14.22,0-21.33v-.68c-.18,.06-.2,.21-.26,.33-.72,1.57-1.43,3.13-2.14,4.7-1.12,2.44-2.23,4.89-3.35,7.33-1.16,2.54-2.33,5.08-3.49,7.62-.75,1.63-1.51,3.25-2.26,4.88-.35,.75-.69,1.49-1.02,2.25-.12,.27-.28,.37-.57,.37-1.26-.01-2.51-.01-3.77,0-.32,0-.49-.13-.62-.4-1.21-2.66-2.44-5.31-3.66-7.97-.8-1.74-1.6-3.48-2.4-5.23-.99-2.17-1.97-4.34-2.96-6.5-.76-1.66-1.53-3.32-2.29-4.98-.25-.55-.49-1.11-.75-1.67-.09-.19-.15-.4-.4-.62v26.56c0,.79,.07,.8-.79,.8-1.74,0-3.48,0-5.23,0-.14,0-.29,0-.43,0-.15,0-.22-.09-.23-.24,0-.13,0-.25,0-.38v-38.99c0-.13,0-.25,0-.38,0-.17,.11-.26,.27-.27,.11,0,.22,0,.32,0,2.17,0,4.35,0,6.52,0,.35,0,.56,.09,.71,.42,.33,.72,.69,1.42,1.03,2.13,.5,1.03,.99,2.06,1.49,3.1,.64,1.34,1.28,2.69,1.92,4.03,1.06,2.21,2.11,4.43,3.17,6.64,.87,1.81,1.76,3.61,2.63,5.41,.96,1.99,1.91,3.97,2.88,5.96,.22,.44,.35,.93,.68,1.37,.33-.51,.55-1.04,.8-1.55,.49-1.02,.97-2.04,1.45-3.06,.77-1.62,1.54-3.24,2.32-4.85,.69-1.42,1.4-2.83,2.08-4.24,.96-2,1.91-4.02,2.87-6.02,.95-1.99,1.91-3.97,2.87-5.96,.48-1,.97-2,1.42-3.02,.14-.31,.36-.35,.65-.34,2.06,0,4.13,0,6.19,0,.31,0,.61,0,.92-.01Z" fill="#f89aba"/><path d="M1032.14,1897.55c.19,.18,.18,.29,0,.48-1.19,1.24-2.5,2.31-3.97,3.2-1.28,.77-2.61,1.43-4.03,1.9-1.77,.58-3.57,1.05-5.46,1.08-.23,0-.47-.02-.7,0-.24,.02-.5-.1-.72,.1h-.22c-.09-.12-.22-.11-.34-.11-.39,0-.79,0-1.18,0-1.54,0-3.02-.38-4.48-.81-2.29-.68-4.38-1.78-6.29-3.2-1.69-1.26-3.16-2.76-4.39-4.47-1.26-1.74-2.22-3.63-2.89-5.67-.45-1.38-.76-2.79-.92-4.24-.15-1.34-.15-2.69-.07-4.03,.11-1.88,.56-3.71,1.21-5.49,.72-1.95,1.71-3.74,2.97-5.4,1.55-2.03,3.42-3.71,5.58-5.07,1.39-.87,2.87-1.56,4.42-2.08,1.22-.41,2.48-.68,3.76-.84,1.54-.19,3.08-.12,4.62-.08,.94,.03,1.88,.22,2.81,.42,2.26,.51,4.37,1.37,6.34,2.58,1.52,.93,2.91,2.02,4.08,3.37-.03,.15-.14,.22-.22,.31-1.49,1.49-2.97,2.97-4.46,4.45-.31,.31-.32,.31-.63,.03-1.74-1.54-3.71-2.69-5.9-3.45-1.79-.63-3.62-.9-5.5-.7-1.32,.14-2.6,.52-3.82,1.06-1.68,.74-3.15,1.79-4.37,3.16-1.82,2.06-3.01,4.43-3.39,7.18-.12,.85-.22,1.7-.2,2.57,.06,1.86,.41,3.65,1.16,5.37,1.2,2.76,3.08,4.88,5.69,6.38,1.26,.72,2.61,1.21,4.02,1.47,1.96,.37,3.91,.24,5.83-.37,1.98-.64,3.82-1.54,5.47-2.81,.34-.26,.67-.55,.99-.83,.34-.3,.34-.31,.67,.02,1.1,1.09,2.18,2.18,3.28,3.27,.41,.41,.8,.82,1.22,1.21Z" fill="#f89aba"/><path d="M1017.07,1904.3c-.5-.15-1.02,.03-1.52-.1,.39,0,.79,0,1.18,0,.12,0,.25-.01,.34,.11Z" fill="#f89aba"/><path d="M1018.7,1904.2c-.46,.13-.95-.05-1.41,.1,.22-.2,.48-.09,.72-.1,.23-.02,.46,0,.7,0Z" fill="#f89aba"/><path d="M982.58,1903.46c0,.13-.1,.18-.22,.19-.11,0-.22,0-.32,0-2.29,0-4.59,0-6.88,0v-40.29c2.28,0,4.55,0,6.83,0,.17,0,.37-.07,.49,.12-.24,.21-.54,.16-.82,.16-1.81,0-3.62,0-5.44,0-.74,0-.77,.03-.77,.74,0,12.74,0,25.48,0,38.21,0,.72,.05,.77,.76,.77,1.62,0,3.23-.02,4.84,.01,.68,.01,1.28,.03,1.45-.81,.19,.28,.07,.59,.09,.89Z" fill="#f89aba"/><path d="M975.44,1840.32c0,.18,.02,.36-.07,.53-.07,0-.14,0-.21,0v-40.18c.07,0,.14,0,.21,0,.09,.17,.07,.35,.07,.53,0,13.04,0,26.09,0,39.14Z" fill="#f89aba"/><path d="M1346.84,1800.66v6.57h-.11c-.14-.15-.17-.35-.17-.55,0-1.82,0-3.64,0-5.46,0-.2,.01-.4,.16-.55h.12Z" fill="#f89aba"/><path d="M1138.48,1904.3h-2.91s0-.07-.01-.1c.06-.07,.13-.13,.22-.13,.88-.04,1.76-.13,2.64,.06,.03,.02,.06,.04,.07,.07h0s0,.07,0,.1Z" fill="#f89aba"/><path d="M1090.22,1800.01c-.22,.22-.5,.19-.76,.17-.57-.04-1.18,.17-1.72-.17,0-.04,0-.07,0-.11h2.48s0,.07,0,.1Z" fill="#f89aba"/><path d="M1017.07,1904.3h-1.51s0-.07-.01-.1c.39,0,.79,0,1.18,0,.12,0,.25-.01,.34,.11Z" fill="#f89aba"/><path d="M1018.7,1904.2s-.01,.07-.01,.1h-1.4c.22-.2,.48-.09,.72-.1,.23-.02,.46,0,.7,0Z" fill="#f89aba"/><path d="M1139.24,1904.2s0,.07,0,.1h-.75v-.1h0c.25-.2,.5-.2,.75,0Z" fill="#f89aba"/><path d="M1242.88,1801.02c-.01,.13,0,.25,0,.38v38.73c0,.8,.07,.72-.72,.72-1.74,0-3.48,0-5.23,0-.12,0-.25,0-.37,0-.18,0-.27-.08-.27-.26,0-.16,0-.32,0-.48,0-7.18,.02-14.36-.02-21.54,0-1.65-.04-3.3-.17-4.98-.24,.51-.48,1.02-.71,1.54-.68,1.48-1.34,2.97-2.02,4.45-.91,2.01-1.83,4.01-2.75,6.01-.74,1.61-1.49,3.22-2.24,4.83-1.08,2.35-2.13,4.7-3.23,7.04-.47,1.01-.94,2.01-1.38,3.03-.13,.29-.31,.39-.62,.38-1.24-.02-2.48-.02-3.72,0-.35,0-.51-.13-.65-.42-.52-1.16-1.07-2.31-1.6-3.47-.56-1.22-1.12-2.45-1.68-3.67-1.13-2.48-2.26-4.96-3.4-7.43-.77-1.66-1.54-3.31-2.31-4.97-.8-1.74-1.59-3.49-2.38-5.23-.32-.7-.64-1.39-1.06-2.08,0,.13-.02,.26-.02,.39,0,.22,0,.43,0,.65,0,4.9-.18,9.8-.07,14.7,.08,3.61,.02,7.21,.06,10.82,0,.72,0,.72-.7,.72h-5.33c-.68,0-.63,.04-.63-.65v-36.68c0-.81,0-1.62,0-2.42,0-.42,.01-.43,.42-.43,2.28,0,4.56,0,6.84,0,.34,0,.47,.17,.59,.43,.71,1.51,1.43,3.01,2.15,4.51,1.11,2.31,2.23,4.61,3.34,6.92,.84,1.74,1.67,3.49,2.51,5.24,1.34,2.8,2.69,5.59,4.03,8.39,.51,1.07,1.01,2.14,1.52,3.21,.04,.1,.08,.2,.22,.26,.32-.4,.48-.9,.71-1.36,.79-1.61,1.55-3.23,2.33-4.85,1.04-2.16,2.09-4.33,3.13-6.49,.74-1.54,1.47-3.07,2.2-4.61,1.29-2.7,2.57-5.4,3.86-8.1,.52-1.08,1.06-2.15,1.57-3.24,.1-.21,.23-.29,.45-.29,2.31,0,4.63,0,6.95,0,.27,0,.41,.08,.38,.37Z" fill="#f89aba"/><path d="M1017.79,1840.84c-1.76,0-3.52,0-5.28,0-.13,0-.25,0-.38,0-.15,0-.23-.08-.24-.23,0-.16,0-.32,0-.48,0-8.69,0-17.38,0-26.07v-.65c-.24,.15-.28,.35-.36,.51-.7,1.53-1.4,3.06-2.09,4.6-.55,1.22-1.08,2.46-1.66,3.67-.8,1.66-1.54,3.35-2.32,5.03-.9,1.93-1.77,3.88-2.66,5.82-.52,1.14-1.05,2.27-1.58,3.41-.61,1.32-1.23,2.63-1.81,3.96-.15,.33-.33,.45-.69,.44-1.24-.02-2.48-.02-3.72,0-.33,0-.47-.14-.6-.41-.68-1.49-1.36-2.96-2.05-4.44-.58-1.25-1.15-2.5-1.73-3.76-.9-1.97-1.8-3.95-2.7-5.92-.74-1.61-1.49-3.22-2.24-4.83-.79-1.71-1.56-3.42-2.34-5.14-.42-.93-.84-1.86-1.26-2.79-.03-.06-.06-.13-.19-.13-.09,.19-.04,.4-.04,.61v26.12c0,.13,0,.25,0,.38,0,.2-.07,.31-.28,.3-.11,0-.22,0-.32,0h-5.87c.09-.17,.07-.35,.07-.53,0-13.05,0-26.09,0-39.14,0-.18,.02-.36-.07-.53,2.33,0,4.67,0,7,0,.39,0,.61,.1,.78,.47,1.42,3.02,2.87,6.02,4.31,9.03,.84,1.76,1.71,3.51,2.55,5.27,.89,1.86,1.76,3.73,2.66,5.58,.84,1.76,1.71,3.51,2.56,5.27,.47,.97,.93,1.93,1.4,2.9,.06,.13,.13,.25,.21,.41,.23-.14,.28-.38,.38-.57,.95-1.97,1.9-3.94,2.85-5.91,.99-2.05,1.98-4.1,2.96-6.15,.87-1.81,1.71-3.63,2.58-5.44,.82-1.71,1.67-3.41,2.49-5.12,.84-1.74,1.68-3.49,2.5-5.24,.18-.37,.38-.52,.81-.51,2.14,.03,4.27,.01,6.41,0,.13,0,.25,0,.38,0,.18,0,.26,.09,.26,.26,0,.13,0,.25,0,.38,0,12.96,0,25.93,0,38.89,0,.72,.04,.66-.68,.66Z" fill="#f89aba"/><path d="M975.44,1840.32c0,.18,.02,.36-.07,.53-.13-.23-.09-.49-.09-.74,0-8.78,0-17.55,0-26.33v-12.44c0-.23-.03-.47,.1-.68,.09,.17,.07,.35,.07,.53,0,13.04,0,26.09,0,39.14Z" fill="#f89aba"/><path d="M1242.01,1897.71v5.23c0,.14,0,.29,0,.43,0,.17-.11,.26-.28,.27-.14,0-.29,0-.43,0h-27.74c-.73,0-.73,0-.73-.74v-19.39h0v-19.39c0-.74,0-.75,.73-.75,9.19,0,18.38,0,27.58,0,.72,0,.68-.04,.68,.66v5.39c0,.13,0,.25,0,.38,0,.15-.08,.23-.23,.24-.16,0-.32,0-.48,0-6.73,0-13.46,0-20.2,0-.13,0-.25,0-.38,0-.47,0-.47,0-.47,.48,0,2.89,0,5.78,0,8.67,0,.54,0,.54,.58,.54h16.59c.27,0,.54,0,.81,0,.26-.01,.35,.11,.34,.35-.01,.27,0,.54,0,.81,0,1.58,0,3.16,0,4.74,0,.56,0,.56-.56,.56h-17.02c-.82,0-.74-.08-.74,.76,0,3.11,0,6.21,0,9.32,0,.14,0,.29,0,.43,0,.18,.09,.26,.26,.26,.16,0,.32,0,.48,0,6.82,0,13.64,0,20.47,0,.75,0,.75,0,.75,.73Z" fill="#f89aba"/><path d="M1074.8,1897.65v5.38c0,.13,0,.25,0,.38,0,.15-.09,.23-.24,.23-.14,0-.29,0-.43,0h-27.58c-.11,0-.22,0-.32,0-.59,0-.6,0-.6-.6,0-8.44-.06-16.88,.02-25.31,.04-4.56,0-9.12,.05-13.68,0-.71-.06-.68,.67-.68,9.19,0,18.38,0,27.58,0h.16c.57,0,.58,.02,.58,.57,0,1.51,0,3.02,0,4.52,0,.41,0,.83,0,1.24,0,.26-.1,.36-.35,.34-.14,0-.29,0-.43,0-6.79,0-13.57,0-20.36,0-.79,0-.71-.07-.71,.73,0,2.75,0,5.49,0,8.24,0,.13,0,.25,0,.38-.02,.25,.09,.37,.35,.35,.14,0,.29,0,.43,0h17.02c.59,0,.6,0,.6,.6,0,1.22,.03,2.44-.01,3.66-.02,.63-.07,1.25-.06,1.88,0,.23-.1,.33-.33,.32-.14,0-.29,0-.43,0-5.62,0-11.24,0-16.86,0-.77,0-.71-.07-.71,.68v9.42c0,.11,0,.22,0,.32-.02,.25,.09,.37,.35,.35,.14-.01,.29,0,.43,0h20.52c.72,0,.67-.05,.67,.67Z" fill="#f89aba"/><path d="M1141.07,1834.73v5.55c0,.11,0,.22,0,.32,0,.15-.09,.23-.24,.23-.13,0-.25,0-.38,0-8.8,0-17.59,0-26.39,0-.07,0-.14,0-.22,0-.4-.02-.43-.05-.45-.43,0-.14,0-.29,0-.43v-38.67c0-.73-.03-.66,.68-.66h26.17c.76,0,.7-.06,.7,.69v5.22c0,.09,0,.18,0,.27-.02,.39-.02,.4-.39,.41-.14,0-.29,0-.43,0h-18.8c-.72,0-.72,0-.72,.7,0,2.77,0,5.53,0,8.29,0,.13,0,.25,0,.38,0,.19,.11,.3,.3,.3,.16,0,.32,0,.48,0,5.12,0,10.23,0,15.35,0,.72,0,.68-.04,.67,.67-.01,.81,.13,1.61,.08,2.42-.03,.48-.07,.97-.07,1.45s.06,.93,.07,1.39c0,.52-.02,.53-.55,.53-3.91,0-7.83,0-11.74,0-1.35,0-2.69,0-4.04,0-.52,0-.54,.02-.55,.55,0,3.21,0,6.43,0,9.64,0,.58,0,.59,.62,.59,4.24,0,8.47,0,12.71,0h6.52c.13,0,.25,0,.38,0,.15,0,.23,.08,.23,.23,0,.11,0,.22,0,.32Z" fill="#f89aba"/><path d="M1065.2,1823.55c0,1.49-.21,2.95-.57,4.41-.59,2.4-1.64,4.58-3.1,6.56-1.34,1.8-2.99,3.28-4.91,4.44-1.75,1.06-3.62,1.82-5.64,2.15-1.73,.29-3.47,.39-5.24,.1-1.14-.19-2.25-.43-3.33-.81-1.71-.59-3.26-1.48-4.69-2.58-1.52-1.17-2.8-2.56-3.85-4.16-1.44-2.2-2.43-4.58-2.81-7.2-.11-.73-.2-1.45-.2-2.19,0-7.68,0-15.37,0-23.05,0-.11,0-.22,0-.32,0-.15,.08-.23,.23-.23,.11,0,.22,0,.32,0,2.03,0,4.06,0,6.09,0,.11,0,.22,0,.32,0,.15,0,.23,.08,.24,.23,0,.16,0,.32,0,.48,0,7.65,0,15.3,0,22.95,0,2.9,1.09,5.34,3.17,7.33,1.02,.98,2.23,1.65,3.56,2.13,.98,.36,1.98,.53,2.99,.55,2.31,.02,4.41-.65,6.25-2.09,1.95-1.53,3.18-3.51,3.71-5.93,.12-.54,.15-1.1,.15-1.65,0-3.82,0-7.65,0-11.47h0v-11.74c0-.11,0-.22,0-.32,0-.45,0-.46,.44-.46,2.12,0,4.24,0,6.35,0,.46,0,.49,.04,.5,.48,0,.14,0,.29,0,.43,0,7.32,.01,14.65,0,21.97Z" fill="#f89aba"/><path d="M1187.37,1823.68c-.02,3.19-.82,6.19-2.44,8.97-.88,1.52-1.93,2.89-3.21,4.09-1.66,1.56-3.58,2.74-5.7,3.57-.91,.35-1.84,.64-2.79,.79-1.5,.24-3.01,.38-4.55,.2-1.49-.17-2.93-.45-4.33-.99-1.7-.65-3.28-1.52-4.69-2.69-2.21-1.82-3.92-4.03-5.09-6.64-.67-1.49-1.12-3.05-1.36-4.68-.18-1.18-.19-2.35-.19-3.54v-21.27c0-.13,0-.25,0-.38,0-.47,0-.47,.49-.47,2.06,0,4.13,0,6.19,0,.53,0,.53,0,.53,.54,0,4.2,0,8.4,0,12.6,0,3.5,0,7,0,10.5,0,1.72,.41,3.34,1.23,4.84,.7,1.29,1.65,2.38,2.84,3.25,1.38,1,2.9,1.63,4.58,1.86,1.75,.24,3.45,0,5.09-.69,1.27-.53,2.36-1.27,3.3-2.26,1.4-1.44,2.28-3.15,2.68-5.12,.11-.53,.11-1.07,.11-1.6,0-3.77,0-7.54,0-11.31h0v-11.96c0-.7-.04-.65,.63-.65h5.98c.13,0,.25,0,.37,0,.2,0,.3,.1,.31,.3,0,.13,0,.25,0,.38,0,7.45,.03,14.9-.01,22.35Z" fill="#f89aba"/><path d="M1152.14,1898.12c-.7,.73-1.45,1.38-2.26,1.99-1.6,1.21-3.35,2.13-5.22,2.85-1.59,.61-3.23,.92-4.89,1.22-.18,.03-.36,.02-.54,.03-.25-.21-.5-.21-.75,0-.01-.03-.03-.05-.07-.07-.88-.19-1.76-.1-2.64-.06-.09,0-.16,.06-.22,.13-1.47-.01-2.88-.36-4.27-.77-2.33-.68-4.46-1.78-6.4-3.23-1.78-1.33-3.31-2.89-4.59-4.72-1.14-1.63-2.06-3.36-2.68-5.25-.44-1.34-.78-2.71-.93-4.13-.11-1.03-.24-2.07-.18-3.11,.07-1.27,.18-2.53,.44-3.78,.26-1.23,.61-2.43,1.09-3.59,.44-1.06,.97-2.08,1.57-3.06,1.06-1.73,2.35-3.25,3.86-4.6,1.97-1.76,4.2-3.1,6.69-4,1.59-.58,3.23-.98,4.9-1.13,1.1-.1,2.21-.16,3.33-.07,1.42,.11,2.81,.28,4.18,.64,2.79,.73,5.35,1.94,7.62,3.74,.66,.52,1.3,1.06,1.88,1.68,.38,.4,.37,.42-.02,.81-1.45,1.45-2.9,2.9-4.34,4.34-.28,.28-.29,.28-.61,.04-.44-.34-.86-.71-1.3-1.04-1.81-1.37-3.84-2.28-6.03-2.85-1.34-.35-2.7-.41-4.06-.28-1.63,.16-3.17,.66-4.63,1.44-1.41,.75-2.63,1.73-3.71,2.9-1.17,1.27-1.98,2.76-2.59,4.36-.75,1.98-.98,4.04-.83,6.13,.12,1.73,.55,3.38,1.3,4.96,.64,1.32,1.44,2.53,2.45,3.58,1.65,1.71,3.62,2.9,5.92,3.56,1.11,.32,2.25,.45,3.39,.49,.7,.02,1.43-.04,2.13-.2,2.1-.47,4.07-1.26,5.87-2.45,.64-.42,1.26-.88,1.83-1.41,.54-.5,.55-.5,1.05,0,1.36,1.36,2.71,2.72,4.07,4.08,.05,.05,.1,.1,.15,.15,.33,.34,.33,.36,.01,.69Z" fill="#f89aba"/><path d="M1139.24,1904.2c-.25,0-.5,0-.75,0h0c-.98,0-1.95,0-2.93,0,.06-.07,.13-.13,.22-.13,.88-.04,1.76-.13,2.64,.06,.03,.02,.06,.04,.07,.07,.25-.2,.5-.2,.75,0Z" fill="#f89aba"/><path d="M1101.95,1834.21c-.75,1.93-1.96,3.54-3.62,4.78-1.28,.95-2.7,1.61-4.24,2.02-1.84,.49-3.72,.59-5.6,.44-1.89-.15-3.75-.52-5.56-1.15-1.71-.6-3.36-1.33-4.95-2.22-1-.56-1.97-1.17-2.93-1.79-.34-.22-.34-.23-.13-.57,1.11-1.8,2.22-3.6,3.33-5.4,.19-.3,.24-.31,.54-.09,1.33,.92,2.69,1.79,4.12,2.53,1.76,.91,3.59,1.67,5.56,1.91,1.8,.22,3.56,.09,5.05-1.12,1.05-.86,1.67-1.94,1.76-3.31,.09-1.53-.52-2.74-1.66-3.72-1.1-.96-2.41-1.55-3.72-2.11-1.69-.73-3.45-1.32-5.13-2.08-2.09-.95-4.05-2.09-5.62-3.8-1.39-1.52-2.27-3.28-2.52-5.35-.2-1.65-.2-3.29,.25-4.9,.61-2.2,1.82-4.03,3.59-5.49,1.76-1.45,3.8-2.2,5.99-2.62,.42-.08,.85-.09,1.28-.14,.55,.33,1.15,.12,1.72,.17,.26,.02,.54,.05,.76-.17,.84,.04,1.67,.17,2.5,.32,1.2,.22,2.38,.53,3.53,.93,1.63,.57,3.17,1.33,4.66,2.18,.2,.12,.4,.24,.61,.34,.21,.11,.24,.24,.12,.43-.23,.38-.45,.77-.69,1.15-.9,1.45-1.79,2.89-2.7,4.34-.23,.37-.24,.36-.62,.13-1.59-.97-3.22-1.88-5.01-2.47-1.31-.43-2.65-.77-4.05-.68-1.35,.09-2.63,.46-3.62,1.44-1.2,1.19-1.63,3.16-.61,4.84,.66,1.09,1.57,1.9,2.65,2.54,1.51,.9,3.13,1.59,4.77,2.21,1.31,.49,2.63,.94,3.89,1.56,1.21,.59,2.33,1.33,3.34,2.24,1.03,.92,1.87,1.98,2.49,3.2,.61,1.23,.98,2.53,1.14,3.9,.23,1.93,.02,3.79-.67,5.59Z" fill="#f89aba"/><path d="M1090.22,1800.01c-.22,.22-.5,.19-.76,.17-.57-.04-1.18,.17-1.72-.17,.83,0,1.66,0,2.48,0Z" fill="#f89aba"/><path d="M1344.68,1817.37c0,1.22,0,2.44,0,3.66,0,.63,0,1.26,0,1.89,0,.46,0,.47-.49,.47-1.36,0-2.73,0-4.09,0h-7.92c-.13,0-.25,0-.38,0-.25,0-.36,.12-.35,.36,0,.14,0,.29,0,.43v15.99c0,.72,.05,.67-.67,.67-1.94,0-3.88,0-5.82,0-.11,0-.22,0-.32,0-.26,.02-.35-.12-.34-.36,0-.09,0-.18,0-.27v-38.93c0-.09,0-.18,0-.27-.02-.24,.08-.38,.34-.36,.07,0,.14,0,.22,0,7.2,0,14.4,0,21.59,0,.09,0,.18,0,.27,0-.14,.16-.16,.36-.16,.55,0,1.82,0,3.64,0,5.46,0,.2,.03,.39,.17,.55-.95,0-1.9,.01-2.85,.01-3.86,0-7.72,0-11.58,0-.13,0-.25,0-.38,0-.43,.01-.46,.04-.48,.46,0,.34,0,.68,0,1.02v7.43c0,.14,0,.29,0,.43,0,.22,.11,.33,.33,.33,.14,0,.29,0,.43,0,3.9,0,7.79,0,11.69,0,.11,0,.22,0,.32,0,.45,0,.46,0,.46,.45Z" fill="#f89aba"/><path d="M1346.73,1807.23c-.14-.16-.17-.35-.17-.55,0-1.82,0-3.64,0-5.46,0-.2,.01-.4,.16-.55,0,2.19,0,4.38,.01,6.57Z" fill="#f89aba"/><path d="M982.49,1902.57c-.17,.84-.77,.83-1.45,.81-1.61-.03-3.23,0-4.84-.01-.71,0-.76-.05-.76-.77,0-12.74,0-25.47,0-38.21,0-.71,.04-.74,.77-.74,1.81,0,3.62,0,5.44,0,.28,0,.58,.05,.82-.16,0,8.74,0,17.48,0,26.22,0,4.29,0,8.58,0,12.87Z" fill="#f89aba"/><path d="M982.49,1902.57v.54q-.02,.42-.42,.44c-.11,0-.22,0-.32,0-1.94,0-3.88,0-5.81,0-.11,0-.22,0-.32,0-.26,.02-.35-.12-.34-.36,0-.09,0-.18,0-.27v-38.81c0-.68-.04-.65,.64-.65,2.19,0,4.38,.01,6.57,.02-.24,.21-.54,.16-.82,.16-1.81,0-3.62,0-5.44,0-.74,0-.77,.03-.77,.74,0,12.74,0,25.48,0,38.21,0,.72,.05,.77,.76,.77,1.62,0,3.23-.02,4.84,.01,.68,.01,1.28,.03,1.45-.81Z" fill="#f89aba"/><path d="M1315.94,1820.21c-.05-1.11-.05-2.21-.22-3.32-.23-1.53-.55-3.04-1.07-4.48-.72-1.99-1.68-3.87-3-5.56-1.32-1.68-2.85-3.13-4.68-4.24-2.62-1.59-5.48-2.45-8.54-2.61-.14,0-.29,.02-.4-.1h-1.72c-.13,.14-.3,.11-.46,.1-.51-.02-1.01,.06-1.5,.14-1.97,.32-3.87,.86-5.66,1.77-2.26,1.15-4.18,2.7-5.76,4.67-1.72,2.14-2.88,4.57-3.63,7.2-.47,1.65-.79,3.35-.85,5.07-.07,1.88-.08,3.76,.18,5.64,.31,2.22,.9,4.35,1.83,6.38,1.47,3.2,3.62,5.83,6.59,7.76,1.16,.75,2.4,1.36,3.71,1.82,1.1,.39,2.23,.66,3.38,.83,.57,.09,1.13,.18,1.7,.19,1.67,.04,3.33,.02,4.98-.29,1.74-.32,3.41-.86,4.98-1.66,2.09-1.08,3.9-2.53,5.41-4.35,1.59-1.9,2.71-4.04,3.52-6.36,.45-1.29,.75-2.61,.95-3.96,.09-.6,.2-1.21,.22-1.81,.02-.94,.09-1.89,.04-2.84Zm-8.37,6.83c-.89,2.39-2.28,4.43-4.48,5.8-1.43,.89-2.99,1.43-4.69,1.58-1.47,.13-2.89,.04-4.3-.35-2.02-.56-3.72-1.6-5.08-3.23-1.49-1.78-2.37-3.82-2.84-6.07-.34-1.64-.48-3.3-.39-4.96,.13-2.5,.62-4.93,1.85-7.16,1.34-2.45,3.29-4.19,5.95-5.07,1.58-.52,3.21-.67,4.88-.47,1.22,.14,2.4,.41,3.51,.92,1.64,.75,2.95,1.89,4,3.34,1.24,1.72,1.95,3.65,2.32,5.73,.11,.62,.17,1.24,.25,1.86,.07,.61,.03,1.22,.07,1.69,.02,2.28-.27,4.39-1.03,6.4Z" fill="#f89aba"/><path d="M1199.35,1903.25c-.76-1.89-1.53-3.78-2.29-5.68-.9-2.25-1.79-4.5-2.68-6.74-.28-.72-.58-1.43-.85-2.15-.21-.54-.2-.48,.18-.74,.22-.15,.43-.33,.63-.51,1.99-1.78,3.36-3.96,4.12-6.5,.55-1.83,.77-3.71,.52-5.63-.15-1.18-.4-2.33-.86-3.43-.88-2.12-2.17-3.94-3.97-5.41-2.47-2.02-5.31-3.04-8.47-3.07-6.46-.06-12.93-.02-19.39-.02-.53,0-.53,0-.54,.53,0,.13,0,.25,0,.38v19.23c0,6.52,0,13.03,0,19.55,0,.57,0,.57,.55,.57,2.03,0,4.06,0,6.08,0,.48,0,.48,0,.48-.48,0-.11,0-.22,0-.32,0-3.88,0-7.75,0-11.63,0-.14,0-.29,0-.43-.02-.27,.09-.39,.37-.38,.59,.01,1.19,0,1.78,0h10.93c.51,0,.54,.02,.69,.42,.34,.92,.68,1.85,1.02,2.77,.66,1.82,1.32,3.64,1.98,5.45,.49,1.35,.99,2.69,1.48,4.04,.2,.54,.2,.55,.76,.55,1.65,0,3.3,0,4.95,0,.74,0,1.47,0,2.21,0,.4,0,.43-.05,.29-.4Zm-9.03-21.7c-1.27,1.61-2.98,2.39-4.99,2.63-1.17,.13-2.33,.07-3.49,.08-2.75,.01-5.49,0-8.24,0-.13,0-.25,0-.38,0-.22,.01-.34-.08-.33-.31,0-.13,0-.25,0-.38v-12.82c0-.13,0-.25,0-.38-.02-.26,.11-.36,.36-.34,.04,0,.07,0,.11,0,3.84,0,7.68,0,11.53,0,1.09,0,2.13,.28,3.1,.77,1.95,1,3.21,2.61,3.71,4.71,.51,2.19,.04,4.24-1.37,6.02Z" fill="#f89aba"/><path d="M1288.34,1890.61c0-2.09,0-4.17,0-6.26,0-1.83,0-3.65,0-5.48,0-.94-.11-1.87-.26-2.78-.24-1.38-.66-2.71-1.24-3.99-1.13-2.47-2.82-4.48-4.95-6.13-1.78-1.38-3.8-2.29-5.99-2.82-1.44-.35-2.91-.37-4.38-.35-.88,0-1.75,.13-2.61,.3-2.14,.44-4.1,1.32-5.86,2.58-2,1.44-3.63,3.24-4.83,5.41-1.35,2.46-1.98,5.09-1.99,7.88-.01,4.68,0,9.37,0,14.05,0,3.32,0,6.64,0,9.96,0,.64,0,.64,.62,.64,1.04,0,2.08,0,3.12,0s2.04,0,3.07,0c.38,0,.38-.02,.4-.4,0-.13,0-.25,0-.38v-9.64c0-.72-.06-.67,.67-.67h16.05q.96,0,.96,.98c0,3.18,0,6.35,0,9.53,0,.54,.02,.58,.46,.58,2.1,0,4.2,0,6.3,0,.42,0,.44-.04,.45-.48,0-.13,0-.25,0-.38v-12.17Zm-7.22-4.76c0,.18-.1,.26-.27,.26-.14,0-.29,0-.43,0h-16.27c-.14,0-.29,0-.43,0-.18,0-.26-.1-.25-.27,0-.14,0-.29,0-.43,0-2.1,.01-4.2,0-6.3-.01-1.49,.25-2.93,.91-4.27,.76-1.54,1.85-2.81,3.32-3.72,.97-.61,2.02-1.02,3.15-1.19,1.24-.19,2.49-.16,3.73,.18,1.68,.46,3.07,1.34,4.24,2.62,1.21,1.32,1.93,2.87,2.22,4.63,.09,.54,.09,1.07,.09,1.61,0,2.19,0,4.38,0,6.57,0,.11,0,.22,0,.32Z" fill="#f89aba"/></g></svg>