<?xml version="1.0" encoding="UTF-8"?><svg id="Layer_1" xmlns="http://www.w3.org/2000/svg" viewBox="0 0 5000 5000"><rect width="5000" height="5000" fill="#fca6b1"/><g><g><g><rect x="1371.36" y="692.56" width="51.48" height="626.12" transform="translate(374.8 -379.32) rotate(17.82)" fill="#fff"/><path d="m1532.89,720.43c2.75-8.55-1.95-17.7-10.5-20.45l-49.01-15.75c-8.55-2.75-17.7,1.95-20.45,10.5l-191.62,596.08c-.13.41-.24.83-.34,1.24-.2.5-.38,1-.55,1.52-3.01,9.36-.17,19.55,7.79,27.97,5.66,5.98,13.79,10.88,22.89,13.81,9.1,2.93,18.57,3.68,26.65,2.12,11.37-2.2,19.62-8.83,22.63-18.19.17-.51.31-1.03.44-1.55.16-.4.31-.8.45-1.21l191.62-596.08Zm-255.59,575.51c4.28-5.36,15.61-6.77,27.42-2.98s20.19,11.55,20.55,18.4l-47.97-15.42Zm240.11-580.49l-185.04,575.62c-5.65-5.88-13.68-10.69-22.67-13.58-8.99-2.89-18.32-3.65-26.34-2.17l185.04-575.62,49.01,15.75Z" fill="#191919"/><ellipse cx="1300.4" cy="1306.42" rx="14.13" ry="25.74" transform="translate(-341.31 2144.6) rotate(-72.18)" fill="#fff"/></g><g><path d="m1453.37,830.35c-4.7-1.51-8.99-4.32-12.29-8.23-212.88-253.27-118.67-410.81-114.55-417.39,32.46-59.14,102.65-88.19,166.13-67.79,39.42,12.67,75.31,47.05,91.03,88.28,36.79-24.35,86-31.37,125.42-18.7,63.31,20.35,103.37,84.57,95.42,152.85-1.41,16.25-24.01,191.86-336.23,271.44-5,1.28-10.17,1.07-14.93-.46Z" fill="#ff1251"/><path d="m1709.11,406.52c63.31,20.35,103.37,84.57,95.42,152.85-1.41,16.25-24.01,191.86-336.23,271.44-5,1.28-10.17,1.07-14.93-.46-4.7-1.51-8.99-4.32-12.29-8.23-212.88-253.27-118.67-410.81-114.55-417.39,32.46-59.14,102.65-88.19,166.13-67.79,39.42,12.67,75.31,47.05,91.03,88.28,36.79-24.35,86-31.37,125.42-18.7m4.98-15.48c-21.77-7-46.34-8.78-71.04-5.14-18.27,2.69-35.93,8.25-51.96,16.29-8.34-15.87-19.45-30.68-32.73-43.52-17.95-17.35-38.95-30.22-60.72-37.22-17.42-5.6-35.57-7.99-53.94-7.09-17.77.86-35.23,4.76-51.9,11.59-16.6,6.8-31.85,16.28-45.3,28.17-13.72,12.12-25.16,26.39-34.01,42.4-4.02,6.59-28.93,50.55-26.3,124.96,1.54,43.44,12.17,89.11,31.6,135.74,11.37,27.29,25.94,55.25,43.28,83.1,18.93,30.4,41.67,61.43,67.57,92.25,5.22,6.19,12.05,10.77,19.76,13.25,7.76,2.5,16.04,2.75,23.93.73,38.01-9.69,73.73-21.31,106.15-34.54,29.78-12.15,57.47-25.95,82.31-41,42.68-25.87,77.96-55.98,104.87-89.49,47.22-58.82,54.12-110.15,55.06-120.5,2.13-18.52,1.13-37.05-2.98-55.08-4.01-17.64-10.88-34.32-20.4-49.57-9.54-15.29-21.45-28.65-35.38-39.71-14.36-11.4-30.47-20.02-47.87-25.61h0Z" fill="#191919"/><path d="m1804.52,559.38c7.95-68.28-32.11-132.5-95.42-152.85-11.29-3.63-23.38-5.64-35.76-6.09,4.2.88,8.32,1.97,12.34,3.26,63.31,20.35,103.37,84.57,95.42,152.85-1.39,16.08-23.52,188.02-326.04,268.78-198.79-241.92-116.58-394.54-108.34-408.42,33.33-60.12,103.31-88.97,166.62-68.62,4.02,1.29,8,2.81,11.92,4.54-10.32-6.84-21.32-12.26-32.61-15.88-63.31-20.35-133.28,8.5-166.62,68.62-8.33,14.03-92.29,169.91,115.07,416.52,1.76,2.1,3.81,3.88,6.05,5.32-.01,0-.03,0-.04.01,1.96,1.25,4.06,2.24,6.26,2.95.02,0,.05.01.07.02.02,0,.05.02.07.02,2.2.71,4.48,1.13,6.8,1.25,0-.01-.02-.02-.03-.03,2.66.13,5.36-.12,8.01-.8,312.22-79.58,334.82-255.18,336.23-271.44Z" fill="rgba(255,255,255,.14)"/></g></g><g><g><rect x="335.28" y="537.92" width="51.48" height="626.12" transform="translate(910.18 1594.58) rotate(166.54)" fill="#fff"/><path d="m393.04,1165.22c2.09,8.73,10.86,14.12,19.59,12.03l50.06-11.98c8.73-2.09,14.12-10.86,12.03-19.59l-145.72-608.92c-.1-.42-.22-.83-.35-1.24-.09-.53-.2-1.05-.32-1.58-2.29-9.56-10.01-16.8-21.18-19.86-7.94-2.17-17.44-2.14-26.74.08-9.3,2.23-17.78,6.5-23.88,12.03-8.58,7.78-12.18,17.73-9.89,27.29.13.53.27,1.04.43,1.55.07.42.14.84.25,1.27l145.72,608.92Zm-80.38-624.56c-.88,6.8-9.83,13.89-21.89,16.78-12.06,2.89-23.25.61-27.11-5.05l49-11.73Zm96.19,620.78l-140.72-588.03c7.88,2.09,17.25,2.04,26.43-.16,9.18-2.2,17.56-6.39,23.64-11.82l140.72,588.03-50.06,11.98Z" fill="#191919"/><ellipse cx="287.48" cy="543.7" rx="25.74" ry="14.13" transform="translate(-118.65 81.84) rotate(-13.46)" fill="#fff"/></g><g><path d="m403.93,1029.99c4.8-1.15,9.93-.98,14.78.66,313.44,105.92,314.71,289.48,314.61,297.25,2.96,67.4-41.94,128.67-106.79,144.19-40.27,9.64-88.8-1.11-123.63-28.19-18.8,39.91-57.21,71.46-97.48,81.1-64.67,15.48-132.25-18.61-160.91-81.09-7.24-14.62-79.1-176.44,146.43-406.56,3.61-3.69,8.14-6.19,12.99-7.36Z" fill="#ff1251"/><path d="m405.42,1524.99c-64.67,15.48-132.25-18.61-160.91-81.09-7.24-14.62-79.1-176.44,146.43-406.56,3.61-3.69,8.14-6.19,12.99-7.36,4.8-1.15,9.93-.98,14.78.66,313.44,105.92,314.71,289.48,314.61,297.25,2.96,67.4-41.94,128.67-106.79,144.19-40.27,9.64-88.8-1.11-123.63-28.19-18.8,39.91-57.21,71.46-97.48,81.1m3.78,15.81c22.24-5.32,44.16-16.56,63.38-32.49,14.22-11.79,26.42-25.71,35.94-40.9,15.37,9.24,32.55,16.12,50.56,20.2,24.35,5.51,48.98,5.6,71.22.28,17.8-4.26,34.55-11.64,49.78-21.94,14.74-9.97,27.64-22.37,38.33-36.85,10.66-14.44,18.76-30.45,24.09-47.6,5.43-17.49,7.81-35.62,7.05-53.89.02-7.72-1.52-58.23-42.4-120.45-23.87-36.33-56.66-69.84-97.49-99.6-23.89-17.42-50.85-33.75-80.14-48.55-31.96-16.15-67.51-30.87-105.64-43.76-7.68-2.58-15.89-2.95-23.77-1.07-7.93,1.9-15.14,5.98-20.83,11.8-27.46,28.02-51.95,56.5-72.78,84.64-19.14,25.85-35.64,52.02-49.06,77.78-23.05,44.27-37.57,88.32-43.16,130.93-9.81,74.79,10.93,122.24,15.51,131.57,7.79,16.93,18.27,32.25,31.14,45.53,12.59,12.99,27.11,23.68,43.17,31.78,16.09,8.11,33.21,13.35,50.86,15.57,18.19,2.29,36.43,1.29,54.21-2.96h0Z" fill="#191919"/><path d="m244.51,1443.9c28.66,62.48,96.24,96.57,160.91,81.09,11.53-2.76,22.91-7.32,33.72-13.36-4.05,1.42-8.13,2.64-12.24,3.62-64.67,15.48-132.25-18.61-160.91-81.09-7.16-14.46-77.52-172.9,139.1-398.99,295.5,103.54,304.48,276.66,304.65,292.8,2.73,68.69-42.1,129.68-106.77,145.15-4.1.98-8.3,1.75-12.55,2.31,12.37.49,24.58-.6,36.12-3.36,64.67-15.48,109.5-76.46,106.77-145.15-.17-16.31-9.34-193.13-314.61-296.23-2.59-.88-5.27-1.34-7.93-1.41.01-.01.02-.02.03-.03-2.32-.05-4.63.19-6.88.73-.02,0-.05.01-.07.02-.02,0-.05.01-.07.02-2.24.54-4.42,1.37-6.46,2.46.01,0,.03,0,.04.01-2.34,1.27-4.52,2.89-6.43,4.84-225.52,230.12-153.66,391.94-146.43,406.56Z" fill="rgba(255,255,255,.14)"/></g></g><g><g><rect x="1986.51" y="1236.68" width="51.48" height="626.12" transform="translate(1880.43 4086.17) rotate(-124.63)" fill="#fff"/><path d="m1730.78,1693.07c-7.39,5.1-9.24,15.23-4.14,22.61l29.25,42.36c5.1,7.39,15.23,9.24,22.61,4.14l515.22-355.78c.36-.25.7-.51,1.03-.78.46-.27.91-.56,1.36-.87,8.09-5.59,12.05-15.4,10.87-26.92-.84-8.19-4.3-17.03-9.73-24.9-5.43-7.87-12.48-14.23-19.84-17.92-10.35-5.19-20.93-4.96-29.02.63-.44.31-.87.63-1.29.96-.37.21-.73.44-1.09.69l-515.22,355.78Zm553.39-300.49c-6.66,1.64-16.5-4.15-23.55-14.35-7.05-10.21-8.97-21.46-5.08-27.11l28.63,41.46Zm-544.16,313.86l497.53-343.57c.9,8.1,4.33,16.82,9.69,24.59,5.36,7.77,12.3,14.07,19.56,17.77l-497.53,343.57-29.25-42.36Z" fill="#191919"/><path d="m2257.62,1349.02c6.42-4.43,18.17,1.46,26.25,13.15s9.42,24.77,3,29.21c-6.42,4.43-18.17-1.46-26.25-13.15-8.08-11.7-9.42-24.77-3-29.21Z" fill="#fff"/></g><g><path d="m1860.82,1654.39c2.81,4.07,4.5,8.9,4.72,14.02,14.41,330.54-156.3,398.01-163.58,400.72-61.78,27.1-135.13,7.36-173.02-47.51-23.53-34.07-31.03-83.21-18.36-125.47-44.01-3.12-87.3-27.55-110.83-61.62-37.79-54.72-30.4-130.05,17.52-179.34,11.02-12.03,135.97-137.47,432-10.27,4.74,2.03,8.72,5.35,11.55,9.46Z" fill="#ff1251"/><path d="m1399.76,1834.54c-37.79-54.72-30.4-130.05,17.52-179.34,11.02-12.03,135.97-137.47,432-10.27,4.74,2.03,8.72,5.35,11.55,9.46,2.81,4.07,4.5,8.9,4.72,14.02,14.41,330.54-156.3,398.01-163.58,400.72-61.78,27.1-135.13,7.36-173.02-47.51-23.53-34.07-31.03-83.21-18.36-125.47-44.01-3.12-87.3-27.55-110.83-61.62m-13.38,9.24c13,18.82,31.39,35.2,53.19,47.37,16.12,9,33.51,15.36,51.12,18.75-3.06,17.67-3.28,36.18-.57,54.45,3.66,24.7,12.46,47.7,25.46,66.52,10.4,15.06,23.33,28.01,38.44,38.5,14.62,10.15,30.84,17.7,48.21,22.44,17.31,4.73,35.17,6.5,53.09,5.28,18.27-1.25,36.03-5.58,52.8-12.89,7.21-2.77,53.75-22.44,97.01-83.03,25.26-35.37,44.66-78.06,57.68-126.88,7.62-28.57,13.11-59.61,16.33-92.26,3.52-35.64,4.41-74.1,2.66-114.31-.36-8.09-2.99-15.88-7.59-22.55-4.63-6.71-11.04-11.96-18.52-15.16-36.04-15.49-71.44-28.04-105.21-37.31-31.02-8.51-61.38-14.45-90.24-17.66-49.6-5.51-95.93-3.14-137.68,7.04-73.28,17.86-110.04,54.34-117.09,61.97-12.97,13.38-23.47,28.68-31.21,45.48-7.57,16.43-12.3,33.84-14.04,51.73-1.75,17.94-.46,35.79,3.84,53.05,4.44,17.79,11.95,34.44,22.34,49.48h0Z" fill="#191919"/><path d="m1417.27,1655.2c-47.92,49.29-55.3,124.62-17.52,179.34,6.74,9.76,15.1,18.72,24.63,26.62-2.79-3.26-5.4-6.63-7.79-10.1-37.79-54.72-30.4-130.05,17.52-179.34,10.9-11.9,133.24-134.72,422.3-14.37,10.16,312.95-148.05,383.84-163.03,389.83-63.07,27.35-136.13,7.57-173.91-47.15-2.4-3.47-4.63-7.1-6.69-10.87,4.01,11.71,9.43,22.71,16.17,32.47,37.79,54.72,110.85,74.5,173.91,47.15,15.15-6.05,176.73-78.45,162.63-400.35-.12-2.73-.65-5.39-1.55-7.9.01,0,.03.01.04.02-.79-2.18-1.85-4.25-3.16-6.15-.01-.02-.03-.04-.04-.06-.01-.02-.03-.04-.04-.06-1.31-1.9-2.87-3.63-4.63-5.14,0,.01,0,.03,0,.04-2.03-1.73-4.33-3.17-6.84-4.25-296.03-127.21-420.98-1.76-432,10.27Z" fill="rgba(255,255,255,.14)"/></g></g><g><g><rect x="3771.11" y="541.36" width="51.48" height="626.12" transform="translate(7528.92 -249.09) rotate(150.85)" fill="#fff"/><path d="m3912.68,1148.28c4.37,7.84,14.28,10.65,22.12,6.28l44.96-25.08c7.84-4.37,10.65-14.28,6.28-22.12l-305.02-546.8c-.21-.38-.44-.74-.68-1.1-.23-.48-.47-.96-.74-1.43-4.79-8.59-14.18-13.47-25.76-13.39-8.23.06-17.37,2.65-25.72,7.31-8.35,4.66-15.36,11.07-19.73,18.04-6.15,9.81-6.93,20.36-2.14,28.95.26.47.54.93.83,1.38.18.39.37.77.58,1.15l305.02,546.8Zm-246.35-579.53c.99,6.79-5.7,16.03-16.53,22.08s-22.22,6.88-27.47,2.47l44-24.55Zm260.54,571.61l-294.55-528.03c8.15-.12,17.15-2.71,25.4-7.3s15.17-10.9,19.56-17.77l294.55,528.03-44.96,25.08Z" fill="#191919"/><ellipse cx="3642.92" cy="578.49" rx="25.74" ry="14.13" transform="translate(179.7 1847.99) rotate(-29.15)" fill="#fff"/></g><g><path d="m3886.59,1015.14c4.31-2.41,9.29-3.63,14.4-3.37,330.41,17.18,381.29,193.55,383.3,201.05,21.08,64.08-5.56,135.22-63.8,167.7-36.16,20.17-85.79,22.95-126.65,6.31-7.31,43.51-35.75,84.28-71.9,104.45-58.07,32.39-132.36,17.86-176.85-34.54-10.92-12.12-123.88-148.46,30.98-431.01,2.48-4.52,6.16-8.17,10.52-10.6Z" fill="#ff1251"/><path d="m4021.94,1491.29c-58.07,32.39-132.36,17.86-176.85-34.54-10.92-12.12-123.88-148.46,30.98-431.01,2.48-4.52,6.16-8.17,10.52-10.6,4.31-2.41,9.29-3.63,14.4-3.37,330.41,17.18,381.29,193.55,383.3,201.05,21.08,64.08-5.56,135.22-63.8,167.7-36.16,20.17-85.79,22.95-126.65,6.31-7.31,43.51-35.75,84.28-71.9,104.45m7.92,14.2c19.97-11.14,38.03-27.89,52.23-48.43,10.5-15.19,18.48-31.9,23.54-49.1,17.29,4.74,35.7,6.72,54.14,5.76,24.93-1.29,48.67-7.86,68.64-19,15.98-8.91,30.11-20.55,41.99-34.59,11.5-13.58,20.56-29.01,26.94-45.85,6.35-16.78,9.83-34.39,10.32-52.34.5-18.3-2.12-36.4-7.79-53.79-2.07-7.44-17.21-55.64-73.4-104.49-32.8-28.51-73.44-51.9-120.8-69.52-27.71-10.31-58.09-18.74-90.28-25.06-35.14-6.9-73.34-11.46-113.54-13.55-8.09-.41-16.09,1.46-23.17,5.4-7.12,3.97-12.95,9.85-16.86,16.99-18.85,34.4-34.73,68.44-47.17,101.17-11.43,30.06-20.24,59.72-26.18,88.15-10.21,48.85-12.27,95.19-6.13,137.73,10.79,74.65,43.6,114.72,50.53,122.47,12.08,14.19,26.31,26.1,42.3,35.41,15.64,9.1,32.51,15.47,50.16,18.91,17.69,3.46,35.58,3.87,53.17,1.23,18.13-2.72,35.42-8.61,51.38-17.52h0Z" fill="#191919"/><path d="m3845.09,1456.75c44.5,52.4,118.78,66.93,176.85,34.54,10.36-5.78,20.08-13.25,28.85-21.98-3.51,2.46-7.11,4.74-10.8,6.79-58.07,32.39-132.36,17.86-176.85-34.54-10.8-11.99-121.4-145.48,25.97-421.74,312.49,19.73,367.98,183.97,372.5,199.46,21.21,65.39-5.45,136.23-63.52,168.62-3.69,2.06-7.51,3.93-11.45,5.62,12.04-2.88,23.51-7.22,33.86-13,58.07-32.39,84.73-103.24,63.52-168.62-4.58-15.66-61.24-183.4-383.02-200.07-2.73-.14-5.43.14-8.01.79,0-.01.01-.03.02-.04-2.25.58-4.41,1.44-6.42,2.56-.02.01-.04.02-.06.04-.02.01-.04.02-.06.03-2.01,1.12-3.88,2.51-5.55,4.12.01,0,.03,0,.04,0-1.91,1.85-3.57,4-4.88,6.4-154.86,282.55-41.9,418.89-30.98,431.01Z" fill="rgba(255,255,255,.14)"/></g></g><g><g><rect x="3347.2" y="2965.52" width="51.48" height="626.12" transform="translate(6644.95 -100.73) rotate(89.89)" fill="#fff"/><path d="m3686.08,3319.97c8.98-.02,16.24-7.31,16.22-16.29l-.1-51.48c-.02-8.98-7.31-16.24-16.29-16.22l-626.12,1.22c-.43,0-.86.02-1.29.06-.53-.03-1.07-.05-1.61-.05-9.83.02-18.66,5.86-24.21,16.02-3.95,7.23-6.11,16.47-6.09,26.03.02,9.56,2.22,18.8,6.19,26.01,5.59,10.14,14.44,15.95,24.27,15.93.54,0,1.08-.02,1.61-.06.43.03.85.05,1.29.05l626.12-1.22Zm-626.25-65.97c6.41,2.43,11.25,12.77,11.27,25.17.02,12.4-4.77,22.77-11.18,25.22l-.1-50.39Zm626.22,49.71l-604.63,1.18c3.85-7.18,5.96-16.31,5.94-25.75-.02-9.44-2.17-18.56-6.04-25.73l604.63-1.18.1,51.48Z" fill="#191919"/><ellipse cx="3056.98" cy="3279.2" rx="14.13" ry="25.74" transform="translate(-6.38 5.96) rotate(-.11)" fill="#fff"/></g><g><path d="m3557.01,3278.15c0-4.94,1.34-9.88,4.05-14.23,175.42-280.52,354.32-239.39,361.85-237.5,66.26,12.68,115.51,70.51,115.64,137.19.08,41.4-21.58,86.14-55.96,113.79,34.49,27.51,56.33,72.16,56.41,113.57.13,66.5-48.64,124.38-116.05,137.85-15.9,3.66-189.93,36.23-361.78-236.32-2.75-4.36-4.15-9.35-4.16-14.34Z" fill="#ff1251"/><path d="m4039,3390.97c.13,66.5-48.64,124.38-116.05,137.85-15.9,3.66-189.93,36.23-361.78-236.32-2.75-4.36-4.15-9.35-4.16-14.34,0-4.94,1.34-9.88,4.05-14.23,175.42-280.52,354.32-239.39,361.85-237.5,66.26,12.68,115.51,70.51,115.64,137.19.08,41.4-21.58,86.14-55.96,113.79,34.49,27.51,56.33,72.16,56.41,113.57m16.26-.03c-.04-22.87-5.92-46.79-16.98-69.17-8.19-16.55-18.91-31.64-31.5-44.41,12.53-12.82,23.2-27.95,31.32-44.54,10.98-22.42,16.76-46.36,16.71-69.23-.04-18.3-3.35-36.3-9.86-53.5-6.29-16.64-15.38-32.06-27.01-45.81-11.59-13.7-25.3-25.29-40.75-34.43-15.76-9.32-32.85-15.82-50.81-19.3-7.51-1.8-57-11.96-126.99,13.45-40.85,14.84-81.03,39.01-119.42,71.86-22.46,19.22-44.58,41.69-65.74,66.77-23.09,27.37-45.62,58.56-66.96,92.69-4.29,6.87-6.54,14.78-6.52,22.88.02,8.16,2.32,16.11,6.67,22.99,20.92,33.18,42.98,63.59,65.55,90.36,20.73,24.59,42.38,46.69,64.35,65.68,37.75,32.64,77.26,56.94,117.43,72.22,70.5,26.81,121.46,17.58,131.6,15.28,18.27-3.67,35.59-10.33,51.49-19.79,15.55-9.25,29.3-20.92,40.89-34.67,11.61-13.79,20.66-29.23,26.89-45.89,6.42-17.17,9.66-35.15,9.63-53.43h0Z" fill="#191919"/><path d="m3922.95,3528.81c67.41-13.46,116.18-71.35,116.05-137.85-.02-11.86-1.83-23.98-5.21-35.9.45,4.27.69,8.52.7,12.74.13,66.5-48.64,124.38-116.05,137.85-15.72,3.62-186.12,35.51-356.11-227.45,168.96-263.62,339.48-232.39,355.22-228.83,67.46,13.2,116.46,70.9,116.58,137.39,0,4.22-.21,8.48-.65,12.74,3.33-11.93,5.1-24.06,5.07-35.92-.13-66.5-49.12-124.19-116.58-137.39-15.91-3.6-190.07-35.49-360.85,237.73-1.45,2.32-2.52,4.81-3.2,7.39,0-.01-.02-.03-.02-.04-.59,2.25-.88,4.55-.88,6.86,0,.02,0,.05,0,.07,0,.02,0,.05,0,.07,0,2.31.31,4.61.91,6.86,0-.01.02-.03.02-.04.69,2.57,1.77,5.07,3.23,7.38,171.84,272.55,345.88,239.99,361.78,236.32Z" fill="rgba(255,255,255,.14)"/></g></g><g><g><rect x="1669.71" y="3592.67" width="51.48" height="626.12" transform="translate(396.31 7960.54) rotate(-138.77)" fill="#fff"/><path d="m1457.53,4113.49c-5.92,6.75-5.24,17.02,1.51,22.94l38.71,33.93c6.75,5.92,17.02,5.24,22.94-1.51l412.67-470.88c.29-.33.55-.66.81-1.01.38-.38.75-.77,1.1-1.17,6.48-7.4,7.93-17.88,3.96-28.76-2.82-7.74-8.33-15.47-15.52-21.77s-15.58-10.75-23.62-12.53c-11.31-2.5-21.51.31-27.99,7.7-.36.41-.69.82-1.02,1.25-.31.3-.61.61-.89.93l-412.67,470.88Zm463.2-426.6c-6.06,3.21-17.02.01-26.35-8.16-9.33-8.18-13.94-18.62-11.55-25.05l37.89,33.21Zm-450.97,437.31l398.51-454.72c2.85,7.64,8.31,15.25,15.41,21.47,7.1,6.22,15.36,10.63,23.31,12.46l-398.51,454.72-38.71-33.93Z" fill="#191919"/><path d="m1884.34,3651.14c5.14-5.87,17.98-3.03,28.67,6.34,10.69,9.37,15.19,21.72,10.05,27.59-5.14,5.87-17.98,3.03-28.67-6.34-10.69-9.37-15.19-21.72-10.05-27.59Z" fill="#fff"/></g><g><path d="m1574.18,4044.21c3.72,3.26,6.53,7.53,8.01,12.44,94.74,317-54.31,424.14-60.71,428.55-53.29,41.37-129.24,40.15-179.39-3.8-31.14-27.29-50.42-73.1-48.46-117.18-43.44,7.72-91.39-5.38-122.52-32.67-50.01-43.83-61.26-118.68-26.84-178.18,7.75-14.36,98.26-166.53,416.4-115.51,5.09.81,9.76,3.06,13.51,6.35Z" fill="#ff1251"/><path d="m1171.1,4331.55c-50.01-43.83-61.26-118.68-26.84-178.18,7.75-14.36,98.26-166.53,416.4-115.51,5.09.81,9.76,3.06,13.51,6.35,3.72,3.26,6.53,7.53,8.01,12.44,94.74,317-54.31,424.14-60.71,428.55-53.29,41.37-129.24,40.15-179.39-3.8-31.14-27.29-50.42-73.1-48.46-117.18-43.44,7.72-91.39-5.38-122.52-32.67m-10.71,12.23c17.2,15.07,39.04,26.46,63.15,32.94,17.84,4.79,36.25,6.7,54.15,5.69,1.34,17.88,5.66,35.88,12.75,52.94,9.58,23.05,23.74,43.21,40.94,58.28,13.76,12.06,29.47,21.46,46.68,27.94,16.65,6.27,34.23,9.63,52.23,9.98,17.94.35,35.69-2.29,52.77-7.85,17.41-5.67,33.58-14.22,48.06-25.4,6.31-4.45,46.64-34.89,73.78-104.22,15.85-40.47,24.23-86.61,24.93-137.12.41-29.56-1.85-61.01-6.7-93.46-5.3-35.42-13.83-72.93-25.36-111.5-2.33-7.76-6.78-14.67-12.87-20.01-6.13-5.38-13.63-8.9-21.67-10.18-38.73-6.21-76.13-9.74-111.14-10.47-32.16-.68-63.05.98-91.82,4.93-49.45,6.78-93.79,20.4-131.79,40.46-66.7,35.22-93.43,79.58-98.4,88.71-9.31,16.14-15.75,33.55-19.15,51.73-3.33,17.78-3.65,35.82-.98,53.6,2.68,17.82,8.3,34.81,16.69,50.5,8.65,16.17,20.01,30.47,33.75,42.52h0Z" fill="#191919"/><path d="m1144.27,4153.37c-34.42,59.5-23.17,134.35,26.84,178.18,8.92,7.82,19.22,14.47,30.39,19.8-3.5-2.48-6.85-5.11-10.03-7.89-50.01-43.83-61.26-118.68-26.84-178.18,7.67-14.2,96.28-163.2,405.99-117.12,86.32,300.98-49.77,408.38-62.84,417.85-54.47,41.93-130.15,40.6-180.16-3.23-3.17-2.78-6.22-5.76-9.14-8.9,6.75,10.38,14.7,19.72,23.61,27.53,50.01,43.83,125.69,45.16,180.16,3.23,13.22-9.57,152.2-119.26,59.88-427.95-.78-2.62-1.95-5.07-3.44-7.28.01,0,.03,0,.04,0-1.3-1.93-2.83-3.67-4.57-5.19-.02-.02-.04-.03-.05-.05-.02-.02-.04-.03-.05-.05-1.73-1.52-3.67-2.81-5.75-3.85,0,.01,0,.03.01.04-2.39-1.18-4.97-2.02-7.67-2.45-318.14-51.02-408.65,101.16-416.4,115.51Z" fill="rgba(255,255,255,.14)"/></g></g><g><g><rect x="4091.23" y="3845.92" width="51.48" height="626.12" transform="translate(9482.71 6494.65) rotate(158.23)" fill="#fff"/><path d="m4194.06,4465.29c3.33,8.34,12.79,12.4,21.13,9.07l47.81-19.09c8.34-3.33,12.4-12.79,9.07-21.13l-232.19-581.47c-.16-.4-.34-.79-.53-1.18-.17-.51-.35-1.01-.55-1.52-3.65-9.13-12.33-15.18-23.82-16.59-8.17-1-17.56.4-26.44,3.95-8.88,3.55-16.65,9-21.89,15.35-7.36,8.94-9.49,19.3-5.85,28.43.2.5.42.99.65,1.48.13.41.27.81.43,1.22l232.19,581.47Zm-169.8-606.39c.11,6.86-7.72,15.17-19.23,19.77-11.52,4.6-22.92,3.97-27.56-1.08l46.79-18.69Zm184.89,600.36l-224.23-561.52c8.1.93,17.36-.48,26.13-3.98s16.45-8.86,21.68-15.11l224.23,561.52-47.81,19.09Z" fill="#191919"/><ellipse cx="3999.79" cy="3865.55" rx="25.74" ry="14.13" transform="translate(-1148.32 1758.95) rotate(-21.77)" fill="#fff"/></g><g><path d="m4185.3,4329.9c4.59-1.83,9.68-2.4,14.72-1.49,325.46,59.51,353.25,240.96,354.27,248.66,12.67,66.26-22.9,133.38-84.83,158.11-38.45,15.35-88.03,11.73-126.41-10.02-12.84,42.21-46.28,78.98-84.74,94.34-61.76,24.66-133.55.7-170.94-56.99-9.27-13.42-103.77-163.15,86.13-423.45,3.04-4.17,7.16-7.31,11.8-9.16Z" fill="#ff1251"/><path d="m4258.31,4819.5c-61.76,24.66-133.55.7-170.94-56.99-9.27-13.42-103.77-163.15,86.13-423.45,3.04-4.17,7.16-7.31,11.8-9.16,4.59-1.83,9.68-2.4,14.72-1.49,325.46,59.51,353.25,240.96,354.27,248.66,12.67,66.26-22.9,133.38-84.83,158.11-38.45,15.35-88.03,11.73-126.41-10.02-12.84,42.21-46.28,78.98-84.74,94.34m6.03,15.1c21.24-8.48,41.3-22.77,58.02-41.31,12.36-13.72,22.43-29.26,29.66-45.66,16.54,6.92,34.54,11.25,52.95,12.68,24.89,1.93,49.27-1.53,70.52-10.02,16.99-6.79,32.5-16.51,46.09-28.91,13.15-11.99,24.12-26.13,32.61-42.01,8.46-15.82,14.17-32.84,16.96-50.58,2.85-18.09,2.58-36.37-.81-54.35-1.1-7.64-9.92-57.4-59.36-113.06-28.86-32.49-66.16-60.91-110.86-84.47-26.16-13.78-55.2-26.05-86.31-36.46-33.96-11.36-71.26-20.79-110.85-28.03-7.97-1.45-16.15-.62-23.67,2.38-7.57,3.02-14.11,8.1-18.91,14.68-23.12,31.69-43.24,63.41-59.79,94.27-15.2,28.34-27.75,56.62-37.3,84.05-16.41,47.13-24.41,92.82-23.78,135.79,1.1,75.42,28.49,119.37,34.36,127.95,10.16,15.63,22.74,29.27,37.4,40.55,14.34,11.04,30.25,19.52,47.31,25.21,17.1,5.7,34.79,8.41,52.57,8.06,18.33-.37,36.24-3.99,53.21-10.77h0Z" fill="#191919"/><path d="m4087.37,4762.51c37.39,57.69,109.19,81.65,170.94,56.99,11.01-4.4,21.61-10.56,31.44-18.09-3.8,1.99-7.66,3.78-11.58,5.35-61.76,24.66-133.55.7-170.94-56.99-9.17-13.28-101.69-159.88,79.98-414.91,307.36,59.75,341.27,229.76,343.77,245.7,12.63,67.57-22.92,134.4-84.67,159.06-3.92,1.57-7.96,2.93-12.08,4.1,12.31-1.3,24.24-4.14,35.25-8.54,61.76-24.66,97.3-91.49,84.67-159.06-2.52-16.12-37.16-189.75-354.12-247.65-2.69-.49-5.4-.56-8.05-.24,0-.01.02-.02.03-.04-2.31.28-4.56.86-6.7,1.71-.02,0-.04.02-.07.03s-.04.02-.07.03c-2.14.86-4.17,1.99-6.04,3.37.01,0,.03,0,.04,0-2.14,1.59-4.06,3.51-5.67,5.72-189.9,260.3-95.4,410.03-86.13,423.45Z" fill="rgba(255,255,255,.14)"/></g></g><g><g><rect x="2991.39" y="3884.31" width="51.48" height="626.12" transform="translate(-1874.39 2525.82) rotate(-35.42)" fill="#fff"/><path d="m2869.89,3917.92c-5.2-7.32-15.35-9.03-22.67-3.82l-41.95,29.84c-7.32,5.2-9.03,15.35-3.82,22.67l362.92,510.21c.25.35.52.69.79,1.02.28.46.58.9.89,1.34,5.7,8.01,15.57,11.84,27.07,10.49,8.18-.96,16.97-4.53,24.76-10.08,7.79-5.54,14.06-12.68,17.64-20.09,5.04-10.42,4.67-21-1.03-29.01-.31-.44-.64-.87-.98-1.28-.22-.37-.45-.73-.7-1.08l-362.92-510.21Zm308.16,549.16c-1.73-6.64,3.92-16.56,14.02-23.75,10.11-7.19,21.33-9.27,27.04-5.46l-41.06,29.21Zm-321.41-539.73l350.46,492.7c-8.09,1.01-16.76,4.56-24.45,10.03-7.69,5.47-13.89,12.49-17.5,19.8l-350.46-492.7,41.95-29.84Z" fill="#191919"/><path d="m3221.24,4439.92c4.52,6.36-1.2,18.19-12.79,26.43-11.58,8.24-24.64,9.77-29.16,3.41-4.52-6.36,1.2-18.19,12.79-26.43,11.58-8.24,24.64-9.77,29.16-3.41Z" fill="#fff"/></g><g><path d="m2910.37,4047.41c-4.03,2.86-8.84,4.62-13.95,4.92-330.31,19.01-400.15-150.75-402.96-157.99-27.95-61.4-9.24-135.02,45.1-173.67,33.74-24,82.77-32.18,125.2-20.11,2.51-44.05,26.33-87.68,60.07-111.67,54.19-38.54,129.61-32.21,179.56,15.02,12.18,10.86,139.35,134.04,16.28,431.82-1.97,4.77-5.23,8.79-9.3,11.68Z" fill="#ff1251"/><path d="m2723.83,3588.9c54.19-38.54,129.61-32.21,179.56,15.02,12.18,10.86,139.35,134.04,16.28,431.82-1.97,4.77-5.23,8.79-9.3,11.68-4.03,2.86-8.84,4.62-13.95,4.92-330.31,19.01-400.15-150.75-402.96-157.99-27.95-61.4-9.24-135.02,45.1-173.67,33.74-24,82.77-32.18,125.2-20.11,2.51-44.05,26.33-87.68,60.07-111.67m-9.42-13.25c-18.64,13.26-34.76,31.88-46.62,53.84-8.78,16.25-14.89,33.72-18.04,51.38-17.71-2.82-36.22-2.78-54.45.18-24.64,4-47.52,13.12-66.16,26.38-14.91,10.61-27.68,23.72-37.96,38.97-9.94,14.76-17.27,31.08-21.77,48.52-4.48,17.37-6.01,35.26-4.54,53.16,1.5,18.25,6.08,35.95,13.62,52.62,2.87,7.17,23.19,53.43,84.38,95.85,35.72,24.76,78.67,43.57,127.67,55.91,28.67,7.22,59.79,12.28,92.48,15.05,35.68,3.02,74.15,3.38,114.34,1.07,8.08-.47,15.84-3.21,22.44-7.9,6.65-4.73,11.8-11.2,14.91-18.73,14.98-36.25,27.05-71.83,35.84-105.72,8.08-31.13,13.6-61.57,16.4-90.48,4.81-49.68,1.8-95.96-8.95-137.57-18.88-73.03-55.86-109.27-63.6-116.22-13.56-12.79-29.01-23.07-45.91-30.58-16.54-7.34-34.01-11.82-51.92-13.32-17.96-1.5-35.79.04-52.99,4.58-17.73,4.68-34.27,12.43-49.16,23.03h0Z" fill="#191919"/><path d="m2903.39,3603.91c-49.95-47.23-125.38-53.56-179.56-15.02-9.66,6.87-18.51,15.36-26.28,25,3.22-2.83,6.55-5.49,9.99-7.93,54.19-38.54,129.61-32.21,179.56,15.02,12.05,10.74,136.57,131.35,20.25,422.06-312.78,14.51-385.87-142.69-392.06-157.59-28.23-62.68-9.46-136.01,44.72-174.55,3.44-2.45,7.04-4.72,10.77-6.84-11.66,4.17-22.58,9.75-32.24,16.62-54.19,38.54-72.95,111.87-44.72,174.55,6.26,15.07,80.91,175.62,402.58,157.04,2.73-.16,5.38-.73,7.88-1.66,0,.01-.01.03-.02.04,2.17-.82,4.23-1.91,6.11-3.25.02-.01.04-.03.06-.04.02-.01.04-.03.06-.04,1.88-1.34,3.58-2.92,5.07-4.7-.01,0-.03,0-.04,0,1.7-2.05,3.11-4.37,4.16-6.9,123.07-297.77-4.1-420.96-16.28-431.82Z" fill="rgba(255,255,255,.14)"/></g></g><g><g><rect x="2841.44" y="491.16" width="51.48" height="626.12" transform="translate(2216.08 3709.99) rotate(-93.04)" fill="#fff"/><path d="m2552.33,778.87c-8.97.48-15.85,8.13-15.37,17.09l2.73,51.41c.48,8.97,8.13,15.85,17.09,15.37l625.24-33.19c.43-.02.86-.07,1.28-.12.53,0,1.07,0,1.61-.03,9.82-.52,18.33-6.8,23.36-17.24,3.57-7.42,5.26-16.76,4.75-26.31-.51-9.55-3.18-18.66-7.51-25.66-6.1-9.84-15.23-15.19-25.05-14.67-.54.03-1.07.08-1.61.14-.43-.01-.86-.01-1.29.01l-625.24,33.19Zm628.8,33.9c-6.53-2.09-11.89-12.18-12.55-24.56-.66-12.39,3.6-22.98,9.87-25.75l2.67,50.32Zm-627.94-17.67l603.78-32.05c-3.48,7.37-5.12,16.59-4.62,26.02.5,9.43,3.11,18.42,7.35,25.38l-603.78,32.05-2.73-51.41Z" fill="#191919"/><ellipse cx="3182.69" cy="787.47" rx="14.13" ry="25.74" transform="translate(-37.27 169.81) rotate(-3.04)" fill="#fff"/></g><g><path d="m2683.36,814.05c.26,4.93-.83,9.94-3.32,14.42-160.87,289.11-341.63,257.17-349.25,255.66-66.82-9.28-118.96-64.52-122.5-131.1-2.19-41.35,17.15-87.13,50.08-116.5-35.85-25.71-59.94-69.19-62.13-110.54-3.52-66.4,42.22-126.71,108.86-143.59,15.69-4.47,187.83-45.88,373.37,217.54,2.97,4.21,4.62,9.13,4.88,14.11Z" fill="#ff1251"/><path d="m2196.25,725.99c-3.53-66.4,42.22-126.71,108.86-143.59,15.69-4.47,187.83-45.88,373.37,217.54,2.97,4.21,4.62,9.13,4.88,14.11.26,4.93-.83,9.94-3.32,14.42-160.87,289.11-341.63,257.17-349.25,255.66-66.82-9.28-118.96-64.52-122.5-131.1-2.19-41.35,17.15-87.13,50.08-116.5-35.85-25.71-59.94-69.19-62.13-110.54m-16.23.86c1.21,22.84,8.3,46.43,20.49,68.21,9.02,16.11,20.5,30.64,33.72,42.75-11.86,13.44-21.75,29.1-29.01,46.08-9.82,22.95-14.37,47.16-13.16,70,.97,18.27,5.2,36.08,12.58,52.93,7.14,16.3,17,31.23,29.31,44.37,12.27,13.09,26.55,23.96,42.46,32.3,16.21,8.51,33.62,14.12,51.73,16.68,7.59,1.41,57.54,9.04,126.13-19.91,40.04-16.9,78.93-43.1,115.59-77.87,21.45-20.35,42.39-43.91,62.24-70.04,21.66-28.52,42.57-60.81,62.14-95.98,3.93-7.08,5.78-15.09,5.35-23.18-.43-8.14-3.14-15.97-7.83-22.62-22.59-32.07-46.17-61.31-70.08-86.89-21.96-23.5-44.71-44.46-67.62-62.31-39.37-30.67-80.07-52.92-120.97-66.13-71.78-23.18-122.2-11.35-132.21-8.54-18.06,4.6-35.02,12.14-50.41,22.4-15.06,10.03-28.2,22.38-39.06,36.71-10.89,14.36-19.14,30.24-24.51,47.2-5.54,17.48-7.86,35.6-6.89,53.85h0Z" fill="#191919"/><path d="m2305.11,582.39c-66.64,16.89-112.38,77.19-108.86,143.59.63,11.84,3.06,23.86,7.04,35.58-.67-4.24-1.12-8.47-1.35-12.69-3.52-66.4,42.22-126.71,108.86-143.59,15.52-4.42,184.07-44.97,367.26,208.96-155.28,271.9-327.17,249.43-343.07,246.67-68.05-9.74-119.92-64.86-123.45-131.26-.22-4.21-.22-8.47,0-12.76-2.72,12.08-3.86,24.29-3.23,36.13,3.52,66.4,55.4,121.52,123.45,131.26,16.08,2.78,191.64,25.74,348.24-255.85,1.33-2.39,2.27-4.94,2.82-7.55,0,.01.02.02.03.04.47-2.27.65-4.59.53-6.9,0-.02,0-.05,0-.07,0-.02,0-.05,0-.07-.12-2.3-.54-4.59-1.26-6.8,0,.01-.01.03-.02.04-.82-2.54-2.02-4.97-3.6-7.2-185.54-263.42-357.68-222.01-373.37-217.54Z" fill="rgba(255,255,255,.14)"/></g></g><g><g><rect x="1797.42" y="2065.44" width="51.48" height="626.12" transform="translate(3471.15 -124.56) rotate(70.83)" fill="#fff"/><path d="m2132.65,2315.38c8.48-2.95,12.96-12.21,10.02-20.69l-16.9-48.62c-2.95-8.48-12.21-12.97-20.69-10.02l-591.4,205.59c-.41.14-.81.3-1.2.48-.52.14-1.03.3-1.54.48-9.29,3.23-15.72,11.63-17.65,23.05-1.37,8.12-.4,17.56,2.74,26.6s8.23,17.04,14.35,22.56c8.6,7.76,18.85,10.36,28.14,7.13.51-.18,1.01-.37,1.5-.58.41-.11.83-.23,1.24-.37l591.4-205.59Zm-613.46,142.12c6.85.2,14.8,8.39,18.88,20.11,4.07,11.72,2.92,23.08-2.33,27.48l-16.54-47.59Zm608.13-157.48l-571.11,198.53c1.29-8.05.31-17.36-2.79-26.28-3.1-8.92-8.11-16.83-14.11-22.34l571.11-198.53,16.9,48.62Z" fill="#191919"/><ellipse cx="1524.72" cy="2482.25" rx="14.13" ry="25.74" transform="translate(-730.51 638.27) rotate(-19.17)" fill="#fff"/></g><g><path d="m1997.01,2317.99c-1.62-4.67-1.96-9.78-.82-14.77,74.21-322.42,256.73-341.96,264.47-342.63,66.77-9.65,132.2,28.93,154.1,91.91,13.59,39.11,7.73,88.47-15.74,125.82,41.58,14.74,76.8,49.82,90.4,88.93,21.83,62.81-5.36,133.45-64.68,168.18-13.83,8.65-167.69,96.26-419.11-105.25-4.03-3.22-6.97-7.48-8.61-12.2Z" fill="#ff1251"/><path d="m2489.41,2267.26c21.83,62.81-5.36,133.45-64.68,168.18-13.83,8.65-167.69,96.26-419.11-105.25-4.03-3.22-6.97-7.48-8.61-12.2-1.62-4.67-1.96-9.78-.82-14.77,74.21-322.42,256.73-341.96,264.47-342.63,66.77-9.65,132.2,28.93,154.1,91.91,13.6,39.11,7.73,88.47-15.74,125.82,41.58,14.74,76.8,49.82,90.4,88.93m15.35-5.34c-7.51-21.6-20.87-42.29-38.64-59.83-13.14-12.97-28.21-23.73-44.27-31.7,7.66-16.21,12.8-34,15.07-52.32,3.06-24.78.7-49.29-6.81-70.9-6.01-17.28-15.02-33.22-26.79-47.35-11.38-13.68-25.01-25.28-40.48-34.48-15.42-9.17-32.17-15.64-49.76-19.24-17.94-3.67-36.22-4.22-54.33-1.65-7.68.75-57.79,7.3-115.63,54.17-33.77,27.36-63.85,63.33-89.41,106.91-14.96,25.51-28.53,53.96-40.33,84.57-12.89,33.41-24,70.24-33.03,109.47-1.81,7.89-1.36,16.1,1.3,23.75,2.68,7.7,7.45,14.47,13.81,19.55,30.61,24.53,61.38,46.07,91.46,64,27.62,16.47,55.3,30.29,82.27,41.07,46.34,18.53,91.62,28.59,134.58,29.91,75.39,2.32,120.54-23.04,129.37-28.53,16.07-9.44,30.27-21.39,42.21-35.52,11.68-13.82,20.87-29.34,27.32-46.12,6.47-16.82,9.98-34.37,10.43-52.15.46-18.33-2.34-36.38-8.34-53.64h0Z" fill="#191919"/><path d="m2424.73,2435.44c59.32-34.74,86.51-105.37,64.68-168.18-3.89-11.2-9.56-22.07-16.65-32.23,1.82,3.89,3.43,7.83,4.82,11.81,21.83,62.81-5.36,133.45-64.68,168.18-13.68,8.56-164.33,94.34-410.85-98.71,73.62-304.34,244.99-330.5,261.03-332.27,68.08-9.55,133.22,28.99,155.06,91.8,1.39,3.99,2.57,8.08,3.55,12.26-.74-12.36-3.04-24.4-6.93-35.6-21.83-62.81-86.98-101.35-155.06-91.8-16.22,1.79-191.24,28.51-263.45,342.52-.61,2.67-.81,5.37-.61,8.03-.01,0-.02-.02-.04-.03.18,2.32.65,4.59,1.41,6.77,0,.02.02.05.02.07,0,.02.01.05.02.07.76,2.18,1.8,4.26,3.1,6.19,0-.01,0-.03.01-.04,1.49,2.21,3.32,4.21,5.46,5.92,251.42,201.51,405.28,113.9,419.11,105.25Z" fill="rgba(255,255,255,.14)"/></g></g><g><g><rect x="3333.27" y="1417.93" width="51.48" height="626.12" transform="translate(-419.73 1712.05) rotate(-26.98)" fill="#fff"/><path d="m3254.43,1432.94c-4.07-8-13.86-11.19-21.86-7.11l-45.88,23.35c-8,4.07-11.19,13.86-7.11,21.86l284.02,557.99c.2.39.41.76.63,1.12.21.49.44.98.68,1.46,4.46,8.76,13.66,14,25.23,14.36,8.23.26,17.45-1.99,25.98-6.33s15.77-10.47,20.4-17.28c6.52-9.57,7.7-20.08,3.24-28.85-.25-.48-.51-.95-.78-1.41-.16-.39-.34-.79-.54-1.17l-284.02-557.99Zm224.14,588.47c-.74-6.82,6.31-15.81,17.36-21.43,11.05-5.63,22.46-6.03,27.54-1.42l-44.9,22.86Zm-238.63-581.1l274.27,538.84c-8.15-.19-17.24,2.05-25.66,6.33-8.41,4.28-15.58,10.32-20.22,17.02l-274.27-538.84,45.88-23.35Z" fill="#191919"/><ellipse cx="3502.34" cy="2012.57" rx="25.74" ry="14.13" transform="translate(-531.87 1807.71) rotate(-26.98)" fill="#fff"/></g><g><path d="m3275.45,1566.97c-4.4,2.24-9.42,3.27-14.52,2.82-329.52-29.72-373.66-207.9-375.38-215.47-18.63-64.84,10.7-134.91,70.12-165.16,36.9-18.78,86.6-19.68,126.8-1.49,8.95-43.2,38.92-82.86,75.82-101.64,59.26-30.16,132.94-12.82,175.41,41.23,10.45,12.53,118.15,153.06-47.34,429.52-2.65,4.43-6.47,7.93-10.92,10.19Z" fill="#ff1251"/><path d="m3158.29,1086.03c59.26-30.16,132.94-12.82,175.41,41.23,10.45,12.53,118.15,153.06-47.34,429.52-2.65,4.43-6.47,7.93-10.92,10.19-4.4,2.24-9.42,3.27-14.52,2.82-329.52-29.72-373.66-207.9-375.38-215.47-18.63-64.84,10.7-134.91,70.12-165.16,36.9-18.78,86.6-19.68,126.8-1.49,8.95-43.2,38.92-82.86,75.82-101.64m-7.37-14.49c-20.38,10.38-39.07,26.42-54.03,46.41-11.07,14.78-19.68,31.17-25.39,48.17-17.1-5.39-35.42-8.07-53.89-7.82-24.96.34-48.93,6-69.31,16.38-16.31,8.3-30.87,19.39-43.27,32.97-12,13.14-21.65,28.21-28.66,44.79-6.99,16.53-11.13,33.99-12.3,51.91-1.2,18.27.74,36.45,5.74,54.05,1.79,7.51,15.09,56.26,69.38,107.2,31.69,29.74,71.42,54.66,118.07,74.06,27.3,11.35,57.33,20.93,89.27,28.47,34.85,8.23,72.85,14.24,112.94,17.85,8.07.72,16.14-.84,23.36-4.52,7.27-3.7,13.32-9.35,17.5-16.34,20.15-33.66,37.3-67.07,50.99-99.3,12.57-29.61,22.5-58.91,29.52-87.09,12.06-48.43,15.88-94.66,11.36-137.39-7.94-75.01-39.2-116.3-45.84-124.3-11.53-14.64-25.3-27.08-40.92-36.99-15.28-9.69-31.9-16.69-49.4-20.81-17.55-4.13-35.41-5.22-53.09-3.25-18.22,2.03-35.72,7.26-52.01,15.55h0Z" fill="#191919"/><path d="m3333.7,1127.26c-42.47-54.05-116.15-71.4-175.41-41.23-10.57,5.38-20.57,12.47-29.67,20.87,3.6-2.33,7.29-4.46,11.05-6.38,59.26-30.16,132.94-12.82,175.41,41.23,10.34,12.39,115.79,149.99-41.98,420.45-311.52-31.6-360.72-197.83-364.65-213.48-18.71-66.15,10.62-135.92,69.88-166.09,3.76-1.91,7.66-3.64,11.66-5.18-12.14,2.42-23.76,6.33-34.33,11.71-59.26,30.16-88.59,99.94-69.88,166.09,3.98,15.82,54.23,185.6,375.14,214.48,2.72.25,5.43.07,8.04-.49,0,.01-.02.03-.02.04,2.27-.49,4.46-1.27,6.52-2.32.02-.01.04-.02.06-.03.02-.01.04-.02.06-.03,2.06-1.05,3.97-2.36,5.71-3.91-.01,0-.03,0-.04,0,1.98-1.78,3.72-3.86,5.12-6.21,165.49-276.46,57.79-417,47.34-429.52Z" fill="rgba(255,255,255,.14)"/></g></g><g><g><rect x="2831.13" y="2389.64" width="51.48" height="626.12" transform="translate(1789.38 -1082.37) rotate(30.84)" fill="#fff"/><path d="m3053.41,2455.43c4.6-7.71,2.08-17.69-5.62-22.29l-44.2-26.39c-7.71-4.6-17.69-2.08-22.29,5.62l-320.96,537.59c-.22.37-.42.75-.61,1.14-.3.44-.6.89-.87,1.35-5.04,8.44-4.57,19.01,1.29,29,4.17,7.1,10.98,13.71,19.19,18.61,8.21,4.9,17.26,7.77,25.49,8.07,11.57.42,21.1-4.18,26.14-12.62.28-.46.53-.94.78-1.41.25-.35.49-.71.71-1.08l320.96-537.59Zm-378.65,503.15c5.38-4.25,16.74-3.08,27.39,3.28,10.65,6.36,17.07,15.8,15.88,22.55l-43.26-25.83Zm364.69-511.48l-309.95,519.14c-4.18-7-10.92-13.5-19.03-18.34-8.11-4.84-17.03-7.69-25.17-8.05l309.95-519.15,44.2,26.39Z" fill="#191919"/><ellipse cx="2694.9" cy="2973.98" rx="14.13" ry="25.74" transform="translate(-1240.07 3763.33) rotate(-59.16)" fill="#fff"/></g><g><path d="m2951.17,2544.61c-4.24-2.53-7.79-6.23-10.12-10.79-150.36-294.71-23.08-426.98-17.58-432.47,44.95-50.31,119.88-62.81,177.13-28.62,35.55,21.22,62.78,62.81,68.8,106.51,41.33-15.43,90.86-11.19,126.41,10.03,57.1,34.09,81.66,105.68,58.54,170.42-5.03,15.52-66.61,181.52-388.73,188.73-5.15.12-10.15-1.25-14.44-3.81Z" fill="#ff1251"/><path d="m3295.8,2189.28c57.1,34.09,81.66,105.68,58.54,170.42-5.03,15.52-66.61,181.52-388.73,188.73-5.15.12-10.15-1.25-14.44-3.81-4.24-2.53-7.79-6.23-10.12-10.79-150.36-294.71-23.08-426.98-17.58-432.47,44.95-50.31,119.88-62.81,177.13-28.62,35.55,21.22,62.78,62.81,68.8,106.51,41.33-15.43,90.86-11.19,126.41,10.03m8.33-13.96c-19.64-11.72-43.17-18.99-68.05-21.01-18.41-1.49-36.87-.05-54.29,4.17-4.55-17.34-12.04-34.27-22.09-49.77-13.58-20.95-31.14-38.22-50.78-49.94-15.71-9.38-32.86-15.79-50.95-19.06-17.51-3.16-35.4-3.29-53.17-.4-17.71,2.89-34.7,8.69-50.49,17.24-16.1,8.72-30.46,20.04-42.69,33.65-5.41,5.51-39.58,42.73-53.77,115.82-8.29,42.67-8.22,89.56.21,139.37,4.93,29.15,12.82,59.67,23.45,90.71,11.6,33.88,26.76,69.24,45.05,105.09,3.69,7.21,9.31,13.21,16.27,17.36,7,4.18,15.01,6.29,23.15,6.1,39.22-.88,76.64-4.16,111.2-9.75,31.75-5.13,61.84-12.34,89.43-21.41,47.41-15.59,88.57-36.98,122.33-63.57,59.25-46.68,77.54-95.13,80.78-105,6.25-17.56,9.44-35.84,9.51-54.34.06-18.09-2.87-35.89-8.71-52.89-5.85-17.05-14.44-32.75-25.52-46.66-11.42-14.34-25.17-26.37-40.87-35.73h0Z" fill="#191919"/><path d="m3354.34,2359.7c23.12-64.74-1.44-136.33-58.54-170.42-10.18-6.08-21.51-10.76-33.47-13.99,3.89,1.81,7.66,3.79,11.28,5.95,57.1,34.09,81.66,105.68,58.54,170.42-4.98,15.35-65.26,177.89-378.2,188.43-139.19-280.48-24.71-410.66-13.56-422.33,46.02-51.07,120.69-63.41,177.79-29.32,3.62,2.16,7.16,4.54,10.6,7.11-8.51-8.99-18.01-16.74-28.19-22.82-57.1-34.09-131.77-21.75-177.79,29.32-11.27,11.79-128.19,144.75,18.3,431.74,1.24,2.44,2.84,4.63,4.69,6.54-.02,0-.03,0-.04,0,1.62,1.66,3.45,3.1,5.43,4.28.02.01.04.02.06.04s.04.03.06.04c1.98,1.18,4.11,2.11,6.35,2.75,0-.01-.01-.03-.02-.04,2.56.73,5.25,1.09,7.99,1.03,322.12-7.2,383.7-173.21,388.73-188.73Z" fill="rgba(255,255,255,.14)"/></g></g><g><g><rect x="2214.49" y="2962.99" width="51.48" height="626.12" transform="translate(-1674.7 2624.52) rotate(-46.19)" fill="#fff"/><path d="m2043.4,3029.01c-6.48-6.22-16.77-6-22.98.48l-35.64,37.15c-6.22,6.48-6,16.77.48,22.98l451.8,433.47c.31.3.64.58.97.85.36.39.73.78,1.12,1.16,7.1,6.81,17.5,8.72,28.55,5.25,7.85-2.47,15.83-7.62,22.45-14.52,6.62-6.9,11.44-15.08,13.58-23.03,3.01-11.18.66-21.5-6.43-28.31-.39-.37-.79-.73-1.2-1.08-.28-.32-.58-.63-.89-.93l-451.8-433.47Zm405.29,481.95c-2.94-6.2.75-17,9.34-25.95s19.23-13.09,25.54-10.41l-34.88,36.36Zm-416.54-470.22l436.3,418.6c-7.76,2.5-15.61,7.61-22.14,14.42s-11.32,14.87-13.49,22.72l-436.3-418.6,35.64-37.15Z" fill="#191919"/><ellipse cx="2468.22" cy="3494.79" rx="25.74" ry="14.13" transform="translate(-1762.39 2856.34) rotate(-46.19)" fill="#fff"/></g><g><path d="m2107.35,3148.66c-3.42,3.56-7.82,6.19-12.79,7.44-320.95,80.35-421.26-73.38-425.37-79.97-38.93-55.1-34.29-130.92,11.88-179.03,28.66-29.88,75.3-47.07,119.24-43.13-5.76-43.74,9.49-91.05,38.16-120.93,46.04-47.98,121.32-55.85,179.21-18.78,13.99,8.39,161.93,105.66,96.63,421.18-1.04,5.05-3.5,9.61-6.95,13.21Z" fill="#ff1251"/><path d="m1838.47,2733.05c46.04-47.98,121.32-55.85,179.21-18.78,13.99,8.39,161.93,105.66,96.63,421.18-1.04,5.05-3.5,9.61-6.95,13.21-3.42,3.56-7.82,6.19-12.79,7.44-320.95,80.35-421.26-73.38-425.37-79.97-38.93-55.1-34.29-130.92,11.88-179.03,28.66-29.88,75.3-47.07,119.24-43.13-5.76-43.74,9.49-91.05,38.16-120.93m-11.73-11.25c-15.83,16.5-28.2,37.81-35.75,61.6-5.59,17.6-8.33,35.91-8.13,53.84-17.92.54-36.1,4.04-53.46,10.35-23.46,8.53-44.23,21.77-60.07,38.27-12.67,13.2-22.77,28.47-30.02,45.37-7.01,16.35-11.16,33.76-12.32,51.73-1.16,17.91.68,35.76,5.47,53.07,4.88,17.65,12.69,34.18,23.21,49.15,4.16,6.5,32.76,48.16,100.79,78.41,39.72,17.66,85.43,28.11,135.86,31.08,29.52,1.74,61.03.9,93.66-2.49,35.62-3.7,73.48-10.53,112.53-20.3,7.85-1.98,14.96-6.11,20.57-11.95,5.65-5.89,9.5-13.21,11.15-21.18,7.95-38.41,13.16-75.61,15.47-110.55,2.13-32.09,1.86-63.03-.78-91.95-4.55-49.7-16.15-94.61-34.48-133.48-32.18-68.22-75.29-96.92-84.18-102.3-15.71-10.03-32.8-17.25-50.82-21.47-17.62-4.12-35.62-5.27-53.5-3.39-17.93,1.88-35.15,6.72-51.2,14.4-16.54,7.91-31.34,18.61-44,31.8h0Z" fill="#191919"/><path d="m2017.68,2714.27c-57.89-37.07-133.17-29.21-179.21,18.78-8.21,8.56-15.32,18.55-21.15,29.47,2.63-3.39,5.41-6.61,8.34-9.66,46.04-47.98,121.32-55.85,179.21-18.78,13.84,8.3,158.69,103.54,98.7,410.85-304.57,72.66-405.72-68.12-414.59-81.61-39.43-56.31-34.69-131.85,11.34-179.83,2.92-3.05,6.03-5.96,9.31-8.73-10.67,6.28-20.36,13.79-28.57,22.35-46.04,47.98-50.78,123.53-11.34,179.83,8.96,13.63,112.28,157.42,424.82,79.11,2.65-.66,5.15-1.72,7.43-3.1,0,.01,0,.03,0,.04,1.98-1.21,3.8-2.67,5.39-4.33.02-.02.03-.04.05-.05s.03-.03.05-.05c1.6-1.66,2.98-3.54,4.1-5.57-.01,0-.03,0-.04.01,1.29-2.33,2.24-4.87,2.79-7.55,65.31-315.52-82.63-412.79-96.63-421.18Z" fill="rgba(255,255,255,.14)"/></g></g><g><polygon points="5000 2093.52 4743.36 1824.21 4706.09 1859.72 5000 2168.14 5000 2093.52" fill="#fff"/><path d="m5000,2168.14l-293.91-308.42,37.27-35.51,256.64,269.31v-23.56l-244.87-256.96c-6.19-6.5-16.48-6.75-22.98-.55l-37.27,35.51c-6.5,6.19-6.75,16.48-.55,22.98l305.67,320.77v-23.56Z" fill="#191919"/><g><path d="m4813.66,1935.39c-3.58,3.41-8.09,5.83-13.11,6.86-324.23,65.9-417.55-92.17-421.37-98.93-36.42-56.79-28.39-132.32,19.88-178.32,29.97-28.56,77.33-43.65,121.06-37.75-3.79-43.95,13.56-90.53,43.53-119.1,48.14-45.87,123.7-50.36,179.87-10.73,13.6,9.01,157.04,112.81,77.67,425.09-1.27,5-3.93,9.45-7.54,12.89Z" fill="#ff1251"/><path d="m4563.66,1508.15c48.14-45.87,123.7-50.36,179.87-10.73,13.6,9.01,157.04,112.81,77.67,425.09-1.27,5-3.93,9.45-7.54,12.89-3.58,3.41-8.09,5.83-13.11,6.86-324.23,65.9-417.55-92.17-421.37-98.93-36.42-56.79-28.39-132.32,19.88-178.32,29.97-28.56,77.33-43.65,121.06-37.75-3.79-43.95,13.56-90.53,43.53-119.1m-11.21-11.77c-16.56,15.78-29.86,36.5-38.47,59.94-6.37,17.33-9.93,35.5-10.53,53.42-17.93-.27-36.25,2.41-53.87,7.94-23.82,7.47-45.16,19.76-61.72,35.54-13.25,12.62-24.02,27.42-32.02,43.98-7.74,16.02-12.66,33.22-14.63,51.12-1.96,17.84-.92,35.76,3.08,53.26,4.09,17.85,11.15,34.72,20.98,50.14,3.86,6.68,30.57,49.58,97.18,82.84,38.89,19.42,84.08,31.91,134.33,37.14,29.41,3.06,60.93,3.63,93.68,1.71,35.75-2.1,73.88-7.23,113.32-15.24,7.93-1.62,15.22-5.43,21.08-11.02,5.9-5.63,10.08-12.77,12.08-20.66,9.66-38.02,16.53-74.95,20.41-109.75,3.56-31.96,4.68-62.88,3.34-91.9-2.32-49.85-11.89-95.24-28.47-134.89-29.09-69.59-70.87-100.19-79.52-105.96-15.24-10.72-32-18.7-49.8-23.72-17.41-4.91-35.34-6.85-53.29-5.79-17.99,1.07-35.42,5.14-51.79,12.09-16.88,7.16-32.15,17.19-45.38,29.8h0Z" fill="#191919"/><path d="m4743.53,1497.42c-56.17-39.62-131.73-35.14-179.87,10.73-8.59,8.18-16.13,17.84-22.45,28.49,2.78-3.26,5.71-6.37,8.76-9.28,48.14-45.87,123.7-50.36,179.87-10.73,13.45,8.91,153.9,110.54,80.2,414.86-307.52,58.95-402.27-86.22-410.52-100.09-36.87-58.02-28.76-133.27,19.38-179.15,3.06-2.91,6.29-5.68,9.69-8.3-10.94,5.79-20.96,12.87-29.54,21.05-48.14,45.87-56.26,121.13-19.38,179.15,8.34,14.02,105.11,162.29,420.85,98.05,2.68-.54,5.22-1.49,7.56-2.77,0,.01,0,.03-.01.04,2.03-1.12,3.91-2.49,5.58-4.09.02-.02.03-.03.05-.05s.04-.03.05-.05c1.67-1.59,3.13-3.4,4.35-5.38-.01,0-.03,0-.04,0,1.39-2.27,2.46-4.77,3.13-7.42,79.37-312.28-64.07-416.08-77.67-425.09Z" fill="rgba(255,255,255,.14)"/></g></g><g><g><rect x="3923.62" y="2063.26" width="55.12" height="660.83" transform="translate(7103.08 -983.75) rotate(101.81)" fill="#fff"/><path d="m4265.39,2505.33c9.28,1.94,18.39-4.11,20.36-13.52l11.28-53.95c1.97-9.41-3.96-18.61-13.23-20.55l-646.83-135.29c-.45-.09-.9-.16-1.34-.22-.54-.15-1.09-.29-1.65-.41-10.16-2.12-20.56,2.07-28.54,11.5-5.67,6.71-9.95,15.92-12.05,25.94-2.1,10.02-1.87,20.18.64,28.6,3.53,11.84,11.38,19.85,21.54,21.98.56.12,1.12.21,1.68.29.43.13.87.24,1.32.34l646.83,135.29Zm-632.1-205.71c6.09,3.94,8.79,15.83,6.07,28.83-2.72,13-9.96,22.81-17.12,23.98l11.04-52.8Zm635.66,188.67l-624.63-130.65c5.57-6.69,9.77-15.79,11.83-25.68,2.07-9.89,1.87-19.91-.55-28.27l624.63,130.65-11.28,53.95Z" fill="#191919"/><ellipse cx="3624.77" cy="2325.4" rx="27.56" ry="14.91" transform="translate(606.53 5397.31) rotate(-78.19)" fill="#fff"/></g><g><path d="m4141.36,2433.37c1.08-5.18,3.57-10.06,7.33-14.02,243.2-255.6,418.84-173.49,426.2-169.86,65.62,27.73,103.69,99.06,89.07,168.94-9.08,43.39-41.34,85.53-82.96,106.99,29.53,36.34,42.2,87.88,33.13,131.27-14.58,69.69-77.74,119.69-150.33,119.09-17.23.37-204.15-3.47-321.31-326.47-1.88-5.17-2.22-10.7-1.12-15.93Z" fill="#ff1251"/><path d="m4614.12,2656.68c-14.58,69.69-77.74,119.69-150.33,119.09-17.23.37-204.15-3.47-321.31-326.47-1.88-5.17-2.22-10.7-1.12-15.93,1.08-5.18,3.57-10.06,7.33-14.02,243.2-255.6,418.84-173.49,426.2-169.86,65.62,27.73,103.69,99.06,89.07,168.94-9.08,43.39-41.34,85.53-82.96,106.99,29.53,36.34,42.2,87.88,33.13,131.27m16.79,3.51c5.01-23.97,4.24-50.31-2.24-76.16-4.79-19.13-12.53-37.27-22.7-53.4,15.78-10.69,30.14-24.22,42.2-39.82,16.3-21.09,27.56-44.91,32.57-68.88,4.01-19.18,4.57-38.76,1.66-58.2-2.82-18.81-8.79-36.94-17.76-53.88-8.93-16.88-20.53-32.01-34.47-44.96-14.21-13.2-30.43-23.74-48.2-31.3-7.35-3.52-56.22-24.97-134.11-13.61-45.47,6.63-92.31,23.19-139.21,49.23-27.45,15.24-55.26,33.95-82.65,55.6-29.9,23.64-60.06,51.39-89.65,82.49-5.95,6.26-10.02,14.05-11.8,22.54-1.79,8.55-1.17,17.38,1.8,25.54,14.26,39.33,30.31,75.99,47.7,108.95,15.97,30.28,33.44,58.15,51.92,82.85,31.76,42.43,67.19,76.5,105.29,101.27,66.87,43.46,121.54,44.91,132.51,44.71,19.68.14,39.04-3.06,57.55-9.5,18.1-6.3,34.89-15.52,49.89-27.4,15.04-11.91,27.8-26.11,37.92-42.2,10.43-16.59,17.76-34.71,21.76-53.87h0Z" fill="#191919"/><path d="m4463.79,2775.77c72.59.6,135.75-49.4,150.33-119.09,2.6-12.43,3.41-25.52,2.56-38.74-.48,4.57-1.17,9.08-2.1,13.5-14.58,69.69-77.74,119.69-150.33,119.09-17.04.37-200.06-3.39-317.42-315.94,232.79-239.3,401.97-169.4,417.43-162.23,66.75,28.54,104.57,99.67,90,169.36-.92,4.42-2.1,8.83-3.49,13.21,6.08-11.77,10.58-24.09,13.18-36.52,14.58-69.69-23.25-140.82-90-169.36-15.64-7.24-188.43-78.64-425.22,170.33-2.01,2.11-3.66,4.49-4.94,7.05,0-.02-.01-.03-.02-.04-1.1,2.23-1.92,4.58-2.43,6.99,0,.03,0,.05-.01.08,0,.03-.01.05-.02.08-.51,2.42-.7,4.9-.58,7.38.01-.01.02-.02.03-.03.15,2.85.7,5.69,1.7,8.43,117.16,323,304.08,326.84,321.31,326.47Z" fill="rgba(255,255,255,.14)"/></g></g><g><g><rect x="753.07" y="2233.18" width="51.48" height="626.12" transform="translate(-161.35 55.06) rotate(-3.67)" fill="#fff"/><path d="m800.68,2231.13c-.57-8.96-8.3-15.76-17.26-15.18l-51.37,3.29c-8.96.57-15.76,8.3-15.18,17.26l40.07,624.83c.03.43.08.86.14,1.28,0,.54.01,1.07.05,1.61.63,9.81,7,18.26,17.49,23.17,7.46,3.49,16.82,5.08,26.36,4.46s18.63-3.38,25.57-7.79c9.77-6.21,15.02-15.4,14.39-25.21-.03-.54-.09-1.07-.16-1.6,0-.43,0-.86-.03-1.29l-40.07-624.83Zm-26.98,629.13c2.02-6.55,12.05-12.02,24.42-12.81,12.38-.79,23.02,3.35,25.86,9.59l-50.28,3.22Zm10.76-628.09l38.69,603.39c-7.41-3.4-16.65-4.94-26.07-4.33-9.42.6-18.39,3.31-25.3,7.63l-38.69-603.39,51.37-3.29Z" fill="#191919"/><ellipse cx="799.02" cy="2861.55" rx="25.74" ry="14.13" transform="translate(-181.48 57) rotate(-3.67)" fill="#fff"/></g><g><path d="m766.95,2362.55c-4.93.32-9.95-.72-14.45-3.16-290.87-157.67-260.91-338.78-259.49-346.41,8.54-66.92,63.2-119.67,129.75-123.93,41.32-2.65,87.32,16.19,117.04,48.8,25.32-36.13,68.53-60.7,109.85-63.34,66.36-4.26,127.16,40.83,144.78,107.27,4.64,15.64,47.95,187.32-213.42,375.74-4.18,3.02-9.07,4.72-14.06,5.04Z" fill="#ff1251"/><path d="m849.64,1874.49c66.36-4.26,127.16,40.83,144.78,107.27,4.64,15.64,47.95,187.32-213.42,375.74-4.18,3.02-9.07,4.72-14.06,5.04-4.93.32-9.95-.72-14.45-3.16-290.87-157.67-260.91-338.78-259.49-346.41,8.54-66.92,63.2-119.67,129.75-123.93,41.32-2.65,87.32,16.19,117.04,48.8,25.32-36.13,68.53-60.7,109.85-63.34m-1.04-16.22c-22.82,1.46-46.33,8.81-67.98,21.24-16.01,9.2-30.41,20.84-42.37,34.19-13.57-11.72-29.34-21.42-46.39-28.5-23.06-9.57-47.31-13.85-70.14-12.39-18.26,1.17-36.02,5.6-52.79,13.16-16.22,7.31-31.04,17.34-44.04,29.8-12.96,12.41-23.67,26.82-31.83,42.81-8.33,16.31-13.75,33.77-16.11,51.91-1.33,7.6-8.4,57.64,21.3,125.91,17.34,39.85,43.97,78.45,79.13,114.73,20.58,21.23,44.37,41.91,70.72,61.47,28.75,21.35,61.28,41.9,96.66,61.08,7.12,3.85,15.15,5.61,23.24,5.09,8.14-.52,15.93-3.32,22.53-8.08,31.82-22.94,60.8-46.84,86.12-71.03,23.25-22.22,43.97-45.2,61.56-68.3,30.24-39.71,52.04-80.65,64.79-121.69,22.38-72.03,10.01-122.32,7.09-132.29-4.8-18.01-12.52-34.88-22.95-50.16-10.2-14.94-22.69-27.95-37.14-38.66-14.48-10.73-30.45-18.8-47.47-23.99-17.54-5.35-35.68-7.46-53.92-6.29h0Z" fill="#191919"/><path d="m994.43,1981.76c-17.62-66.45-78.42-111.53-144.78-107.27-11.83.76-23.82,3.32-35.5,7.43,4.23-.71,8.46-1.22,12.67-1.49,66.36-4.26,127.16,40.83,144.78,107.27,4.59,15.47,46.99,183.56-204.91,369.53-273.6-152.27-253.01-324.41-250.43-340.33,8.99-68.15,63.53-120.63,129.89-124.89,4.21-.27,8.47-.31,12.76-.14-12.11-2.59-24.33-3.59-36.16-2.83-66.36,4.26-120.91,56.73-129.89,124.89-2.61,16.11-23.63,191.91,259.66,345.41,2.4,1.31,4.96,2.21,7.58,2.73-.01,0-.02.02-.04.03,2.28.45,4.6.6,6.9.45.02,0,.05,0,.07,0,.02,0,.05,0,.07,0,2.3-.15,4.58-.59,6.79-1.33-.01,0-.03-.01-.04-.02,2.53-.85,4.95-2.08,7.16-3.68,261.37-188.43,218.06-360.1,213.42-375.74Z" fill="rgba(255,255,255,.14)"/></g></g><g><g><rect x="1081.54" y="2676.74" width="51.48" height="626.12" transform="translate(2681.11 5762.52) rotate(170.74)" fill="#fff"/><path d="m1116.19,3305.53c1.44,8.86,9.8,14.87,18.66,13.43l50.81-8.28c8.86-1.44,14.87-9.8,13.43-18.66l-100.73-617.96c-.07-.43-.16-.85-.26-1.26-.05-.53-.12-1.07-.2-1.6-1.58-9.71-8.75-17.49-19.67-21.35-7.76-2.75-17.23-3.41-26.67-1.88-9.44,1.54-18.21,5.18-24.69,10.25-9.12,7.13-13.45,16.79-11.87,26.49.09.53.19,1.06.31,1.58.04.43.08.85.15,1.28l100.73,617.96Zm-34.41-628.77c-1.37,6.72-10.82,13.14-23.06,15.13-12.24,2-23.23-1.09-26.67-7.03l49.73-8.11Zm50.46,626.16l-97.27-596.76c7.7,2.66,17.05,3.29,26.37,1.78,9.32-1.52,17.98-5.09,24.44-10.06l97.27,596.76-50.81,8.28Z" fill="#191919"/><path d="m1031.04,2682.09c-1.26-7.7,9.1-15.8,23.13-18.08,14.03-2.29,26.42,2.1,27.68,9.8,1.26,7.7-9.1,15.8-23.13,18.08-14.03,2.29-26.42-2.1-27.68-9.8Z" fill="#fff"/></g><g><path d="m1136.96,3171.46c4.88-.79,9.97-.25,14.69,1.74,304.84,128.6,292.66,311.76,291.99,319.5-1.99,67.43-51.25,125.25-117.06,135.98-40.86,6.66-88.48-7.61-121.24-37.17-21.68,38.43-62.29,67.08-103.16,73.74-65.63,10.7-130.53-28.25-154.54-92.66-6.14-15.11-65.96-181.76,175.81-394.74,3.87-3.41,8.57-5.58,13.5-6.38Z" fill="#ff1251"/><path d="m1102.19,3665.25c-65.63,10.7-130.53-28.25-154.54-92.66-6.14-15.11-65.96-181.76,175.81-394.74,3.87-3.41,8.57-5.58,13.5-6.38,4.88-.79,9.97-.25,14.69,1.74,304.84,128.6,292.66,311.76,291.99,319.5-1.99,67.43-51.25,125.25-117.06,135.98-40.86,6.66-88.48-7.61-121.24-37.17-21.68,38.43-62.29,67.08-103.16,73.74m2.62,16.04c22.57-3.68,45.25-13.28,65.59-27.76,15.04-10.71,28.24-23.7,38.84-38.16,14.65,10.34,31.28,18.46,48.95,23.85,23.88,7.28,48.44,9.18,71.01,5.5,18.06-2.94,35.31-9.08,51.25-18.24,15.43-8.86,29.2-20.28,40.93-33.95,11.69-13.62,20.94-28.99,27.51-45.71,6.7-17.04,10.39-34.95,10.98-53.23.58-7.7,2.75-58.18-33.46-123.23-21.14-37.98-51.4-73.8-89.93-106.48-22.55-19.12-48.24-37.39-76.37-54.29-30.7-18.45-65.06-35.73-102.15-51.38-7.47-3.14-15.63-4.11-23.62-2.8-8.05,1.31-15.53,4.85-21.64,10.24-29.44,25.93-55.95,52.54-78.79,79.08-20.98,24.38-39.36,49.27-54.62,73.98-26.23,42.46-43.94,85.33-52.63,127.42-15.26,73.87,1.95,122.71,5.83,132.35,6.53,17.45,15.86,33.5,27.73,47.69,11.6,13.88,25.31,25.61,40.73,34.85,15.46,9.27,32.14,15.75,49.58,19.25,17.98,3.61,36.24,3.95,54.28,1.01h0Z" fill="#191919"/><path d="m947.65,3572.59c24.01,64.41,88.91,103.36,154.54,92.66,11.7-1.91,23.39-5.62,34.61-10.85-4.14,1.12-8.3,2.03-12.47,2.71-65.63,10.7-130.53-28.25-154.54-92.66-6.08-14.95-64.65-178.11,167.95-387.73,287.12,124.91,283.4,298.22,282.38,314.33-2.31,68.7-51.48,126.24-117.12,136.94-4.17.68-8.4,1.14-12.68,1.39,12.3,1.39,24.56,1.21,36.27-.7,65.63-10.7,114.81-68.24,117.12-136.94,1.03-16.28,4.83-193.3-292.07-318.48-2.52-1.06-5.15-1.72-7.81-1.98.01,0,.02-.02.03-.03-2.31-.22-4.64-.15-6.91.22-.02,0-.05,0-.07.01-.02,0-.05,0-.07.01-2.28.37-4.5,1.04-6.63,1.98.01,0,.03.01.04.02-2.43,1.09-4.72,2.55-6.77,4.36-241.77,212.98-181.96,379.63-175.81,394.74Z" fill="rgba(255,255,255,.14)"/></g></g><g><polygon points="4998.15 3198.03 4768.1 3232.47 4775.72 3283.38 4998.15 3250.08 4998.15 3198.03" fill="#fff"/><path d="m4998.15,3250.08l-222.43,33.3-7.62-50.91,230.05-34.44v-16.44l-232.45,34.8c-8.88,1.33-15,9.61-13.67,18.48l7.62,50.91c1.33,8.88,9.6,15,18.48,13.67l220.02-32.94v-16.44Z" fill="#191919"/><g><path d="m4899.49,3238.9c.73,4.89.12,9.97-1.93,14.67-132.54,303.15-315.53,288.6-323.25,287.83-67.4-2.86-124.58-52.87-134.45-118.81-6.13-40.95,8.76-88.37,38.73-120.74-38.14-22.17-66.27-63.16-72.4-104.1-9.85-65.76,29.94-130.16,94.66-153.33,15.19-5.95,182.6-63.6,392.43,180.91,3.36,3.91,5.47,8.64,6.21,13.58Z" fill="#ff1251"/><path d="m4406.19,3197.73c-9.85-65.76,29.94-130.16,94.66-153.33,15.19-5.95,182.6-63.6,392.43,180.91,3.36,3.91,5.47,8.64,6.21,13.58.73,4.89.12,9.97-1.93,14.67-132.54,303.15-315.53,288.6-323.25,287.83-67.4-2.86-124.58-52.87-134.45-118.81-6.13-40.95,8.76-88.37,38.73-120.74-38.14-22.17-66.27-63.16-72.4-104.1m-16.08,2.41c3.39,22.62,12.69,45.42,26.91,65.94,10.52,15.18,23.33,28.54,37.65,39.33-10.53,14.51-18.87,31.04-24.48,48.64-7.58,23.79-9.8,48.31-6.42,70.93,2.71,18.1,8.62,35.42,17.57,51.49,8.66,15.55,19.9,29.46,33.41,41.37,13.46,11.86,28.72,21.32,45.35,28.1,16.95,6.92,34.81,10.85,53.09,11.67,7.69.68,58.14,3.51,123.66-31.86,38.25-20.65,74.46-50.44,107.63-88.54,19.41-22.3,38.01-47.76,55.27-75.66,18.84-30.45,36.57-64.6,52.7-101.48,3.24-7.42,4.31-15.57,3.11-23.59-1.21-8.07-4.65-15.59-9.96-21.77-25.55-29.77-51.81-56.62-78.05-79.81-24.1-21.29-48.75-39.99-73.26-55.57-42.12-26.78-84.76-45.04-126.73-54.28-73.66-16.22-122.72.36-132.42,4.12-17.54,6.31-33.7,15.42-48.05,27.1-14.03,11.42-25.93,24.97-35.38,40.27-9.47,15.34-16.16,31.93-19.89,49.32-3.85,17.93-4.42,36.18-1.72,54.26h0Z" fill="#191919"/><path d="m4500.85,3044.4c-64.72,23.17-104.5,87.56-94.66,153.33,1.76,11.73,5.32,23.46,10.4,34.75-1.07-4.15-1.93-8.33-2.55-12.5-9.85-65.76,29.94-130.16,94.66-153.33,15.02-5.88,178.93-62.33,385.52,172.96-128.62,285.48-301.87,279.51-317.96,278.29-68.67-3.2-125.57-53.12-135.41-118.88-.62-4.17-1.03-8.42-1.22-12.7-1.55,12.28-1.52,24.54.23,36.27,9.85,65.76,66.74,115.68,135.41,118.88,16.27,1.24,193.22,7.33,322.24-287.91,1.1-2.51,1.79-5.13,2.08-7.78,0,.01.02.02.03.03.25-2.31.21-4.63-.13-6.92,0-.02,0-.05-.01-.07,0-.02,0-.05,0-.07-.34-2.28-.98-4.52-1.9-6.65,0,.01-.01.03-.02.04-1.06-2.45-2.49-4.75-4.27-6.83-209.83-244.51-377.24-186.86-392.43-180.91Z" fill="rgba(255,255,255,.14)"/></g></g><g><polygon points="0 3249.8 394.94 3190.67 387.32 3139.76 0 3197.75 0 3249.8" fill="#fff"/><path d="m424.04,3160.29c-1.42-9.46-4.94-18.27-9.93-24.82-7.01-9.21-16.61-13.66-26.34-12.21-.53.08-1.06.18-1.58.29-.43.03-.85.07-1.28.14L0,3181.31v16.44l366.07-54.81c-2.76,7.67-3.51,17.01-2.12,26.34,1.4,9.34,4.85,18.04,9.74,24.57L0,3249.8v16.44l397.35-59.49c.43-.06.85-.15,1.27-.25.53-.04,1.07-.1,1.6-.18,9.72-1.46,17.6-8.52,21.61-19.39,2.85-7.72,3.64-17.19,2.22-26.64Zm-44.02,6.59c-1.84-12.27,1.39-23.22,7.37-26.58l7.46,49.83c-6.7-1.46-13-10.99-14.83-23.25Z" fill="#191919"/><ellipse cx="394" cy="3164.78" rx="14.13" ry="25.74" transform="translate(-464.27 93.23) rotate(-8.52)" fill="#fff"/></g><g><path d="m3801.03,0h-17.94c39.55,81.97,26.3,141.08,25.26,145.34-12.28,66.34-69.81,115.94-136.49,116.47-41.4.33-86.27-21.06-114.12-55.28-27.3,34.66-71.82,56.76-113.23,57.09-66.49.53-124.68-47.89-138.54-115.22-2.11-8.92-13.66-67.77,24.87-148.41h-17.9c-3.03,6.72-5.83,13.46-8.36,20.23-26.39,70.66-16.85,121.56-14.49,131.69,3.78,18.25,10.55,35.53,20.1,51.37,9.34,15.49,21.09,29.18,34.91,40.68,13.86,11.53,29.35,20.48,46.05,26.61,17.21,6.32,35.21,9.45,53.48,9.31,22.87-.18,46.75-6.2,69.06-17.4,16.5-8.29,31.53-19.1,44.22-31.76,12.89,12.46,28.09,23.03,44.72,31.06,22.49,10.84,46.46,16.48,69.33,16.3,18.3-.15,36.28-3.57,53.44-10.18,16.61-6.39,31.96-15.57,45.64-27.28,13.63-11.67,25.13-25.45,34.18-40.96,9.23-15.82,15.62-32.95,19-50.93,1.76-7.52,11.62-57.08-14.21-126.9-2.7-7.3-5.71-14.57-9.01-21.82Z" fill="#191919"/><path d="m3330.83,0c-38.53,80.64-26.98,139.48-24.87,148.41,13.87,67.33,72.05,115.75,138.54,115.22,41.4-.33,85.92-22.43,113.23-57.09,27.85,34.22,72.72,55.61,114.12,55.28,66.68-.53,124.21-50.13,136.49-116.47,1.05-4.26,14.29-63.38-25.26-145.34h-452.25Z" fill="#ff1251"/><g><path d="m3329.09,143.75c-2.07-8.75-13.21-65.51,22.69-143.75h-20.96c-38.53,80.64-26.98,139.48-24.87,148.41,13.87,67.33,72.05,115.75,138.54,115.22,11.86-.09,23.97-1.98,35.86-5.43-4.26.48-8.52.74-12.74.77-66.49.53-124.68-47.89-138.54-115.22Z" fill="rgba(255,255,255,.14)"/><path d="m3761.91,0c35.33,75.99,25.35,131.45,23.45,140.11-12.79,67.54-70.19,116.88-136.69,117.41-4.22.03-8.48-.16-12.75-.57,11.95,3.26,24.09,4.95,35.95,4.86,66.49-.53,123.9-49.87,136.69-117.41,1.94-8.82,12.26-66.22-25.47-144.4h-21.18Z" fill="rgba(255,255,255,.14)"/></g></g><g><g><rect x="858.5" y="129.68" width="51.48" height="626.12" transform="translate(-63.36 160) rotate(-9.98)" fill="#fff"/><path d="m871.33,127.14c-1.56-8.84-9.99-14.75-18.83-13.19l-50.7,8.92c-8.84,1.56-14.75,9.99-13.19,18.83l108.54,616.64c.08.43.17.85.28,1.26.06.53.13,1.06.22,1.6,1.7,9.68,8.97,17.38,19.93,21.1,7.79,2.65,17.27,3.2,26.69,1.54,9.42-1.66,18.14-5.41,24.56-10.56,9.03-7.25,13.23-16.96,11.53-26.64-.09-.53-.21-1.06-.33-1.58-.04-.43-.09-.85-.17-1.28l-108.54-616.64Zm42.37,628.29c1.29-6.74,10.65-13.27,22.87-15.42,12.22-2.15,23.25.8,26.76,6.69l-49.62,8.74Zm-58.38-625.47l104.82,595.48c-7.74-2.56-17.09-3.08-26.39-1.44-9.3,1.64-17.91,5.32-24.31,10.37l-104.82-595.48,50.7-8.92Z" fill="#191919"/><ellipse cx="939.02" cy="753.91" rx="25.74" ry="14.13" transform="translate(-116.48 174.21) rotate(-9.98)" fill="#fff"/></g><path d="m549.42,0c19.01,65.65,82.03,176.03,288.13,259.91,4.74,1.93,9.85,2.41,14.71,1.55,4.92-.87,9.59-3.1,13.42-6.56,109.13-98.61,155.53-186.77,173.14-254.91h-489.4Z" fill="#ff1251"/><path d="m1038.81,0c-17.61,68.13-64.01,156.29-173.14,254.91-3.82,3.46-8.5,5.69-13.42,6.56-4.87.86-9.97.37-14.71-1.55C631.45,176.03,568.42,65.65,549.42,0h-16.87c5.1,18.96,13.62,41.57,27.76,66.24,21.62,37.7,52.33,73.14,91.27,105.33,22.79,18.84,48.71,36.77,77.05,53.32,30.93,18.06,65.51,34.91,102.79,50.08,7.5,3.04,15.68,3.91,23.66,2.5,8.03-1.41,15.47-5.05,21.51-10.51,29.11-26.3,55.28-53.24,77.78-80.07,20.67-24.64,38.73-49.76,53.68-74.66,22.48-37.45,38.43-75.12,47.54-112.23h-16.77Z" fill="#191919"/><path d="m1018.83,0c-15.53,67.62-59.43,156.39-167.42,256.22C652.65,172.73,591.47,64.56,572.9,0h-23.48c19,65.65,82.03,176.02,288.13,259.86,2.53,1.03,5.17,1.65,7.83,1.88-.01.01-.02.02-.03.03,2.31.19,4.64.09,6.91-.31.02,0,.05,0,.07-.01.02,0,.05,0,.07-.01,2.27-.4,4.49-1.1,6.6-2.07-.01,0-.03-.01-.04-.02,2.42-1.12,4.69-2.61,6.72-4.44,109.13-98.61,155.53-186.77,173.14-254.91h-19.98Z" fill="rgba(255,255,255,.14)"/></g><g><path d="m4901.98,0l-273.55,444.7-43.85-26.97L4841.54,0h-19.09l-251.72,409.21c-4.7,7.65-2.32,17.66,5.33,22.36l43.85,26.97c7.65,4.7,17.66,2.32,22.36-5.33L4921.06,0h-19.09Z" fill="#191919"/><polygon points="4841.54 0 4584.58 417.72 4628.43 444.7 4901.98 0 4841.54 0" fill="#fff"/><g><path d="m4674.15,321.38c4.21,2.59,7.7,6.33,9.97,10.92,146.45,296.68,17.43,427.25,11.86,432.66-45.61,49.71-120.7,61.21-177.49,26.28-35.27-21.69-61.94-63.64-67.39-107.42-41.53,14.88-91,9.99-126.26-11.71-56.64-34.84-80.25-106.75-56.27-171.18,5.24-15.45,69.01-180.62,391.2-183.56,5.16-.05,10.13,1.39,14.39,4Z" fill="#ff1251"/><path d="m4324.84,672.12c-56.64-34.84-80.25-106.75-56.27-171.18,5.24-15.45,69.01-180.62,391.2-183.56,5.16-.05,10.13,1.39,14.39,4,4.21,2.59,7.7,6.33,9.97,10.92,146.45,296.68,17.42,427.25,11.86,432.66-45.61,49.71-120.7,61.21-177.49,26.28-35.27-21.69-61.94-63.64-67.39-107.42-41.53,14.88-91,9.99-126.26-11.71m-8.52,13.85c19.48,11.98,42.92,19.56,67.77,21.91,18.39,1.74,36.86.54,54.34-3.45,4.32,17.4,11.58,34.43,21.42,50.06,13.3,21.12,30.63,38.62,50.11,50.61,15.59,9.59,32.64,16.23,50.7,19.73,17.47,3.39,35.36,3.76,53.17,1.1,17.75-2.65,34.81-8.23,50.71-16.57,16.22-8.51,30.72-19.64,43.13-33.08,5.48-5.44,40.14-42.21,55.3-115.1,8.85-42.55,9.4-89.44,1.63-139.36-4.55-29.22-12.03-59.84-22.25-91.02-11.15-34.03-25.84-69.59-43.66-105.68-3.59-7.26-9.13-13.33-16.03-17.57-6.95-4.27-14.92-6.49-23.06-6.41-39.23.36-76.69,3.14-111.32,8.27-31.82,4.71-62,11.52-89.7,20.22-47.61,14.96-89.05,35.8-123.16,61.95-59.86,45.89-78.79,94.09-82.17,103.92-6.48,17.48-9.92,35.71-10.23,54.21-.3,18.09,2.39,35.92,8,53,5.63,17.12,14.01,32.93,24.9,46.99,11.23,14.49,24.82,26.7,40.39,36.27h0Z" fill="#191919"/><path d="m4268.56,500.94c-23.98,64.42-.36,136.34,56.27,171.18,10.1,6.21,21.37,11.05,33.28,14.43-3.87-1.86-7.61-3.89-11.2-6.1-56.64-34.84-80.25-106.75-56.27-171.18,5.18-15.28,67.61-177.01,380.67-183.4,135.46,282.3,19.27,410.95,7.97,422.47-46.69,50.46-121.52,61.81-178.16,26.97-3.59-2.21-7.1-4.64-10.5-7.25,8.39,9.1,17.79,16.98,27.89,23.19,56.64,34.84,131.47,23.49,178.16-26.97,11.43-11.64,130.1-143.04-12.58-431.94-1.21-2.45-2.77-4.67-4.61-6.61.01,0,.03,0,.04,0-1.6-1.68-3.41-3.15-5.37-4.35-.02-.01-.04-.02-.06-.04-.02-.01-.04-.03-.06-.04-1.96-1.21-4.09-2.16-6.31-2.83,0,.01.01.03.02.04-2.55-.76-5.24-1.16-7.97-1.13-322.19,2.94-385.96,168.11-391.2,183.56Z" fill="rgba(255,255,255,.14)"/></g></g><g><polygon points="2387.96 0 2511.92 290.75 2559.28 270.56 2443.92 0 2387.96 0" fill="#fff"/><path d="m2574.68,265.39c-.14-.4-.28-.81-.45-1.21L2461.59,0h-17.67l106.93,250.8c-8.12-.74-17.34.88-26.03,4.58s-16.24,9.24-21.33,15.61L2387.96,0h-17.67l126.69,297.13c.17.4.36.79.56,1.16.18.5.37,1.01.58,1.5,3.86,9.05,12.68,14.89,24.2,16.03,8.19.81,17.55-.81,26.35-4.56,8.8-3.75,16.44-9.38,21.53-15.86,7.15-9.11,9.04-19.52,5.19-28.56-.21-.5-.44-.98-.68-1.46Zm-62.26,25.14c-.27-6.85,7.36-15.34,18.77-20.21,11.41-4.86,22.82-4.5,27.58.44l-46.35,19.76Z" fill="#191919"/><ellipse cx="2536.74" cy="283.32" rx="25.74" ry="14.13" transform="translate(92.13 1017.63) rotate(-23.09)" fill="#fff"/></g><g><polygon points="5000 4066.35 4570.21 4137.57 4578.62 4188.36 5000 4118.53 5000 4066.35" fill="#fff"/><path d="m5000,4118.53l-400.18,66.31c2.64-7.71,3.25-17.06,1.71-26.37-1.54-9.31-5.14-17.96-10.12-24.41l408.59-67.71v-16.48l-432.45,71.66c-.43.07-.85.16-1.26.27-.53.05-1.06.12-1.6.21-9.7,1.61-17.47,8.8-21.3,19.72-2.73,7.77-3.37,17.24-1.81,26.68,1.56,9.43,5.23,18.19,10.31,24.67,7.16,9.1,16.82,13.4,26.52,11.8.53-.09,1.06-.2,1.58-.32.43-.04.85-.08,1.28-.16l418.72-69.39v-16.48Zm-421.47,69.29l-8.24-49.71c6.72,1.36,13.16,10.78,15.19,23.02,2.03,12.24-1.03,23.24-6.96,26.69Z" fill="#191919"/><ellipse cx="4571.55" cy="4163.44" rx="14.13" ry="25.74" transform="translate(-619.13 803.37) rotate(-9.41)" fill="#fff"/></g><polygon points="4901.98 5000 4956.48 4911.4 4912.63 4884.43 4841.54 5000 4901.98 5000" fill="#fff"/><path d="m4841.54,5000l59.84-97.27c4.09,7.05,10.74,13.65,18.78,18.59,8.04,4.95,16.93,7.91,25.06,8.38l-43.24,70.3h19.09l49.26-80.08c.23-.37.43-.75.63-1.13.31-.44.61-.88.89-1.34,5.15-8.38,4.82-18.95-.91-29.02-4.07-7.16-10.8-13.85-18.95-18.87-8.15-5.01-17.16-7.99-25.38-8.4-11.57-.57-21.15,3.9-26.31,12.28-.28.46-.55.93-.8,1.4-.25.35-.5.7-.72,1.07l-76.33,124.09h19.09Zm71.56-115.29l42.92,26.4c-5.43,4.18-16.78,2.86-27.34-3.64-10.56-6.5-16.86-16.02-15.58-22.76Z" fill="#191919"/><ellipse cx="4936.08" cy="4895.44" rx="14.13" ry="25.74" transform="translate(-1819.87 6534.78) rotate(-58.4)" fill="#fff"/><g><g><rect x="3527.14" y="4283.84" width="51.48" height="626.12" transform="translate(7142.29 9165.34) rotate(179.54)" fill="#fff"/><path d="m3513.38,4910.29c.07,8.98,7.41,16.2,16.39,16.13l51.48-.41c8.98-.07,16.2-7.41,16.13-16.39l-4.99-626.1c0-.43-.03-.86-.07-1.29.03-.53.05-1.07.04-1.61-.08-9.83-5.97-18.62-16.17-24.11-7.25-3.9-16.51-6.01-26.07-5.93-9.56.08-18.79,2.33-25.97,6.35-10.11,5.65-15.86,14.53-15.78,24.37,0,.54.03,1.08.07,1.61-.03.43-.05.86-.05,1.29l4.99,626.1Zm62.2-626.63c-2.39,6.43-12.7,11.33-25.1,11.43-12.4.1-22.79-4.63-25.28-11.02l50.39-.4Zm-45.94,626.5l-4.82-604.61c7.21,3.81,16.35,5.86,25.79,5.79,9.44-.08,18.55-2.28,25.69-6.2l4.82,604.61-51.48.41Z" fill="#191919"/><ellipse cx="3550.36" cy="4280.95" rx="25.74" ry="14.13" transform="translate(-34.02 28.44) rotate(-.46)" fill="#fff"/></g><path d="m3783.09,5000c-30.41-63.02-92.02-139.55-214.41-215.07-4.36-2.68-9.31-4-14.25-3.96-4.99.04-9.97,1.46-14.32,4.24-118.88,75.96-179.26,151.98-209.27,214.79h452.25Z" fill="#ff1251"/><path d="m3330.83,5000c30.01-62.8,90.39-138.83,209.27-214.79,4.34-2.78,9.32-4.2,14.32-4.24,4.94-.04,9.89,1.28,14.25,3.96,122.39,75.51,184.01,152.04,214.41,215.07h17.94c-15.11-33.22-36.42-65.81-63.57-97.17-19.36-22.35-41.96-44.33-67.16-65.33-27.51-22.93-58.83-45.27-93.09-66.4-6.9-4.24-14.82-6.45-22.92-6.38-8.16.07-16.09,2.42-22.95,6.81-33.06,21.12-63.33,43.36-89.96,66.09-24.46,20.88-46.43,42.66-65.3,64.75-26.97,31.58-48.14,64.34-63.15,97.64h17.9Z" fill="#191919"/><path d="m3351.79,5000c28.51-62.12,86.67-137.79,202.6-213.72,119.19,75.38,178.57,151.44,207.52,213.72h21.18c-30.41-63.01-92.04-139.53-214.43-215.01-2.33-1.44-4.83-2.49-7.41-3.15.01,0,.03-.02.04-.02-2.25-.58-4.56-.86-6.87-.84-.02,0-.05,0-.07,0-.02,0-.05,0-.07,0-2.31.02-4.61.34-6.85.95.01,0,.03.02.04.02-2.57.71-5.05,1.8-7.36,3.27-118.88,75.96-179.26,151.98-209.27,214.79h20.96Z" fill="rgba(255,255,255,.14)"/></g><g><polygon points="2443.92 5000 2313.71 4694.61 2266.35 4714.8 2387.96 5000 2443.92 5000" fill="#fff"/><path d="m2370.28,5000h17.67l-121.6-285.2,47.35-20.19,130.21,305.39h17.67l-132.93-311.77c-3.52-8.26-13.07-12.1-21.33-8.58l-47.35,20.19c-8.26,3.52-12.1,13.07-8.58,21.33l118.88,278.82Z" fill="#191919"/></g><g><path d="m2340.55,4823.38c-4.54,1.94-9.62,2.62-14.68,1.83-326.75-51.98-358.72-232.73-359.92-240.41-14.2-65.95,19.81-133.87,81.15-160.03,38.09-16.24,87.73-13.76,126.61,7.1,11.86-42.49,44.45-80.03,82.53-96.27,61.17-26.08,133.5-3.78,172.21,53.02,9.58,13.21,107.51,160.71-76.32,425.33-2.94,4.24-6.99,7.47-11.58,9.43Z" fill="#ff1251"/><path d="m2256.24,4335.61c61.17-26.08,133.5-3.78,172.21,53.02,9.58,13.21,107.51,160.71-76.32,425.33-2.94,4.24-6.99,7.47-11.58,9.43-4.54,1.94-9.62,2.62-14.68,1.83-326.75-51.98-358.72-232.73-359.92-240.41-14.2-65.95,19.81-133.87,81.15-160.03,38.09-16.24,87.73-13.76,126.61,7.1,11.86-42.49,44.45-80.03,82.53-96.27m-6.38-14.95c-21.04,8.97-40.77,23.72-57.05,42.64-12.04,14-21.75,29.77-28.59,46.34-16.7-6.54-34.79-10.45-53.23-11.45-24.93-1.35-49.23,2.67-70.26,11.64-16.83,7.18-32.11,17.26-45.41,29.96-12.87,12.29-23.51,26.68-31.63,42.75-8.09,16.02-13.4,33.16-15.79,50.96-2.43,18.15-1.74,36.42,2.07,54.31,1.27,7.61,11.24,57.15,61.96,111.66,29.61,31.82,67.55,59.37,112.78,81.88,26.47,13.18,55.78,24.77,87.13,34.45,34.22,10.57,71.72,19.14,111.47,25.46,8,1.26,16.16.25,23.61-2.93,7.5-3.2,13.92-8.43,18.56-15.12,22.38-32.22,41.76-64.39,57.59-95.62,14.54-28.69,26.44-57.25,35.35-84.89,15.31-47.5,22.26-93.36,20.64-136.31-2.84-75.37-31.24-118.68-37.31-127.12-10.52-15.39-23.41-28.73-38.32-39.68-14.59-10.7-30.7-18.81-47.88-24.11-17.23-5.31-34.97-7.61-52.74-6.84-18.32.79-36.13,4.83-52.95,11.99h0Z" fill="#191919"/><path d="m2428.46,4388.63c-38.71-56.81-111.05-79.1-172.21-53.02-10.91,4.65-21.36,11.05-31.01,18.81,3.75-2.08,7.58-3.96,11.46-5.62,61.17-26.08,133.5-3.78,172.21,53.02,9.48,13.06,105.36,157.49-70.36,416.64-308.66-52.63-346.49-221.81-349.35-237.69-14.19-67.26,19.8-134.89,80.97-160.97,3.88-1.66,7.89-3.11,11.98-4.38-12.28,1.59-24.14,4.7-35.05,9.35-61.17,26.08-95.16,93.71-80.97,160.97,2.9,16.06,41.53,188.84,359.75,239.4,2.7.43,5.42.44,8.05.06,0,.01-.02.02-.03.04,2.3-.34,4.54-.96,6.66-1.87.02,0,.04-.02.07-.03.02,0,.04-.02.07-.03,2.12-.9,4.13-2.09,5.96-3.51-.01,0-.03,0-.04,0,2.1-1.64,3.97-3.6,5.53-5.85,183.83-264.62,85.9-412.12,76.32-425.33Z" fill="rgba(255,255,255,.14)"/></g><g><path d="m1038.81,5000c20.96-81.12,1.11-133.86-2.34-142.03-24.82-64.11-90.21-102.23-155.7-90.7-40.78,7.18-81.03,36.34-102.22,75.04-33.13-29.14-80.92-42.8-121.7-35.63-65.67,11.56-114.2,70-115.33,137.45-.19,2.54-1.37,23.9,7.88,55.86h489.4Z" fill="#ff1251"/><g><path d="m1014.44,4866.39c3.32,7.89,21.93,57.27,4.39,133.61h19.98c20.96-81.12,1.11-133.86-2.34-142.03-24.82-64.11-90.21-102.23-155.7-90.7-11.68,2.06-23.31,5.92-34.47,11.29,4.13-1.18,8.28-2.14,12.43-2.87,65.49-11.53,130.88,26.59,155.7,90.7Z" fill="rgba(255,255,255,.14)"/><path d="m572.9,5000c-8.4-29.21-8.08-49.49-7.83-54.51,1.44-68.73,49.88-126.89,115.37-138.41,4.16-.73,8.39-1.24,12.67-1.55-12.32-1.24-24.58-.9-36.25,1.16-65.49,11.53-113.93,69.69-115.37,138.41-.25,5.04-.57,25.48,7.94,54.9h23.48Z" fill="rgba(255,255,255,.14)"/></g><path d="m549.42,5000c-9.25-31.96-8.07-53.33-7.88-55.86,1.13-67.45,49.66-125.89,115.33-137.45,40.78-7.18,88.57,6.49,121.7,35.63,21.19-38.7,61.44-67.86,102.22-75.04,65.49-11.53,130.88,26.59,155.7,90.7,3.44,8.17,23.3,60.91,2.34,142.03h16.77c1.3-5.29,2.46-10.58,3.48-15.85,14.33-74.06-3.51-122.68-7.51-132.27-6.75-17.37-16.28-33.29-28.33-47.34-11.78-13.73-25.63-25.29-41.16-34.34-15.57-9.07-32.33-15.34-49.82-18.62-18.02-3.38-36.29-3.49-54.29-.33-22.53,3.96-45.08,13.85-65.23,28.59-14.91,10.9-27.93,24.06-38.36,38.65-14.78-10.15-31.52-18.07-49.25-23.22-23.97-6.97-48.55-8.56-71.07-4.6-18.02,3.17-35.19,9.53-51.02,18.88-15.32,9.05-28.94,20.65-40.5,34.46-11.51,13.76-20.57,29.26-26.93,46.05-6.48,17.12-9.95,35.08-10.31,53.37-.3,4.76-1,25.88,7.26,56.56h16.87Z" fill="#191919"/></g><g><g><path d="m212.36,4083.34l-8.42-50.79c-1.47-8.86-9.84-14.85-18.69-13.38L0,4049.88v16.48l187.9-31.14,8.42,50.79L0,4118.53v16.48l198.98-32.97c8.86-1.47,14.85-9.84,13.38-18.7Z" fill="#191919"/><polygon points="0 4118.53 196.32 4086 187.9 4035.22 0 4066.35 0 4118.53" fill="#fff"/></g><g><path d="m64.85,4081.63c-.81-4.87-.27-9.97,1.7-14.69,127.79-305.18,310.99-293.49,318.72-292.83,67.44,1.81,125.39,50.92,136.29,116.7,6.77,40.85-7.38,88.5-36.85,121.33,38.48,21.58,67.24,62.12,74.01,102.96,10.87,65.6-27.9,130.61-92.25,154.78-15.1,6.18-181.58,66.44-395.2-174.77-3.42-3.86-5.6-8.56-6.42-13.48Z" fill="#ff1251"/><path d="m558.73,4115.09c10.87,65.6-27.9,130.61-92.25,154.78-15.1,6.18-181.58,66.44-395.2-174.77-3.42-3.86-5.6-8.56-6.42-13.48-.81-4.87-.27-9.97,1.7-14.69,127.79-305.18,310.99-293.49,318.72-292.83,67.44,1.81,125.39,50.92,136.29,116.7,6.77,40.85-7.38,88.5-36.85,121.33,38.48,21.58,67.24,62.12,74.01,102.96m16.04-2.66c-3.74-22.56-13.4-45.22-27.93-65.52-10.75-15.01-23.78-28.17-38.26-38.74,10.3-14.68,18.38-31.33,23.72-49.01,7.21-23.9,9.05-48.46,5.31-71.02-2.99-18.05-9.17-35.28-18.37-51.21-8.9-15.41-20.36-29.15-34.05-40.84-13.65-11.65-29.05-20.87-45.78-27.39-17.06-6.66-34.98-10.3-53.26-10.84-7.7-.56-58.19-2.6-123.14,33.79-37.92,21.24-73.66,51.59-106.24,90.21-19.06,22.6-37.26,48.34-54.09,76.51-18.37,30.74-35.56,65.16-51.11,102.29-3.12,7.47-4.07,15.64-2.74,23.63,1.33,8.05,4.89,15.52,10.3,21.61,26.01,29.37,52.69,55.81,79.28,78.58,24.43,20.92,49.37,39.23,74.12,54.43,42.53,26.12,85.45,43.71,127.56,52.3,73.91,15.07,122.7-2.27,132.34-6.18,17.44-6.58,33.46-15.95,47.62-27.85,13.85-11.64,25.54-25.37,34.75-40.82,9.23-15.48,15.66-32.18,19.12-49.63,3.57-17.99,3.86-36.25.87-54.28h0Z" fill="#191919"/><path d="m466.47,4269.88c64.35-24.18,103.13-89.18,92.25-154.78-1.94-11.7-5.68-23.37-10.94-34.58,1.13,4.14,2.06,8.3,2.75,12.46,10.87,65.6-27.9,130.61-92.25,154.78-14.93,6.12-177.94,65.12-388.17-166.93,124.15-287.45,297.48-284.19,313.58-283.21,68.71,2.13,126.38,51.15,137.25,116.75.69,4.16,1.16,8.4,1.42,12.68,1.36-12.31,1.14-24.57-.8-36.26-10.87-65.6-68.54-114.63-137.25-116.75-16.29-.98-193.31-4.32-317.71,292.9-1.06,2.52-1.71,5.16-1.96,7.81-.01-.01-.02-.02-.03-.03-.22,2.31-.14,4.64.24,6.91,0,.02,0,.05.01.07,0,.02,0,.05.01.07.38,2.28,1.05,4.5,2,6.62,0-.01.01-.03.02-.04,1.1,2.43,2.56,4.71,4.38,6.76,213.62,241.21,380.11,180.95,395.2,174.77Z" fill="rgba(255,255,255,.14)"/></g></g><g><path d="m177.3,2279.58c5.38,5.65,1.4,18.18-8.89,27.98-10.29,9.81-23,13.18-28.38,7.53s-1.4-18.18,8.89-27.98c10.29-9.81,23-13.18,28.38-7.53Z" fill="#fff"/><path d="m0,2093.52v74.62l138.03,144.85.4-.38c-2.66-6.32,1.51-16.95,10.49-25.5,8.98-8.56,19.79-12.21,25.98-9.25l.4-.38L0,2093.52Z" fill="#fff"/><path d="m189.07,2268.36c-.37-.39-.76-.77-1.15-1.13-.27-.33-.55-.66-.85-.97L0,2069.96v23.56l160.48,168.4c-7.86,2.15-15.93,6.9-22.77,13.42-6.83,6.51-11.97,14.35-14.5,22.1L0,2168.14v23.56l126.27,132.5c.3.31.61.61.93.9.34.41.7.81,1.07,1.2,6.78,7.12,17.09,9.5,28.29,6.53,7.96-2.11,16.15-6.91,23.07-13.5,6.92-6.6,12.11-14.55,14.6-22.4,3.51-11.04,1.63-21.45-5.16-28.57Zm-20.66,39.2c-10.29,9.81-23,13.18-28.38,7.53-.69-.72-1.22-1.55-1.6-2.48h0c-.17-.41-.31-.84-.43-1.29-.04-.17-.07-.34-.1-.51-.06-.3-.12-.61-.16-.93-.02-.21-.03-.42-.05-.64-.02-.3-.04-.59-.04-.9,0-.23,0-.46.02-.7.01-.31.04-.61.07-.93.03-.24.05-.48.09-.73.05-.33.11-.65.18-.99.05-.24.09-.48.15-.73.09-.36.19-.73.3-1.1.07-.22.12-.44.2-.67.16-.49.34-.98.53-1.48.04-.11.08-.22.12-.33.24-.6.52-1.21.81-1.82.1-.2.21-.41.32-.61.21-.42.43-.83.66-1.25.14-.24.28-.48.43-.73.23-.38.46-.76.7-1.15.16-.25.33-.51.5-.76.25-.38.52-.75.79-1.12.18-.25.37-.5.56-.75.29-.38.59-.76.9-1.14.19-.24.38-.47.58-.71.35-.41.71-.81,1.08-1.22.18-.2.35-.4.54-.59.56-.59,1.14-1.18,1.75-1.76s1.22-1.13,1.84-1.66c.2-.18.41-.34.62-.51.42-.35.84-.69,1.27-1.02.24-.19.49-.37.74-.55.39-.29.78-.57,1.18-.84.26-.18.52-.35.78-.52.39-.25.77-.5,1.16-.73.26-.16.52-.31.78-.46.39-.23.79-.44,1.18-.65.25-.13.5-.27.75-.39.43-.22.86-.41,1.28-.6.21-.09.42-.2.62-.28.63-.27,1.25-.51,1.86-.73.11-.04.21-.06.32-.1.51-.17,1.01-.33,1.51-.47.23-.06.45-.11.67-.16.37-.09.75-.18,1.11-.25.25-.05.49-.08.73-.12.34-.05.67-.1,1-.13.25-.02.49-.04.73-.06.32-.02.63-.03.93-.02.23,0,.47,0,.7.01.31.02.6.05.9.08.21.02.43.04.63.08.32.05.62.13.92.21.17.04.34.08.51.13.44.14.87.3,1.27.49h0c.9.43,1.71,1,2.4,1.72,5.38,5.65,1.4,18.18-8.89,27.98Z" fill="#191919"/></g></g></svg>