<?xml version="1.0" encoding="utf-8"?>
<!-- Generator: Adobe Illustrator 24.0.0, SVG Export Plug-In . SVG Version: 6.00 Build 0)  -->
<svg version="1.1" id="Layer_1" xmlns="http://www.w3.org/2000/svg" xmlns:xlink="http://www.w3.org/1999/xlink" x="0px" y="0px"
	 viewBox="0 0 2160 2160" style="enable-background:new 0 0 2160 2160;" xml:space="preserve">
<style type="text/css">
	.st0{fill:#FFFFFF;}
	.st1{fill:#222222;}
	.st2{fill:url(#SVGID_1_);}
	.st3{fill:url(#SVGID_2_);}
	.st4{fill:url(#SVGID_3_);}
	.st5{fill:url(#SVGID_4_);}
	.st6{fill:url(#SVGID_5_);}
	.st7{fill:url(#SVGID_6_);}
	.st8{fill:url(#SVGID_7_);}
	.st9{fill:url(#SVGID_8_);}
	.st10{fill:url(#SVGID_9_);}
	.st11{fill:url(#SVGID_10_);}
	.st12{fill:url(#SVGID_11_);}
	.st13{fill:url(#SVGID_12_);}
	.st14{fill:url(#SVGID_13_);}
	.st15{fill:url(#SVGID_14_);}
	.st16{fill:url(#SVGID_15_);}
	.st17{fill:url(#SVGID_16_);}
	.st18{fill:url(#SVGID_17_);}
	.st19{fill:url(#SVGID_18_);}
	.st20{opacity:0.6;}
	.st21{fill:url(#SVGID_19_);}
	.st22{fill:url(#SVGID_20_);}
	.st23{fill:url(#SVGID_21_);}
	.st24{fill:url(#SVGID_22_);}
	.st25{fill:url(#SVGID_23_);}
	.st26{fill:url(#SVGID_24_);}
	.st27{fill:url(#SVGID_25_);}
	.st28{fill:url(#SVGID_26_);}
	.st29{fill:url(#SVGID_27_);}
	.st30{fill:url(#SVGID_28_);}
	.st31{fill:url(#SVGID_29_);}
	.st32{fill:url(#SVGID_30_);}
	.st33{fill:url(#SVGID_31_);}
	.st34{fill:url(#SVGID_32_);}
</style>
<rect class="st0" width="2160" height="2160"/>
<g>
	<g>
		<path class="st1" d="M729.66,1007.83c7.87,6.31,51.5-47.58,98.77-36c32.33,20.45,32.8-20.26,131.2,16.4
			c98.4,36.66,187.16,121.56,253.43,236.49c-43.42-99.26-93.66-205.13-158.53-309.07c-35.89-68.36-23.93-80.33-25.64-119.63
			c-1.71-39.31,13.67-47.85,35.89-82.03c22.22-34.18,20.51-35.89,41.02-66.65c20.51-30.76,23.93-20.51,46.14-42.73
			c22.22-22.22,17.09-10.25,39.31-22.22c22.22-11.96,18.8-23.93,41.02-41.02c19.94-15.33,38.49-41.65,55.68-60.48
			c-16.35-61.97-73.26-236.36-196.12-236.36c-63.54,0-80.21,12.58-91.21,28.31c-11.01,15.73-53.47,11.01-58.19,29.88
			c-4.72,18.87-7.86,26.73-28.31,42.46c-20.44,15.73-39.32,23.59-44.03,40.89c-4.72,17.3-29.88,48.75-36.17,66.05
			c-6.29,17.3,3.15,44.03-18.87,66.05c-22.02,22.02-11.01,17.3-23.59,39.32c-12.58,22.02-23.59,22.02-33.03,56.61
			c-9.44,34.6-37.74,56.62-62.91,86.5c-25.16,29.88-23.59,40.89-28.31,66.05c-4.72,25.16-11.01,53.47-20.44,70.77
			C638.14,853.23,646.63,941.18,729.66,1007.83z"/>
		<path class="st1" d="M1540.5,1572.14c-35.49,0-32.22,36.14-47.7,36.14s-118.74,3.44-185.86,66.26
			c-42.16,36.14-37.86,33.56-67.12,43.02c-29.26,9.47-192.75,64.54-240.93,86.05c-48.19,21.51-135.09,63.67-135.09,87.77
			c0,24.09,23.23,24.09,35.28,24.09c12.05,0,144.56-43.02,250.4-99.81c105.84-56.79,125.63-67.98,149.72-66.26
			c24.09,1.72,135.95,15.49,171.23-35.28c21.51-32.7,42.16-68.84,61.09-68.84s44.74-16.23,44.74-38.6
			C1576.26,1581.77,1559.92,1572.14,1540.5,1572.14z"/>
		<path class="st1" d="M1540.5,1572.14c-35.49,0-32.22,36.14-47.7,36.14s-118.74,3.44-185.86,66.26
			c-42.16,36.14-37.86,33.56-67.12,43.02c-29.26,9.47-192.75,64.54-240.93,86.05c-48.19,21.51-135.09,63.67-135.09,87.77
			c0,24.09,23.23,24.09,35.28,24.09c12.05,0,144.56-43.02,250.4-99.81c105.84-56.79,125.63-67.98,149.72-66.26
			c24.09,1.72,135.95,15.49,171.23-35.28c21.51-32.7,42.16-68.84,61.09-68.84s44.74-16.23,44.74-38.6
			C1576.26,1581.77,1559.92,1572.14,1540.5,1572.14z"/>
		<path class="st1" d="M1535.51,1585.96c0,0,50.02-91.41,165.54-143.25c24.56-10.91,50.63-27.55,50.63-27.55
			s34.37-19.11,38.82-10.87c4.45,8.24-26.26,27.36-51.16,34.08c-12.28,3.18-23.41,6.88-36.14,12.34
			c-12.73,5.46-88.75,32.62-162.23,135.25H1535.51z"/>
		<path class="st1" d="M1797.64,1462.78c-11.46,3.9-34.67,19.16-53.06,20.61c-18.39,1.44-111.36,20.46-185.99,96.89l2.52,5.69
			c0,0,65.26-57.61,117.17-75.99c51.92-18.39,77.06-19.11,89.68-19.47c22.97,0,63.78-20.54,63.78-29.91
			C1831.74,1451.21,1809.1,1458.88,1797.64,1462.78z"/>
		<path class="st1" d="M1054.52,915.66c171.15,274.16,240.53,561.94,351.05,705.79c15.62-4.48,30.42-7.44,43.35-9.4
			c95.87-69.05,362.71-322.33,362.71-1002.31c0-375.99-145.27-345.23-160.65-345.23c-15.38,0-41.02,20.51-63.24,20.51
			c-22.22,0-39.31-10.25-59.82,3.42c-20.51,13.67-25.64,13.67-54.69,27.34c-29.05,13.67-35.89,30.76-47.85,42.73
			c-11.96,11.96-20.51,10.25-41.02,32.47c-20.51,22.22-22.22,27.34-39.31,41.02c-17.09,13.67-32.47,23.93-51.27,42.73
			c-18.8,18.8-39.31,49.56-61.53,66.65c-22.22,17.09-18.8,29.05-41.02,41.02c-22.22,11.96-17.09,0-39.31,22.22
			c-22.22,22.22-25.64,11.96-46.14,42.73s-18.8,32.47-41.02,66.65c-22.22,34.18-37.6,42.73-35.89,82.03
			C1030.6,835.33,1018.63,847.3,1054.52,915.66z"/>
		<path class="st1" d="M1048.55,1783.97c67.78-25.19,168.86-59.17,191.27-66.42c29.26-9.46,24.95-6.88,67.12-43.02
			c23.33-21.83,51.01-36.48,77.87-46.31l14.29-15.58c-65.49-89.86-119.75-272.98-186.03-387.92
			c-66.27-114.94-155.03-199.83-253.43-236.49c-98.4-36.66-98.87,4.05-131.2-16.4c-47.27-11.58-90.9,42.32-98.77,36
			c-30.4,6.68-74.25,20.59-85.57,46.62c-17.77,40.89-19.35,51.9-69.67,89.64c-50.32,37.74-61.33,47.18-61.33,91.21
			c0,44.03-47.18,84.92-47.18,138.39c0,53.47,26.73,106.94,22.02,136.82c-4.72,29.88-6.29,64.48,12.58,97.5
			c18.87,33.02,113.23,130.53,176.14,166.7c62.91,36.17,108.51,26.73,204.44,18.87C931.96,1789.43,997.86,1786.14,1048.55,1783.97z"
			/>
		<path class="st1" d="M881.09,1793.6c-95.93,7.86-141.54,17.3-204.44-18.87c-62.91-36.17-157.27-133.68-176.14-166.7
			c-18.87-33.03-17.3-67.62-12.58-97.5c4.72-29.88-22.02-83.35-22.02-136.82c0-53.47,47.18-94.36,47.18-138.39
			c0-44.03,11.01-53.47,61.33-91.21c27.46-20.59,40.39-33.23,49.37-47.1c-18.49-6.78-43.23-12.55-69.82-9.51
			c-55.04,6.29-66.05,42.46-95.93,61.33c-29.88,18.87-59.76,55.04-61.33,88.07c-1.57,33.03-37.74,72.34-61.33,95.93
			c-23.59,23.59,18.87,64.48,20.44,94.36c1.57,29.88-22.02,67.62-1.57,108.51c20.44,40.89,47.18,42.46,51.9,69.2
			c4.72,26.73-4.72,64.48,25.16,88.07c29.88,23.59,64.48,39.32,78.63,59.76c14.15,20.44,45.61,30.27,78.63,48.16
			c33.03,17.89,45.61,47.77,106.94,49.34c48.72,1.25,190.69-15.72,288.81-63.22C948.9,1788.83,912.19,1791.05,881.09,1793.6z"/>
		<linearGradient id="SVGID_1_" gradientUnits="userSpaceOnUse" x1="1161.9099" y1="887.5749" x2="1580.8942" y2="1316.7786">
			<stop  offset="0" style="stop-color:#F89C4D"/>
			<stop  offset="0.6041" style="stop-color:#F37163"/>
			<stop  offset="1" style="stop-color:#F0533F"/>
		</linearGradient>
		<path class="st2" d="M1457.97,1572.14c22.99,8.9,189.63-344.34,189.63-441.05c0-96.71-34.13-188.41-70.16-188.41
			c-36.03,0-79.64,125.84-89.13,233.93C1478.83,1284.69,1431.42,1561.86,1457.97,1572.14z"/>
		<linearGradient id="SVGID_2_" gradientUnits="userSpaceOnUse" x1="1127.0272" y1="921.627" x2="1546.0105" y2="1350.8297">
			<stop  offset="0" style="stop-color:#F89C4D"/>
			<stop  offset="0.6041" style="stop-color:#F37163"/>
			<stop  offset="1" style="stop-color:#F0533F"/>
		</linearGradient>
		<path class="st3" d="M1160.87,729.59c-39.35,0-73.31,70.62-33.64,129.64c39.67,59.02,187.22,395.1,229.84,488.55
			c42.63,93.45,70.5,181.98,73.77,137.71c3.28-44.26,35.85-288.14,4.7-356.31c-8.18-17.91-20.21-54.14-38.61-97.61
			C1345.31,909.6,1256.36,729.59,1160.87,729.59z"/>
		<linearGradient id="SVGID_3_" gradientUnits="userSpaceOnUse" x1="1275.8101" y1="776.3868" x2="1694.7933" y2="1205.5896">
			<stop  offset="0" style="stop-color:#F89C4D"/>
			<stop  offset="0.6041" style="stop-color:#F37163"/>
			<stop  offset="1" style="stop-color:#F0533F"/>
		</linearGradient>
		<path class="st4" d="M1286.29,659.05c-20.95,0-36.88,56.37-10.79,107.88c17.94,35.42,58.42,110.64,88.31,169.29
			c13.57,26.64,50.52,113.67,59.86,138.2c10.59,27.78,21.31,50.43,34.18,50.43c16.09,0,63.59-143.77,46.8-182.17
			c-16.8-38.4-52.82-153.61-105.35-207.46C1346.76,681.37,1307.24,659.05,1286.29,659.05z"/>
		<linearGradient id="SVGID_4_" gradientUnits="userSpaceOnUse" x1="1361.9252" y1="692.3222" x2="1780.9086" y2="1121.5249">
			<stop  offset="0" style="stop-color:#F89C4D"/>
			<stop  offset="0.6041" style="stop-color:#F37163"/>
			<stop  offset="1" style="stop-color:#F0533F"/>
		</linearGradient>
		<path class="st5" d="M1493.59,755.52c-13.65,0-39.03,21.45-26.36,65.31c12.67,43.87,41.81,113.08,53.51,113.08
			c11.7,0,47.77-68.24,33.14-101.38C1539.27,799.39,1514.07,755.52,1493.59,755.52z"/>
		<path class="st0" d="M1071.07,733.09c-8.08,4.92-5.97,23.01,2.8,31.78c8.77,8.77,24.04-4.68,19.17-16.38
			C1088.17,736.79,1079.15,728.17,1071.07,733.09z"/>
		<path class="st0" d="M1120.51,659.05c-8.11,1.96-10.99,13.54-5.99,19.03c4.99,5.49,14.98,1,16.98-3.5
			C1133.49,670.09,1129,656.99,1120.51,659.05z"/>
		<path class="st0" d="M1189.92,586.19c-10.99,6.49-13.48,16.48-8.99,29.96c4.49,13.48,23.47,10.99,28.96,6.49
			c5.49-4.49,18.98-14.98,9.99-30.46C1210.89,576.7,1189.92,586.19,1189.92,586.19z"/>
		<path class="st0" d="M1240.86,546.24c-9.41,8.66-15.98,18.98-5.99,29.96c9.99,10.99,25.97-3.5,31.46-14.98
			S1253.34,534.76,1240.86,546.24z"/>
		<path class="st0" d="M1286.8,580.11c-6.95,5.79-9.49,20.27-3.5,24.66c5.99,4.39,24.97,6.41,31.96-12.33
			C1322.26,573.71,1298.28,570.54,1286.8,580.11z"/>
		<path class="st0" d="M1211.89,643.62c-6.21,2.56-8.49,10.49-3,17.48c5.49,6.99,18.98-1,16.98-8.74
			C1223.88,644.62,1220.38,640.12,1211.89,643.62z"/>
		<path class="st0" d="M1311.26,486.81c-5.98,8.32-6.49,15.48,3,26.97c9.49,11.49,22.72,1.48,29.21-4.01
			c6.49-5.49,10.24-17.96,0.75-27.95C1334.74,471.84,1315.63,480.75,1311.26,486.81z"/>
		<path class="st0" d="M1356.39,449.01c-3.76,9.11-4.71,14.69,1.93,22.11c6.64,7.42,24.99,0.39,25.38-16.01
			C1384.08,438.71,1360.44,439.2,1356.39,449.01z"/>
		<path class="st0" d="M1353.44,533.59c-7.19,7.87-17.78,23.43-6.84,36.31c10.93,12.88,33.41,8.98,39.55,0
			c6.14-8.98,8.49-26.55-2.45-36.31C1372.76,523.83,1358.45,528.1,1353.44,533.59z"/>
		<path class="st0" d="M1403.21,486.35c-3.57,8.96-12.49,26.94,3.12,44.12c15.62,17.18,35.14,11.17,45.68-11.4
			c10.54-22.57-10.93-47.56-23.43-49.51C1416.1,467.6,1405.25,481.24,1403.21,486.35z"/>
		<path class="st0" d="M1437.38,395.86c0,3.72-3.02,6.74-6.74,6.74s-6.74-3.02-6.74-6.74c0-3.72,3.02-6.74,6.74-6.74
			S1437.38,392.14,1437.38,395.86z"/>
		<path class="st0" d="M1498.19,404.25c2.59,4.48,1.58,9.91-2.25,12.12c-3.83,2.21-9.03,0.37-11.62-4.11
			c-2.59-4.48-1.58-9.91,2.25-12.12C1490.4,397.93,1495.6,399.77,1498.19,404.25z"/>
		<path class="st0" d="M1457.88,438.32c-6.59,2.06-9.28,9.23-7.03,17.18c2.25,7.95,17.57,10.93,22.26-0.39
			C1477.79,443.79,1464.12,436.37,1457.88,438.32z"/>
		<path class="st0" d="M1578.53,384.42c-2.32,2.97-7.44,2.86-11.44-0.26c-3.99-3.12-5.35-8.06-3.03-11.03
			c2.32-2.97,7.44-2.86,11.44,0.26C1579.5,376.51,1580.86,381.45,1578.53,384.42z"/>
		<path class="st0" d="M1674.88,289.8c-8.73,1.2-12.11,17.66,3.03,35.32c15.14,17.66,39.36,19.68,47.43,2.52
			C1733.41,310.49,1689.51,287.78,1674.88,289.8z"/>
		<path class="st0" d="M1650.66,351.87c-7.27-3.04-3.53,16.65,5.55,24.22C1665.29,383.66,1672.35,360.95,1650.66,351.87z"/>
		<path class="st0" d="M1715.75,385.17c-6.56,6.56-13.62,20.69,0,30.78c13.62,10.09,33.3-6.56,28.26-23.72
			C1738.96,375.08,1722.31,378.61,1715.75,385.17z"/>
		<path class="st0" d="M1762.17,399.39c4.04,11.01,14.63,6.15,12.61-3.53c-1.63-7.84-6.91-16.93-12.07-14.76
			C1757.77,383.54,1758.14,388.37,1762.17,399.39z"/>
		<path class="st0" d="M1764.19,446.23c1.79,10.13,2.02,21.19,10.85,20.69c8.83-0.5,9.33-9,6.81-17.07
			C1777.81,434.76,1762.4,436.09,1764.19,446.23z"/>
		<path class="st0" d="M1684.21,851.93c-15.35,0-22.48,17-22.48,31.81s6.58,26.32,19.74,26.32s23.35-13.71,23.35-31.81
			C1704.82,860.16,1696.27,851.93,1684.21,851.93z"/>
		<path class="st0" d="M1645.99,851.93c-8.09,0-10.73,11.77-10.05,20.29c0.68,8.52,7.07,8.77,10.05,8.77
			c2.98,0,8.71-3.26,8.71-14.53C1654.7,855.19,1650.57,851.93,1645.99,851.93z"/>
		<path class="st0" d="M1737.24,900.56c-7.51,0-17.83,18.55-23.46,42.12c-5.63,23.57-11.26,64.85-4.07,64.85
			c7.19,0,25.65-28.15,34.41-67.25C1752.88,901.18,1740.41,900.56,1737.24,900.56z"/>
		<path class="st0" d="M1756.64,949.04c-5,0-17.83,10.01-25.02,39.41c-7.19,29.4,6.57,33.47,12.51,20.02
			C1750.07,995.02,1767.27,949.04,1756.64,949.04z"/>
		<path class="st0" d="M1733.92,1069.2c-7.52,0-16.11,14.5-18.8,32.76c-2.69,18.26,7.97,25.59,14.46,11.45
			C1736.07,1099.28,1744.13,1069.2,1733.92,1069.2z"/>
		<path class="st0" d="M675.26,831.22c-11.68,15.95,16.8,34.23,30.49,34.85C719.45,866.69,686.94,815.27,675.26,831.22z"/>
		<path class="st0" d="M715.9,757.14c0,5.83-4.72,10.55-10.55,10.55c-5.83,0-10.55-4.72-10.55-10.55c0-5.83,4.72-10.55,10.55-10.55
			C711.18,746.59,715.9,751.31,715.9,757.14z"/>
		<path class="st0" d="M750.15,653.1c-8.48,0-15.62,8.47-15.62,22.3c0,13.83,12.05,17.85,17.4,17.85c5.35,0,16.51-10.92,16.51-23.53
			C768.45,657.11,756.59,653.1,750.15,653.1z"/>
		<path class="st0" d="M785.4,596.88c-7.58,0-22.31,14.53-16.95,29.35c5.35,14.82,13.83,21.07,24.54,11.7
			C803.69,628.55,802.8,596.88,785.4,596.88z"/>
		<path class="st0" d="M841.17,626.23c-10.26,0-16.51,12.59-16.51,20.62c0,8.03,5.35,19.63,16.51,19.63s18.74-7.68,18.74-20.12
			C859.91,633.91,849.65,626.23,841.17,626.23z"/>
		<path class="st0" d="M842.28,521.48c-14.05,0-21.19,12.05-21.19,24.99s8.92,19.63,21.19,19.63c12.27,0,19.41-8.92,19.41-19.18
			C861.69,536.65,853.33,521.48,842.28,521.48z"/>
		<path class="st0" d="M895.95,572.78c-18.19,0-23.99,15.62-23.99,28.11c0,12.49,9.82,23.2,25.43,23.2
			c15.62,0,23.65-15.17,23.65-25.65C921.03,587.95,914.14,572.78,895.95,572.78z"/>
		<path class="st0" d="M859.91,472.84c-6.55-1.4-16.06,5.8-9.82,23.65c6.25,17.85,17.4,21.86,24.09,20.52
			S893.37,479.98,859.91,472.84z"/>
		<path class="st0" d="M898.72,410.83c-5.53,4-5.35,12.49-2.23,16.06c3.12,3.57,15.17,4.91,16.95-5.8
			C915.23,410.38,902.37,408.19,898.72,410.83z"/>
		<path class="st0" d="M961.63,412.61c-4.07,5.23-5.35,11.43,2.68,16.87c8.03,5.44,14.28-3.25,12.05-9.83
			C974.13,413.06,964.14,409.39,961.63,412.61z"/>
		<path class="st0" d="M961.63,351.78c-4.07,5.23-5.35,11.43,2.68,16.87c8.03,5.44,14.28-3.25,12.05-9.83
			C974.13,352.23,964.14,348.56,961.63,351.78z"/>
		<path class="st0" d="M947.8,461.69c-5.73,2.71-8.03,13.38,0,23.65s17.76,7.14,19.81,0C969.66,478.2,956.28,457.67,947.8,461.69z"
			/>
		<path class="st0" d="M1024.37,367.41c-1.82,4.17,2.22,14.16,11.76,20.51c9.54,6.36,13.37,0.56,10.96-6.28
			C1044.67,374.8,1027.06,361.23,1024.37,367.41z"/>
		<path class="st0" d="M1105.16,340.06c-2.27,3.43,0.06,10.62,8.01,14.36c7.95,3.74,12.31-1.18,11.03-6.15
			C1122.92,343.3,1108.52,334.99,1105.16,340.06z"/>
		<path class="st0" d="M1131.92,259.13c-15.75-2.89-37.33-3.12-30.19,16.06c7.14,19.18,29,37.03,50.42,37.03
			C1173.56,312.23,1163.49,264.93,1131.92,259.13z"/>
		<path class="st0" d="M1183.82,361.3c-8,2.81-15.37,13.38-5.01,25.88c10.36,12.49,25.98,12.31,32.67,3.48
			C1218.18,381.83,1200.33,355.5,1183.82,361.3z"/>
		<path class="st0" d="M1222.89,351.04c-4.01-0.53,1.98,21.86,11.79,23.65C1244.5,376.47,1236.53,352.83,1222.89,351.04z"/>
		<path class="st0" d="M1248.6,406.37c-5.58-0.5-6.77,25.88,3.93,29C1263.24,438.49,1263.4,407.7,1248.6,406.37z"/>
		<path class="st0" d="M921.03,498.2c-13.17-1.02-21.3,27.59-5.11,51.35c16.2,23.75,46.04,30.23,51.9,3.24
			S941.26,499.76,921.03,498.2z"/>
		<linearGradient id="SVGID_5_" gradientUnits="userSpaceOnUse" x1="1237.9155" y1="872.0008" x2="1025.9014" y2="615.9318">
			<stop  offset="0" style="stop-color:#F9AC8D"/>
			<stop  offset="1" style="stop-color:#FFD49E"/>
		</linearGradient>
		<path class="st6" d="M993.49,568.48c-14.6,7.33-13.38,28.61-13.38,48.05c0,19.43,26.99,30.56,48.05,30.56
			c21.05,0,47.71-29.16,24.39-61.98C1029.23,552.29,1008.09,561.16,993.49,568.48z"/>
		<linearGradient id="SVGID_6_" gradientUnits="userSpaceOnUse" x1="725.4951" y1="920.7368" x2="1041.9141" y2="920.7368">
			<stop  offset="0" style="stop-color:#F89C4D"/>
			<stop  offset="0.6041" style="stop-color:#F37163"/>
			<stop  offset="1" style="stop-color:#F0533F"/>
		</linearGradient>
		<path class="st7" d="M812.96,970.26c5.08-0.15,10.25,0.3,15.46,1.57c32.33,20.45,32.8-20.26,131.2,16.4
			c28.33,10.56,55.86,25.13,82.29,43.25c-60.74-77.64-164.84-163.12-192.47-186.76c-32.84-28.1-123.95-68.3-123.95,15.39
			C725.5,906.52,771.75,945.09,812.96,970.26z"/>
		<linearGradient id="SVGID_7_" gradientUnits="userSpaceOnUse" x1="835.6252" y1="947.1569" x2="1191.4561" y2="947.1569">
			<stop  offset="0" style="stop-color:#F89C4D"/>
			<stop  offset="0.6041" style="stop-color:#F37163"/>
			<stop  offset="1" style="stop-color:#F0533F"/>
		</linearGradient>
		<path class="st8" d="M1109.54,1087.91c0.02,0.03,0.04,0.06,0.06,0.09c20.27,20.19,39.58,42.58,57.73,66.96
			c8.12,7.52,16.27,14.65,24.13,21.21c-38.43-84.84-82.53-173.36-136.93-260.51c-26.81-51.07-26.92-70.66-25.97-93.7
			c-38.62-36.43-116.63-103.82-165.34-103.82c-19.07,0-46.61,32.43-8.47,77.13C892.88,839.98,1068.76,1021.19,1109.54,1087.91z"/>
		<linearGradient id="SVGID_8_" gradientUnits="userSpaceOnUse" x1="1344.9735" y1="1590.1514" x2="1394.6576" y2="1590.1514">
			<stop  offset="0" style="stop-color:#F89C4D"/>
			<stop  offset="0.6041" style="stop-color:#F37163"/>
			<stop  offset="1" style="stop-color:#F0533F"/>
		</linearGradient>
		<path class="st9" d="M1361.6,1553.64c-6.67,4.55-16.63,14.33-16.63,32.33c0,27.01,6.05,40.7,27.39,40.7
			c9.52,0,16.96-9.54,22.29-20.11C1383.29,1590.42,1372.33,1572.67,1361.6,1553.64z"/>
		<linearGradient id="SVGID_9_" gradientUnits="userSpaceOnUse" x1="1184.5428" y1="1352.0005" x2="1355.3567" y2="1352.0005">
			<stop  offset="0" style="stop-color:#F89C4D"/>
			<stop  offset="0.6041" style="stop-color:#F37163"/>
			<stop  offset="1" style="stop-color:#F0533F"/>
		</linearGradient>
		<path class="st10" d="M1184.54,1161.04c0.04,1.46,4.42,145.97,21.24,187.82c16.91,42.06,111.8,179.99,127.45,189.77
			c7.5,4.68,15.64,4.87,22.12,3.8C1300.61,1441.83,1251.22,1306.35,1184.54,1161.04z"/>
		<linearGradient id="SVGID_10_" gradientUnits="userSpaceOnUse" x1="981.6609" y1="1206.2505" x2="1158.9967" y2="1206.2505">
			<stop  offset="0" style="stop-color:#F89C4D"/>
			<stop  offset="0.6041" style="stop-color:#F37163"/>
			<stop  offset="1" style="stop-color:#F0533F"/>
		</linearGradient>
		<path class="st11" d="M1157.16,1321.47c10.76,0-27.15-180.97-77.16-213.25c-50.01-32.28-112-13.91-95.67,12.61
			C1000.65,1147.35,1138.57,1321.47,1157.16,1321.47z"/>
		<linearGradient id="SVGID_11_" gradientUnits="userSpaceOnUse" x1="821.9208" y1="1215.9166" x2="1124.459" y2="1215.9166">
			<stop  offset="0" style="stop-color:#F89C4D"/>
			<stop  offset="0.6041" style="stop-color:#F37163"/>
			<stop  offset="1" style="stop-color:#F0533F"/>
		</linearGradient>
		<path class="st12" d="M890.11,1078.88c-26.38,1.24-81.01,13.32-65.45,34.54c14.38,19.61,212.01,206.76,268.11,235.02
			c10.8,6.15,31.67,7.98,31.67-7.26c0.29-6-3.75-14.03-9.26-22.84C1103.56,1299.75,950.76,1078.88,890.11,1078.88z"/>
		<linearGradient id="SVGID_12_" gradientUnits="userSpaceOnUse" x1="701.58" y1="1232.7737" x2="1054.1499" y2="1232.7737">
			<stop  offset="0" style="stop-color:#F89C4D"/>
			<stop  offset="0.6041" style="stop-color:#F37163"/>
			<stop  offset="1" style="stop-color:#F0533F"/>
		</linearGradient>
		<path class="st13" d="M769.76,1119.51c-23.75,0-70.47,44.34-68.09,61.76c2.38,17.42,148.07,110.85,191.61,130.65
			c43.55,19.79,45.92,34.05,94.22,34.05s87.44,2.37,54.41-21.38C1008.88,1300.83,807.77,1119.51,769.76,1119.51z"/>
		<linearGradient id="SVGID_13_" gradientUnits="userSpaceOnUse" x1="636.7401" y1="1310.9817" x2="927.9484" y2="1310.9817">
			<stop  offset="0" style="stop-color:#F89C4D"/>
			<stop  offset="0.6041" style="stop-color:#F37163"/>
			<stop  offset="1" style="stop-color:#F0533F"/>
		</linearGradient>
		<path class="st14" d="M686.62,1231.44c-26.13,0-49.88,25.06-49.88,64.65c0,39.59,31.67,51.31,120.35,69.52
			c88.68,18.21,181.7,37.99,169.83,13.45c-11.88-24.55-37.6-44.34-84.31-73.68S727.8,1231.44,686.62,1231.44z"/>
		<linearGradient id="SVGID_14_" gradientUnits="userSpaceOnUse" x1="624.3814" y1="1446.9093" x2="1017.0995" y2="1446.9093">
			<stop  offset="0" style="stop-color:#F89C4D"/>
			<stop  offset="0.6041" style="stop-color:#F37163"/>
			<stop  offset="1" style="stop-color:#F0533F"/>
		</linearGradient>
		<path class="st15" d="M672.52,1379.06c-30.23,0-53.99,35-46.86,69.05c0,62.55,62.99,66.61,68.53,66.61
			c97.14,0.59,356.19-4.68,319.35-35.73c-33.16-27.71-39.5-54.17-94.92-63.68C863.19,1405.81,732.05,1379.06,672.52,1379.06z"/>
		<linearGradient id="SVGID_15_" gradientUnits="userSpaceOnUse" x1="949.8795" y1="1484.6676" x2="1340.5988" y2="1484.6676">
			<stop  offset="0" style="stop-color:#F89C4D"/>
			<stop  offset="0.6041" style="stop-color:#F37163"/>
			<stop  offset="1" style="stop-color:#F0533F"/>
		</linearGradient>
		<path class="st16" d="M1082.73,1357.61c-35.06-2.99-129.33-8.04-132.7,10.53c-3.36,18.57,48.14,62.33,94.75,98.03
			c20.15,15.43,253.25,148.48,287.11,148.48c10.21,0.62,13.01-7.71-0.21-34.56c-24.63-50.06-126.72-168.56-149.76-190.93
			C1158.88,1366.79,1121.71,1360.93,1082.73,1357.61z"/>
		<linearGradient id="SVGID_16_" gradientUnits="userSpaceOnUse" x1="656.0737" y1="1594.0507" x2="1327.7792" y2="1594.0507">
			<stop  offset="0" style="stop-color:#F89C4D"/>
			<stop  offset="0.6041" style="stop-color:#F37163"/>
			<stop  offset="1" style="stop-color:#F0533F"/>
		</linearGradient>
		<path class="st17" d="M1318.16,1625.73c-19.74-8.03-157.58-64.81-188.28-74.78c-30.7-9.97-71.24-35.81-209.91-26.73
			c-138.67,9.08-269.98,2.1-263.68,74.74c6.3,72.64,34.96,69.15,64.29,64.96c29.33-4.19,165.16-37.02,272.22-32.83
			c107.06,4.19,229.85,12.57,280.33,12.57S1340.37,1634.77,1318.16,1625.73z"/>
		<linearGradient id="SVGID_17_" gradientUnits="userSpaceOnUse" x1="682.8834" y1="1715.0901" x2="1303.6317" y2="1715.0901">
			<stop  offset="0" style="stop-color:#F89C4D"/>
			<stop  offset="0.6041" style="stop-color:#F37163"/>
			<stop  offset="1" style="stop-color:#F0533F"/>
		</linearGradient>
		<path class="st18" d="M1292.24,1653.05c-23.94,1.06-120.74,3.41-173.95,0c-53.21-3.41-203.29-3.18-285.83,12.73
			s-161.67,14.55-148.03,37.06c13.64,22.51,47.75,87.32,84.59,74.36c36.84-12.96,153.22-51.16,204.18-57.98
			c50.96-6.82,212.63-17.74,262.43-35.47C1285.42,1666.01,1323.62,1651.66,1292.24,1653.05z"/>
		<linearGradient id="SVGID_18_" gradientUnits="userSpaceOnUse" x1="789.0959" y1="1728.985" x2="1311.6594" y2="1728.985">
			<stop  offset="0" style="stop-color:#F89C4D"/>
			<stop  offset="0.6041" style="stop-color:#F37163"/>
			<stop  offset="1" style="stop-color:#F0533F"/>
		</linearGradient>
		<path class="st19" d="M1089.01,1769.27c62.13-22.17,132.56-45.81,150.8-51.71c29.26-9.47,24.95-6.88,67.12-43.02
			c1.55-1.45,3.14-2.84,4.73-4.23c-5.42-0.47-13.07,0.39-23.72,4.57c-17.89,7.03-56.42,25.92-109.63,32.74
			c-53.21,6.82-160.31,20.46-216.25,30.7c-55.94,10.23-180.77,40.93-172.59,47.75c8.19,6.82,114.78-8.87,160.4-10.23
			C976.03,1775.05,1036.7,1772.48,1089.01,1769.27z"/>
		<path class="st0" d="M1134.17,1114.09c0.07,9.63,2.2,22.53,11.07,33.99c12.68,16.38,22.45,19.65,25.44,11.41
			C1158.98,1143.5,1146.79,1128.36,1134.17,1114.09z"/>
		<path class="st0" d="M1004.12,1036.51c-9.84,5.9-13.16,22.09,4.23,22.09c17.39,0,25.38-12.22,22.56-19.27
			C1028.09,1032.28,1013.52,1030.87,1004.12,1036.51z"/>
		<path class="st0" d="M942.54,1012.07c9.97,8.07,29.39,3.81,30.65-7.05c1.26-10.86-12.79-14.1-25.01-15.98
			C935.96,987.16,922.8,996.09,942.54,1012.07z"/>
		<circle class="st0" cx="931.63" cy="1055.13" r="9.31"/>
		<path class="st0" d="M723.57,1098.37c0,5.14-3.25,9.31-7.25,9.31c-4.01,0-7.25-4.17-7.25-9.31c0-5.14,3.25-9.31,7.25-9.31
			C720.32,1089.06,723.57,1093.23,723.57,1098.37z"/>
		<path class="st0" d="M679.77,1169.78c0,5.14-3.25,9.31-7.25,9.31c-4.01,0-7.25-4.17-7.25-9.31c0-5.14,3.25-9.31,7.25-9.31
			C676.52,1160.47,679.77,1164.64,679.77,1169.78z"/>
		<path class="st0" d="M621.09,1222.88c0,6.16-3.89,11.15-8.69,11.15c-4.8,0-8.69-4.99-8.69-11.15c0-6.16,3.89-11.15,8.69-11.15
			C617.2,1211.73,621.09,1216.72,621.09,1222.88z"/>
		<path class="st0" d="M859.31,1046.04c-1.92,6.24-7.46,10.08-12.37,8.57c-4.91-1.51-7.34-7.79-5.42-14.03
			c1.92-6.24,7.46-10.08,12.37-8.57C858.79,1033.51,861.22,1039.79,859.31,1046.04z"/>
		<path class="st0" d="M850.41,986.22c-3.99,7.99,7.84,23.03,33.3,23.03c25.46,0,28.28-16.45,19.82-23.03
			C895.06,979.64,856.99,973.06,850.41,986.22z"/>
		<path class="st0" d="M795.41,988.79c-12.3-3.15-23.97,5.89-23.97,20.46s6.11,22.23,21.62,22.23
			C808.57,1031.48,818.29,994.64,795.41,988.79z"/>
		<path class="st0" d="M723.57,1027.57c-9.94,6.59-6.18,27.36,15.44,27.55c21.62,0.19,22.09-27.07,10.81-31.77
			C738.54,1018.65,723.57,1027.57,723.57,1027.57z"/>
		<path class="st0" d="M649.23,1086.64c-3.69,10.9-4.7,27.44,12.69,27.44c17.39,0,26.37-33.86,10.6-42.32
			C656.75,1063.3,652.02,1078.4,649.23,1086.64z"/>
		<path class="st0" d="M599.87,1136.63c-12.24,8.24-21.62,17.39-9.4,29.14c12.22,11.75,35.25-4.7,42.77-19.27
			C640.77,1131.93,624.31,1120.18,599.87,1136.63z"/>
		<path class="st0" d="M546.76,1211.84c-9.8-1.2-16.92,7.05-16.92,32.9c0,25.85,10.34,20.68,15.51,20.68
			C564.15,1265.43,573.55,1215.13,546.76,1211.84z"/>
		<circle class="st0" cx="590.82" cy="1342.87" r="8.34"/>
		<path class="st0" d="M532.65,1291.75c-15.04,0-28.2,20.68-31.02,32.43c-2.82,11.75,3.76,22.55,19.74,21.85
			c15.98-0.7,44.65-29.37,34.78-43.94C546.29,1287.52,532.65,1291.75,532.65,1291.75z"/>
		<ellipse class="st0" cx="578.9" cy="1402.21" rx="11.93" ry="14.57"/>
		<path class="st0" d="M512.44,1392.81c-13.15-3.57-26.79,5.64-19.27,23.97c7.52,18.33,6.11,33.37,22.56,33.37
			C532.18,1450.16,555.69,1404.56,512.44,1392.81z"/>
		<path class="st0" d="M525.13,1475.54c-13.14-0.7-30.08,13.16-28.67,33.84c1.41,20.68,7.05,28.2,23.03,23.5
			C535.47,1528.18,551.46,1476.95,525.13,1475.54z"/>
		<path class="st0" d="M587.18,1492.46c-9.86,0.45-18.8,15.06-16.92,29.86c1.88,14.8,23.5,18.09,34.78-3.54
			C616.32,1497.16,597.52,1491.99,587.18,1492.46z"/>
		<path class="st0" d="M544.41,1575.19c-11.71-0.98-28.23,8.46-14.82,28.2c13.41,19.74,31.62,31.49,49.31,15.98
			C596.58,1603.86,555.69,1576.13,544.41,1575.19z"/>
		<path class="st0" d="M620.08,1560.62c-10.32-0.66-17,9.87-11.55,25.85c5.44,15.98,14.37,22.56,25.65,20.68
			C645.47,1605.27,664.27,1563.44,620.08,1560.62z"/>
		<path class="st0" d="M583.27,1638.18c-9.72,1.88-20.53,13.73-7.84,32.01c12.69,18.28,41.83,5.17,35.25-16.01
			C604.1,1633.01,583.27,1638.18,583.27,1638.18z"/>
		<path class="st0" d="M636.74,1630.19c-10.42,4.44-6.79,23.71,3.56,35.59c10.34,11.88,33.37-3.16,21.62-20.55
			C650.17,1627.84,644.47,1626.9,636.74,1630.19z"/>
		<path class="st0" d="M627.28,1700.22c-10.42-0.63-11.61,13.63,0,25.38c11.61,11.75,37.93,30.28,49.21,18.2
			C687.77,1731.72,650.46,1701.63,627.28,1700.22z"/>
		<path class="st0" d="M696.55,1756.63c-7.08,9.2,4.85,15.04,12.37,18.33c7.52,3.29,17.86-8.46,7.52-15.04
			C706.1,1753.34,701.25,1750.52,696.55,1756.63z"/>
		<path class="st20" d="M1102.95,1081.5c8.4,8.08,16.64,16.53,24.7,25.35C1119.58,1098.04,1111.35,1089.58,1102.95,1081.5z"/>
		<path class="st20" d="M1152.87,1136.29c7.96,9.91,15.73,20.19,23.28,30.82c0,0,0,0,0,0
			C1168.6,1156.49,1160.83,1146.21,1152.87,1136.29z"/>
		<path class="st20" d="M1128.47,1107.75c8.19,8.99,16.2,18.36,24.02,28.08C1144.67,1126.1,1136.66,1116.74,1128.47,1107.75z"/>
		<path class="st20" d="M971.55,992.96c2.24,0.93,4.48,1.86,6.7,2.84c0.94,0.41,1.87,0.86,2.81,1.28c2.15,0.97,4.3,1.94,6.44,2.95
			c0.91,0.43,1.82,0.9,2.73,1.34c2.15,1.04,4.31,2.08,6.45,3.17c0.88,0.45,1.75,0.92,2.63,1.38c2.17,1.13,4.35,2.26,6.51,3.43
			c0.8,0.43,1.6,0.89,2.4,1.33c2.23,1.23,4.47,2.47,6.69,3.76c0.71,0.41,1.42,0.84,2.13,1.26c2.3,1.35,4.6,2.71,6.89,4.12
			c0.62,0.38,1.24,0.78,1.87,1.17c2.37,1.47,4.74,2.96,7.09,4.49c0.54,0.35,1.08,0.71,1.62,1.07c2.44,1.6,4.87,3.21,7.29,4.87
			c0.45,0.31,0.89,0.62,1.34,0.93c2.5,1.73,5,3.48,7.48,5.28c0.36,0.26,0.73,0.53,1.09,0.8c2.56,1.86,5.12,3.75,7.66,5.68
			c0.29,0.22,0.57,0.44,0.86,0.66c2.62,2,5.22,4.03,7.82,6.09c0.21,0.16,0.41,0.33,0.61,0.49c2.67,2.14,5.33,4.31,7.98,6.52
			c0.13,0.11,0.26,0.22,0.4,0.33c2.72,2.28,5.42,4.59,8.11,6.95c0.06,0.05,0.11,0.1,0.17,0.15c1.68,1.48,3.37,2.94,5.04,4.44
			c-12.18-22.69-24.96-45.52-38.27-68.41c-2.87-2.2-5.75-4.41-8.73-6.49c-7.66-5.5-15.77-10.43-23.82-15.48
			c-8.21-4.83-16.63-9.31-25.29-13.42l-6.47-3.14l-6.61-2.87c-4.42-1.88-8.85-3.84-13.36-5.39l-13.51-4.83
			c-4.58-1.52-9.39-2.82-14.09-4.22c-4.62-1.44-9.75-2.4-14.69-3.52c-4.86-1.21-10.22-1.89-15.46-2.6l-3.94-0.53l-4.15-0.29
			c-2.77-0.17-5.53-0.38-8.3-0.49c-5.76,0.11-11.46,0.09-17.34,0.86c-2.94,0.27-5.82,0.66-8.64,1.22l-4.25,0.77l-3.9,0.89
			c-5.45,1.24-9.2,2.34-11.64,3.06c-0.3,0.06-0.52,0.13-0.79,0.24c-0.1,0.04-0.32,0.16-0.32,0.16c0.05-0.01,0.11-0.01,0.16,0.02
			c0.13,0.01,0.16,0.23,0.33,0.25c0.18,0,0.36,0.08,0.5,0.22c0.22,0.26,0.07,0.09,0.03,0.13c-0.07,0.01-0.15,0.07-0.27,0.17
			c-0.69-0.35-1.44-0.65-2.25-0.86l-9.36-3.98c-6.96-1.31-14-1.81-20.85-1.54c-6.84,0.32-13.39,1.43-19.55,3
			c-12.3,3.28-22.79,8.65-32,14.39c-9.23,5.78-17.13,12.39-24.32,18.63c-3.58,3.1-6.9,6.34-9.81,9.01
			c-1.33,1.25-4.13,3.17-4.13,3.17c-4.23,1.62-8.45,3.28-12.63,5.03c5.3,5.07,10.94,10.08,17.02,14.96c0.17,0.13,0.37,0.2,0.57,0.28
			c0.09,0.04,0.17,0.11,0.27,0.14c5.65,1.5,22.26-14.73,44.13-26.46c0.48-0.26,0.98-0.51,1.47-0.76c3.25-1.7,6.6-3.29,10.06-4.7
			c0.41-0.17,0.84-0.32,1.25-0.48c1.23-0.48,2.46-0.94,3.71-1.37c5.95-2.06,12.13-3.5,18.47-4.03c0.56-0.05,1.12-0.11,1.69-0.14
			c5.62-0.32,11.36,0.11,17.16,1.53c32.33,20.45,32.8-20.26,131.2,16.4c3.12,1.16,6.23,2.38,9.33,3.63
			C969.82,992.22,970.68,992.6,971.55,992.96z"/>
		<path class="st0" d="M578.9,1098.37c-1.29,0-2.58,0.1-3.85,0.29c-12.24,1.8-22.5,11.82-8.08,20.86
			c15.92,9.98,60.58,1.02,48.86-11.84C604.11,1094.82,578.9,1098.37,578.9,1098.37z"/>
		<path class="st0" d="M514.05,1117.86c-10,0.74-25.71,11.26-14.85,28.96c10.86,17.7,31.92,14.88,30.64-4.02
			C528.56,1123.89,524.88,1117.05,514.05,1117.86z"/>
		<path class="st0" d="M468.63,1164.91c-14.88,0.26-15.68,22.12,0,26.14C484.32,1195.08,491.56,1164.51,468.63,1164.91z"/>
		<path class="st0" d="M466.86,1220.33c0,3.69-2.36,6.68-5.27,6.68s-5.27-2.99-5.27-6.68c0-3.69,2.36-6.68,5.27-6.68
			S466.86,1216.63,466.86,1220.33z"/>
		<path class="st0" d="M426.4,1216.39c-10.45,0.37-18.1,12.47-12.47,30.16c5.63,17.7,29.36,11.26,26.95-4.83
			C438.47,1225.64,437.66,1215.99,426.4,1216.39z"/>
		<path class="st0" d="M391.82,1284.76c-9.65,7.24-23.33,27.51,0,33.86c23.33,6.36,39.41-26.62,27.75-37.08
			C407.9,1271.09,391.82,1284.76,391.82,1284.76z"/>
		<path class="st0" d="M376.13,1363.59c-11.26,0-20.91,10.46-11.66,30.16c9.25,19.71,16.89,18.1,23.33,18.1
			C405.09,1411.85,407.5,1363.59,376.13,1363.59z"/>
		<path class="st0" d="M390.61,1437.18c-11.26,0-18.9,14.08-18.9,28.55c0,14.48,6.84,25.34,18.9,25.34
			c12.07,0,15.28-14.08,15.28-26.95C405.89,1451.26,401.47,1437.18,390.61,1437.18z"/>
		<ellipse class="st0" cx="421.48" cy="1421.1" rx="7.15" ry="9.05"/>
		<ellipse class="st0" cx="429.71" cy="1348.93" rx="7.15" ry="9.05"/>
		<path class="st0" d="M429.56,1491.29c-8.62,4.34-6.03,20.15,0,26.18s20.11,0,16.89-14.88
			C443.24,1487.71,433.84,1489.14,429.56,1491.29z"/>
		<path class="st0" d="M403.08,1534.21c-10.86,0-22.12,6.61-8.45,26.38c13.67,19.77,22.52,19.37,30.97,19.37
			C434.04,1579.96,438.87,1534.21,403.08,1534.21z"/>
		<path class="st0" d="M441.05,1602.48c-11.83,0-23.15,9.65-18.5,28.15c4.65,18.5,12.7,23.33,23.15,23.33
			C456.16,1653.96,477.68,1602.48,441.05,1602.48z"/>
		<path class="st0" d="M506.03,1686.93c-10.46,0-34.18,0.8-25.74,18.1c8.45,17.29,31.07,23.95,44.29,23.95
			C537.81,1728.99,541.02,1686.93,506.03,1686.93z"/>
		<path class="st0" d="M551.48,1731.98c-9.65,0-26.79,7.55-17.62,21.27c9.17,13.72,18.83,15.73,28.08,15.73
			C578.9,1768.98,578.37,1731.98,551.48,1731.98z"/>
		<path class="st0" d="M606.59,1778.9c-11.04-2.3-12.88,7.77-6.85,15.82c6.03,8.04,35.47,20.51,48.1,20.51
			C660.47,1815.23,663.22,1790.68,606.59,1778.9z"/>
		<path class="st0" d="M665.74,1755.84c0,0-22.92,2.55-16.89,16.76c6.03,14.21,33.38,29.09,46.25,28.69s17.7-22.28-5.63-32.05
			C666.15,1759.46,665.74,1755.84,665.74,1755.84z"/>
		<linearGradient id="SVGID_19_" gradientUnits="userSpaceOnUse" x1="753.3943" y1="1829.017" x2="886.73" y2="1792.0334">
			<stop  offset="0" style="stop-color:#F89C4D"/>
			<stop  offset="0.6041" style="stop-color:#F37163"/>
			<stop  offset="1" style="stop-color:#F0533F"/>
		</linearGradient>
		<path class="st21" d="M881.09,1793.59c-28.31,2.32-52.22,4.77-73.51,6.15c-9.98,5.53-19.75,11.31-27.11,16.45
			c-8.05,5.62-7.59,15.78,0.99,14.93c32.52-3.2,108.08-24.08,145.94-40.86C911.22,1791.3,895.54,1792.41,881.09,1793.59z"/>
		<linearGradient id="SVGID_20_" gradientUnits="userSpaceOnUse" x1="699.4397" y1="1824.1069" x2="800.2183" y2="1785.0958">
			<stop  offset="0" style="stop-color:#F89C4D"/>
			<stop  offset="0.6041" style="stop-color:#F37163"/>
			<stop  offset="1" style="stop-color:#F0533F"/>
		</linearGradient>
		<path class="st22" d="M722.01,1794.14c-16.45,8.01-40.86,21.89-35.31,31.4c7.87,13.5,88.48,1.87,107.56-25.06
			C767.56,1801.61,744.79,1800.44,722.01,1794.14z"/>
		<path class="st0" d="M594.52,1711.4c-4.64,3.45-8.48,9.04-5.25,17.59c6.45,17.07,18.05,28.33,29.74,28.33
			c4.5,0,8.8-7.02,10.45-15.84C617.84,1732.11,606.05,1721.92,594.52,1711.4z"/>
		<path class="st0" d="M546,1663.68c-4.33,4.54-7.11,11.96,2.26,22.45c11.44,12.8,18.71,5.46,21.91,0.8
			C557.79,1675.14,556.67,1674.99,546,1663.68z"/>
		<path class="st0" d="M500.51,1608.02c-1.95-3.42-3.64-6.85-5.17-10.3c-6.56,5.05-15.57,15.09-8.2,28.8
			c9.29,17.28,26.79,20.48,32.67,7.75C510.97,1623.65,504.24,1614.56,500.51,1608.02z"/>
		<linearGradient id="SVGID_21_" gradientUnits="userSpaceOnUse" x1="447.5016" y1="1275.8633" x2="512.8488" y2="1275.8633">
			<stop  offset="0" style="stop-color:#F89C4D"/>
			<stop  offset="0.6041" style="stop-color:#F37163"/>
			<stop  offset="1" style="stop-color:#F0533F"/>
		</linearGradient>
		<path class="st23" d="M512.85,1240.5c-10.67-4.12-20.61-6.72-28.99-6.72c-19.04,0-36.35,18.26-36.35,47.11
			c0,18.5,9.52,28.65,33.37,37.05C493.82,1290.89,510.76,1266.13,512.85,1240.5z"/>
		<linearGradient id="SVGID_22_" gradientUnits="userSpaceOnUse" x1="438.4956" y1="1389.7601" x2="475.4332" y2="1389.7601">
			<stop  offset="0" style="stop-color:#F89C4D"/>
			<stop  offset="0.6041" style="stop-color:#F37163"/>
			<stop  offset="1" style="stop-color:#F0533F"/>
		</linearGradient>
		<path class="st24" d="M465.91,1373.7c0-11.23,2.1-21.9,5.39-32.17c-20.92,1.69-36.88,26.21-31.87,50.16
			c0,30.95,21.16,42.24,36.01,46.31C470.44,1417.65,465.91,1395.69,465.91,1373.7z"/>
		<linearGradient id="SVGID_23_" gradientUnits="userSpaceOnUse" x1="461.5919" y1="1508.2574" x2="488.4822" y2="1508.2574">
			<stop  offset="0" style="stop-color:#F89C4D"/>
			<stop  offset="0.6041" style="stop-color:#F37163"/>
			<stop  offset="1" style="stop-color:#F0533F"/>
		</linearGradient>
		<path class="st25" d="M487.92,1510.52c1.8-11.37-0.97-26.18-5.08-43.08c-14.54,7.33-22.49,18.05-21.09,34.18
			c2.82,32.45,11.76,44.04,23.18,47.46C484.62,1535.73,486,1522.72,487.92,1510.52z"/>
		<path class="st20" d="M881.09,1793.59c-95.93,7.86-141.54,17.3-204.44-18.87c-62.91-36.17-157.27-133.68-176.14-166.7
			c-18.87-33.03-17.3-67.62-12.58-97.5c4.72-29.88-22.02-83.35-22.02-136.82c0-53.47,47.18-94.36,47.18-138.39
			c0-44.03,11.01-53.47,61.33-91.21c50.32-37.74,51.9-48.75,69.67-89.64c11.31-26.03,55.17-39.94,85.56-46.62c0,0,0,0,0,0
			c-14.04,1.21-28.01,3.59-41.93,7.31c-6.95,1.9-13.84,4.28-20.63,7.35c-6.8,3.06-13.49,6.82-19.74,11.99
			c-1.52,1.36-3.02,2.79-4.53,4.22c-1.47,1.49-2.79,3.22-4.18,4.87c-1.37,1.68-2.45,3.69-3.63,5.59c-0.64,1.05-1,1.76-1.42,2.54
			l-1.25,2.33c-3.34,6.22-6.58,12.44-9.88,18.29c-3.33,5.86-6.6,11.32-10.27,16.1c-3.63,4.81-7.78,9.05-12.42,13.18
			c-18.68,16.73-42.92,29.89-66.78,47.49c-6,4.41-12.22,9.24-18.33,15.3c-6.07,5.97-12.33,13.54-16.84,22.64
			c-4.54,9.06-6.94,18.58-8.28,27.09c-0.78,4.4-1.08,8.33-1.49,12.46l-0.32,5.86l-0.16,2.9l-0.25,1.59
			c-0.93,8.31-4.73,18.23-10.75,29.29c-5.85,11.04-13.09,23.01-20.17,36.39c-6.99,13.39-14.07,28.46-17.89,45.96
			c-0.77,4.46-1.69,8.86-2.2,13.41l-0.51,6.92c-0.13,2.26-0.37,4.76-0.29,6.69c-0.04,8.27,0.36,16.39,1.15,24.28
			c1.52,15.8,4.6,30.75,7.85,44.94c3.22,14.13,6.86,27.8,9.2,39.85c1.2,6.07,1.99,11.5,2.29,15.87c-0.02,0.92-0.01,1.83,0.03,2.74
			c0,0.83-0.18,1.15-0.16,1.75l0,0.41l-0.21,1.4l-0.44,2.85l-0.81,5.77c-2.03,15.5-3.02,32.14-1.2,49.38
			c1.76,17.19,6.72,34.82,14.63,50.92c2.12,3.98,4.01,7.89,6.63,11.82l3.76,5.83l3.59,4.91l3.61,4.87l3.59,4.48
			c2.4,2.99,4.77,6.02,7.23,8.76c19.51,22.49,39.65,42.88,60.93,62.48c21.39,19.42,43.2,38.31,67.43,55.34
			c11.98,8.6,24.72,16.77,38.4,24.31c13.77,7.14,28.45,13.4,43.89,17.81c15.41,4.5,31.48,6.73,46.96,7.32
			c15.53,0.62,30.43-0.36,44.88-1.91c28.91-3.05,56.24-7.98,83.81-12.15c54.94-8.61,110.53-16.06,166.01-25.63
			C997.86,1786.14,931.96,1789.42,881.09,1793.59z"/>
		<linearGradient id="SVGID_24_" gradientUnits="userSpaceOnUse" x1="1371.2971" y1="761.5657" x2="1159.2834" y2="505.4973">
			<stop  offset="0" style="stop-color:#F9AC8D"/>
			<stop  offset="1" style="stop-color:#FFD49E"/>
		</linearGradient>
		<path class="st26" d="M1128.75,511.14c0.48-0.46,35.3,47.79,55.17,74.8c2.07-0.87,4.47-2.01,7.33-3.55
			c20.15-10.85,19.28-21.72,35.51-36.39c-7.99-14.14-49.24-84.23-87.41-94.1c-12.36-1.24-30.23,13.64-23.75,32.73
			C1119.03,494.76,1124.42,504.34,1128.75,511.14z"/>
		<linearGradient id="SVGID_25_" gradientUnits="userSpaceOnUse" x1="1305.7401" y1="815.8438" x2="1093.7262" y2="559.775">
			<stop  offset="0" style="stop-color:#F9AC8D"/>
			<stop  offset="1" style="stop-color:#FFD49E"/>
		</linearGradient>
		<path class="st27" d="M1109.35,642.17c9.46-13.28,15.06-17.07,21.53-21.08c16.28-23.34,21.31-19.31,37.15-33.02
			c-20.5-27.99-85.67-112.49-125.31-112.49c-12.42,0-29.15,23.81-10.26,53.5C1047.42,552.59,1086.79,614.67,1109.35,642.17z"/>
		<linearGradient id="SVGID_26_" gradientUnits="userSpaceOnUse" x1="953.994" y1="728.0503" x2="1073.2029" y2="728.0503">
			<stop  offset="0" style="stop-color:#F89C4D"/>
			<stop  offset="0.6041" style="stop-color:#F37163"/>
			<stop  offset="1" style="stop-color:#F0533F"/>
		</linearGradient>
		<path class="st28" d="M1028.89,796.02c-1.71-39.31,13.67-47.85,35.89-82.03c3.3-5.08,6.03-9.38,8.42-13.22
			c-31.96-23.12-65.88-41.93-91.62-41.93c-19.07,0-46.61,32.43-8.47,77.13c10.32,12.09,30.75,34.21,55.82,61.31
			C1028.92,796.85,1028.91,796.45,1028.89,796.02z"/>
		<path class="st20" d="M1020.05,948.05c25.41,40.7,48.68,81.4,70.31,121.69c107.45,150.72,148.5,392.02,306.77,554.27
			c2.84-0.9,5.67-1.77,8.47-2.57c-0.01,0-0.02,0-0.03,0.01c-68.63-89.32-121.41-234.17-192.54-396.77
			c-1.66-3.79-3.35-7.61-5.03-11.42c-1.56-3.55-3.13-7.1-4.71-10.67c-1.64-3.68-3.28-7.38-4.94-11.08
			c-1.8-4.01-3.61-8.04-5.43-12.07c-1.51-3.34-3.01-6.68-4.54-10.04c-3.15-6.92-6.34-13.85-9.57-20.82
			c-1.23-2.65-2.49-5.32-3.73-7.98c-2.31-4.95-4.64-9.9-7-14.87c-1.44-3.03-2.89-6.07-4.34-9.1c-2.38-4.98-4.79-9.96-7.22-14.96
			c-1.31-2.69-2.61-5.38-3.93-8.08c-3.64-7.42-7.33-14.86-11.08-22.31c-0.87-1.72-1.76-3.46-2.64-5.18
			c-3.05-6.02-6.13-12.05-9.26-18.08c-1.35-2.62-2.72-5.23-4.09-7.85c-2.87-5.49-5.78-10.98-8.71-16.48c-1.28-2.4-2.55-4.8-3.85-7.2
			c-4.15-7.69-8.35-15.39-12.63-23.09c-0.49-0.89-1.01-1.78-1.5-2.67c-3.84-6.88-7.75-13.76-11.71-20.64
			c-1.38-2.4-2.78-4.8-4.17-7.2c-3.29-5.67-6.63-11.33-10-16.99c-1.39-2.33-2.77-4.67-4.18-7c-4.68-7.76-9.41-15.52-14.24-23.27
			c-22.43-42.73-26.17-63.42-26.24-82.53c-0.03-9.55,0.85-18.71,0.78-30.03c-0.02-2.26-0.07-4.61-0.18-7.07
			c-0.11-2.46-0.15-4.79-0.12-7.02c0.36-33.45,15.18-42.97,36.01-75.01c22.22-34.18,20.51-35.89,41.02-66.65
			c20.51-30.76,23.93-20.51,46.14-42.73c22.22-22.22,17.09-10.25,39.31-22.22c22.22-11.96,18.8-23.93,41.02-41.02
			c0.02-0.02,0.04-0.03,0.06-0.05c1.3-1,2.6-2.06,3.89-3.15c0.43-0.37,0.86-0.75,1.29-1.13c0.89-0.77,1.77-1.55,2.65-2.35
			c0.48-0.44,0.96-0.9,1.44-1.35c0.83-0.78,1.66-1.57,2.48-2.37c0.48-0.47,0.96-0.95,1.44-1.43c0.83-0.84,1.67-1.68,2.49-2.54
			c0.44-0.46,0.88-0.92,1.32-1.38c0.89-0.94,1.78-1.89,2.66-2.85c0.36-0.39,0.72-0.78,1.08-1.18c1.03-1.13,2.05-2.27,3.07-3.43
			c0.2-0.22,0.4-0.44,0.59-0.67c10.86-12.33,21.25-25.71,31.19-36.6c0,0,0-0.01,0.01-0.01c-1.74-6.59-3.93-14.44-6.62-23.22
			c0,0-54.49,40.35-63.4,47.2c-12.59,9.69-40.26,38.86-46.91,42.44c-20.27,10.92-34.31,14.24-37.58,28.11
			c-0.07,0.31-0.14,0.64-0.23,0.99c-0.34,0.54-1.49,2.19-4.38,5.07c-6.34,6.34-9.84,8.51-14.26,11.25
			c-11.24,6.95-21.03,14.06-35.96,36.46c-11.1,16.65-16.08,25.32-21.36,34.49c-4.68,8.13-9.51,16.54-19.87,32.48
			c-4.65,7.15-8.98,13.08-13.17,18.82c-15.31,20.97-29.78,40.78-27.97,82.46c0.36,8.15-0.48,16.09-1.45,25.27
			c-3.01,28.73-6.77,64.48,24.07,123.22L1020.05,948.05z"/>
	</g>
	<g>
		<linearGradient id="SVGID_27_" gradientUnits="userSpaceOnUse" x1="1437.2234" y1="1235.2445" x2="1459.2504" y2="717.6012">
			<stop  offset="0" style="stop-color:#F9AC8D"/>
			<stop  offset="1" style="stop-color:#FFD49E"/>
		</linearGradient>
		<path class="st29" d="M1442.03,561.12c-14.82,7.96-21.22,25.04-21.22,49.68c0,24.64,32.58,26.01,53.25,26.01
			s33.82-23.96,33.82-50.66C1507.88,559.46,1461.88,550.45,1442.03,561.12z"/>
		<linearGradient id="SVGID_28_" gradientUnits="userSpaceOnUse" x1="1536.9242" y1="1239.4869" x2="1558.9512" y2="721.8438">
			<stop  offset="0" style="stop-color:#F9AC8D"/>
			<stop  offset="1" style="stop-color:#FFD49E"/>
		</linearGradient>
		<path class="st30" d="M1519.88,484.16c-14.87,0-38.15,17.11-25.14,51.34c13.01,34.23,75.99,176.46,84.2,199.13
			c8.21,22.67,26.22,20.89,35.81,20.89c9.58,0,21.2-10.74,21.2-40.86C1635.95,684.55,1583.35,484.16,1519.88,484.16z"/>
		<linearGradient id="SVGID_29_" gradientUnits="userSpaceOnUse" x1="1631.4238" y1="1243.5096" x2="1653.4508" y2="725.8654">
			<stop  offset="0" style="stop-color:#F9AC8D"/>
			<stop  offset="1" style="stop-color:#FFD49E"/>
		</linearGradient>
		<path class="st31" d="M1633.69,552.96c-20.07,0-29.3,20.88-24.49,34.53c4.82,13.65,26.9,79.89,34.92,124.85
			c8.03,44.96,16.06,53.79,36.93,53.79c20.87,0,26.09-12.44,22.88-53.79S1678.8,552.96,1633.69,552.96z"/>
		<linearGradient id="SVGID_30_" gradientUnits="userSpaceOnUse" x1="1704.6897" y1="1246.6272" x2="1726.7167" y2="728.983">
			<stop  offset="0" style="stop-color:#F9AC8D"/>
			<stop  offset="1" style="stop-color:#FFD49E"/>
		</linearGradient>
		<path class="st32" d="M1729.16,643.54c-12.44,0-27.7,6.02-23.68,38.94c4.01,32.92,4.82,43.35,4.82,51.79s-3.21,36.93,16.06,36.93
			c19.27,0,25.69-32.52,25.69-71.86S1744.41,643.54,1729.16,643.54z"/>
		<linearGradient id="SVGID_31_" gradientUnits="userSpaceOnUse" x1="1744.5826" y1="1248.3242" x2="1766.6096" y2="730.6807">
			<stop  offset="0" style="stop-color:#F9AC8D"/>
			<stop  offset="1" style="stop-color:#FFD49E"/>
		</linearGradient>
		<path class="st33" d="M1778.63,699.89c-14.05,0-16.46,10.84-22.08,32.52c-5.62,21.68-18.87,75.87-6.02,77.08
			s22.88-5.62,27.3-26.49C1782.24,762.11,1792.68,699.89,1778.63,699.89z"/>
		<linearGradient id="SVGID_32_" gradientUnits="userSpaceOnUse" x1="1766.4264" y1="1249.2538" x2="1788.4534" y2="731.6093">
			<stop  offset="0" style="stop-color:#F9AC8D"/>
			<stop  offset="1" style="stop-color:#FFD49E"/>
		</linearGradient>
		<path class="st34" d="M1793.82,763.25c-5.4,0-8.91,8.21-10.32,15.72c-1.41,7.51-14.78,48.33-4.69,48.33
			c10.09,0,13.61-23.46,15.01-32.02C1795.23,786.71,1798.75,763.25,1793.82,763.25z"/>
	</g>
</g>
</svg>
