<?xml version="1.0" encoding="UTF-8"?><svg width="512" height="512" version="1.1" viewBox="0 0 512 512" xmlns="http://www.w3.org/2000/svg" xmlns:xlink="http://www.w3.org/1999/xlink"><!--Generated by IJSVG (https://github.com/iconjar/IJSVG)--><g transform="scale(8)"><path fill="#000" d="M52.46,14.188c-2.623,-2.624 -6.112,-4.069 -9.823,-4.069c-3.711,0 -7.2,1.445 -9.825,4.069l-0.811,0.812l-0.812,-0.812c-2.624,-2.624 -6.113,-4.069 -9.824,-4.069c-3.711,0 -7.2,1.445 -9.825,4.069c-5.417,5.417 -5.417,14.231 0,19.648l19.754,19.753c0.188,0.188 0.442,0.293 0.707,0.293c0.265,0 0.52,-0.105 0.707,-0.293l19.752,-19.753c5.416,-5.417 5.416,-14.231 0,-19.648Z"></path></g></svg>